SplineFontDB: 3.0
FontName: Exo-ThinItalic
FullName: Exo Thin Italic
FamilyName: Exo
Weight: Thin
Copyright: Copyright (c) 2011 Natanael Gama (exo@ndiscovered.com), with Reserved Font Name "Exo"
UComments: "2010-2-8: Created." 
Version: 1.00
ItalicAngle: 0
UnderlinePosition: -100
UnderlineWidth: 50
Ascent: 800
Descent: 200
sfntRevision: 0x00010000
LayerCount: 2
Layer: 0 0 "Back"  1
Layer: 1 0 "Fore"  0
NeedsXUIDChange: 1
XUID: [1021 348 1054973004 1200425]
FSType: 8
OS2Version: 0
OS2_WeightWidthSlopeOnly: 0
OS2_UseTypoMetrics: 1
CreationTime: 1265665101
ModificationTime: 1324988025
PfmFamily: 33
TTFWeight: 100
TTFWidth: 5
LineGap: 90
VLineGap: 0
OS2TypoAscent: 0
OS2TypoAOffset: 1
OS2TypoDescent: 0
OS2TypoDOffset: 1
OS2TypoLinegap: 90
OS2WinAscent: 0
OS2WinAOffset: 1
OS2WinDescent: 0
OS2WinDOffset: 1
HheadAscent: 0
HheadAOffset: 1
HheadDescent: 0
HheadDOffset: 1
OS2Vendor: 'PfEd'
Lookup: 4 0 0 "'ordn' Ordinals lookup 21"  {"'ordn' Ordinals lookup 21-1"  } ['ordn' ('DFLT' <'dflt' > 'grek' <'dflt' > 'latn' <'dflt' > ) ]
Lookup: 1 0 0 "'smcp' Lowercase to Small Capitals lookup 16"  {"'smcp' Lowercase to Small Capitals lookup 16-1" ("smcp" ) } ['smcp' ('DFLT' <'dflt' > 'grek' <'dflt' > 'latn' <'FRA ' 'dflt' > ) ]
Lookup: 1 0 0 "'c2sc' Capitals to Small Capitals in Latin lookup 17"  {"'c2sc' Capitals to Small Capitals in Latin lookup 17 subtable" ("smcp" ) } ['c2sc' ('latn' <'dflt' > ) ]
Lookup: 4 0 0 "'dlig' Discretionary Ligatures lookup 14"  {"'dlig' Discretionary Ligatures lookup 14-1"  } ['dlig' ('DFLT' <'dflt' > 'grek' <'dflt' > 'latn' <'dflt' > ) ]
Lookup: 4 0 1 "'liga' Standard Ligatures lookup 15"  {"'liga' Standard Ligatures lookup 15-1"  } ['liga' ('DFLT' <'dflt' > 'grek' <'dflt' > 'latn' <'FRA ' 'dflt' > ) ]
Lookup: 1 0 0 "'frac' Diagonal Fractions lookup 13"  {"'frac' Diagonal Fractions lookup 13-1"  } ['frac' ('DFLT' <'dflt' > 'grek' <'dflt' > 'latn' <'FRA ' 'dflt' > ) ]

StartChar: a
Encoding: 97 97 0
Width: 545
VWidth: 0
Flags: HW
HStem: -7 23<177.986 318.991> 0 21G<452 468.923>
VStem: 453 13<0 47.9>
DStem2: 511 476 536 479 0.144602 0.98949<-412.388 4.78166>
LayerCount: 2
Fore
SplineSet
109 246 m 0
 86 98 128 16 238 16 c 0
 325 16 385 46 453 75 c 1
 511 476 l 1
 482 494 406 530 309 517 c 0
 192 501 139 438 109 246 c 0
90 279 m 0
 130 507 228 531 310 541 c 0
 380 550 485 528 536 479 c 1
 466 0 l 1
 452 0 l 1
 453 60 l 1
 424 41 323 -7 246 -7 c 0
 132 -7 49 45 90 279 c 0
EndSplineSet
AlternateSubs2: "'salt' Access All Alternates in Latin lookup 4-1" a.salt
Substitution2: "'smcp' Lowercase to Small Capitals lookup 16-1" a.smcp
EndChar

StartChar: z
Encoding: 122 122 1
Width: 449
VWidth: 0
Flags: HW
HStem: 1 24<82 427.427> 507 24<114 472>
DStem2: 49 25 82 25 0.660487 0.750837<21.7961 641.29>
LayerCount: 2
Fore
SplineSet
45 1 m 1
 49 25 l 1
 472 507 l 1
 110 507 l 1
 114 531 l 1
 510 531 l 1
 506 507 l 1
 82 25 l 1
 430 25 l 1
 431 24 426 1 426 1 c 1
 45 1 l 1
EndSplineSet
Substitution2: "'smcp' Lowercase to Small Capitals lookup 16-1" z.smcp
EndChar

StartChar: e
Encoding: 101 101 2
Width: 537
VWidth: 0
Flags: HW
HStem: -7 24<156.35 368.237> 517 24<253.042 436.143>
LayerCount: 2
Fore
SplineSet
108 261 m 1
 108 261 477 192 502 388 c 0
 515 486 451 517 347 517 c 0
 149 517 137 406 108 261 c 1
87 278 m 0
 113 430 144 541 339 541 c 0
 465 541 542 504 527 388 c 0
 499 169 143 232 106 247 c 1
 86 94 105 19 212 17 c 0
 289 16 372 27 450 38 c 1
 447 22 l 1
 363 -1 297 -7 214 -7 c 0
 86 -7 54 84 87 278 c 0
EndSplineSet
Substitution2: "'smcp' Lowercase to Small Capitals lookup 16-1" e.smcp
EndChar

StartChar: o
Encoding: 111 111 3
Width: 560
VWidth: 0
Flags: HW
HStem: -5 24<177.716 365.943> 512 24<252.013 437.291>
LayerCount: 2
Fore
SplineSet
115 258 m 0
 82 47 146 19 273 19 c 0
 401 19 473 56 505 258 c 0
 539 475 470 512 349 512 c 0
 229 512 152 490 115 258 c 0
91 265 m 0
 125 482 195 536 354 536 c 0
 527 536 559 438 529 251 c 0
 498 57 436 -5 268 -5 c 0
 92 -5 61 75 91 265 c 0
EndSplineSet
Substitution2: "'smcp' Lowercase to Small Capitals lookup 16-1" o.smcp
EndChar

StartChar: c
Encoding: 99 99 5
Width: 491
VWidth: 0
Flags: HW
HStem: -5 24<161.554 359.96> 512 24<232.625 427.827>
LayerCount: 2
Fore
SplineSet
90 273 m 0
 127 505 206 536 308 536 c 0
 360 536 442 524 502 510 c 1
 499 496 l 1
 499 496 393 512 304 512 c 0
 213 512 147 478 113 262 c 0
 80 56 140 19 226 19 c 0
 318 19 434 40 434 40 c 1
 432 24 l 1
 347 1 305 -4 222 -5 c 1
 123 -5 53 40 90 273 c 0
EndSplineSet
Substitution2: "'smcp' Lowercase to Small Capitals lookup 16-1" c.smcp
EndChar

StartChar: d
Encoding: 100 100 6
Width: 521
VWidth: 0
Flags: HW
HStem: 0 18<188.4 314.542> 515 24<251.34 414.006> 765 20G<549.853 575>
VStem: 438 13<0 44.3145>
DStem2: 439 73 451 0 0.156027 0.987753<-6.68748 418.284 431.549 721.067>
LayerCount: 2
Fore
SplineSet
113 263 m 0
 84 82 153 18 238 18 c 0
 317 18 382 46 439 73 c 1
 505 485 l 1
 439 503 393 515 316 515 c 0
 232 515 146 472 113 263 c 0
89 271 m 0
 111 407 166 539 317 539 c 0
 362 539 448 525 508 499 c 1
 553 785 l 1
 575 785 l 1
 451 0 l 1
 438 0 l 1
 437 59 l 1
 407 35 299 -6 231 -6 c 0
 86 -6 70 149 89 271 c 0
EndSplineSet
AlternateSubs2: "'salt' Access All Alternates in Latin lookup 4-1" d.salt
Substitution2: "'smcp' Lowercase to Small Capitals lookup 16-1" d.smcp
EndChar

StartChar: A
Encoding: 65 65 7
Width: 643
VWidth: 0
Flags: HW
HStem: 0 21G<45 83.5929 586.968 615> 253 24<220 535> 712 20G<424.344 472.989>
DStem2: 45 0 73 0 0.470213 0.882553<13.166 299.46 326.754 815.696> 469 732 449 709 0.195601 -0.980684<18.6437 459.121 483.635 741.724>
LayerCount: 2
Fore
SplineSet
220 277 m 1
 535 277 l 1
 449 709 l 1
 220 277 l 1
45 0 m 1
 435 732 l 1
 469 732 l 1
 615 0 l 1
 591 0 l 1
 540 253 l 1
 207 253 l 1
 73 0 l 1
 45 0 l 1
EndSplineSet
Substitution2: "'c2sc' Capitals to Small Capitals in Latin lookup 17 subtable" a.smcp
EndChar

StartChar: p
Encoding: 112 112 8
Width: 527
VWidth: 0
Flags: HW
HStem: -10 24<181.96 353.597> 513 24<180.374 422.797>
DStem2: 17 -270 41 -270 0.157362 0.987541<3.77669 306.447 321.606 796.534>
LayerCount: 2
Fore
SplineSet
91 45 m 1
 171 24 212 14 286 14 c 0
 410 14 462 107 488 268 c 0
 510 405 485 513 365 513 c 2
 165 513 l 1
 91 45 l 1
17 -270 m 1
 144 527 l 1
 195 535 265 537 371 537 c 0
 496 537 539 429 512 261 c 0
 487 103 437 -10 284 -10 c 0
 239 -10 148 3 88 29 c 1
 41 -270 l 1
 17 -270 l 1
EndSplineSet
AlternateSubs2: "'salt' Access All Alternates in Latin lookup 4-1" p.salt
Substitution2: "'smcp' Lowercase to Small Capitals lookup 16-1" p.smcp
EndChar

StartChar: b
Encoding: 98 98 9
Width: 545
VWidth: 0
Flags: HW
HStem: -6 24<207.54 337.368> 515 24<265.075 421.242> 765 20G<180.841 206>
DStem2: 60 0 95 73 0.156027 0.987753<2.02835 63.2703 74.014 498.683 508.647 794.733>
LayerCount: 2
Fore
SplineSet
95 73 m 1
 144 46 203 18 282 18 c 0
 367 18 454 89 482 263 c 0
 514 468 445 515 361 515 c 0
 284 515 232 503 160 485 c 1
 95 73 l 1
60 0 m 1
 184 785 l 1
 206 785 l 1
 161 499 l 1
 229 525 322 539 367 539 c 0
 518 539 528 392 506 256 c 0
 487 134 426 -6 281 -6 c 0
 213 -6 114 35 92 59 c 1
 73 0 l 1
 60 0 l 1
EndSplineSet
AlternateSubs2: "'salt' Access All Alternates in Latin lookup 4-1" b.salt
Substitution2: "'smcp' Lowercase to Small Capitals lookup 16-1" b.smcp
EndChar

StartChar: q
Encoding: 113 113 10
Width: 552
VWidth: 0
Flags: HW
HStem: -10 24<174.516 338.276> 513 24<254.868 508.195>
DStem2: 393 -270 417 -270 0.156153 0.987733<3.74768 302.671 314.25 792.758>
LayerCount: 2
Fore
SplineSet
116 268 m 0
 90 107 113 14 237 14 c 0
 311 14 357 24 443 45 c 1
 517 513 l 1
 316 513 l 2
 196 513 138 405 116 268 c 0
92 277 m 0
 119 445 194 537 319 537 c 0
 425 537 495 535 543 527 c 1
 417 -270 l 1
 393 -270 l 1
 440 29 l 1
 372 3 277 -10 232 -10 c 0
 79 -10 67 119 92 277 c 0
EndSplineSet
Substitution2: "'smcp' Lowercase to Small Capitals lookup 16-1" q.smcp
EndChar

StartChar: n
Encoding: 110 110 11
Width: 540
VWidth: 0
Flags: HW
HStem: 0 21G<60 87.1648 440 467.189> 511 20G<140.836 158> 516 24<299.446 439.43>
VStem: 144 14<486.75 531>
DStem2: 440 0 464 0 0.15747 0.987524<3.77928 433.957>
LayerCount: 2
Fore
SplineSet
60 0 m 1
 144 531 l 1
 158 531 l 1
 158 469 l 1
 223 507 305 540 386 540 c 0
 492 540 537 458 523 370 c 2
 464 0 l 1
 440 0 l 1
 499 370 l 2
 512 449 471 516 382 516 c 0
 294 516 236 495 156 455 c 1
 84 0 l 1
 60 0 l 1
EndSplineSet
AlternateSubs2: "'salt' Access All Alternates in Latin lookup 4-1" n.salt
Substitution2: "'smcp' Lowercase to Small Capitals lookup 16-1" n.smcp
EndChar

StartChar: i
Encoding: 105 105 12
Width: 144
VWidth: 0
Flags: HW
HStem: 0 21G<60 87.1638> 511 20G<140.836 168> 630 66<161.611 193.406>
VStem: 60 138
DStem2: 60 0 84 0 0.164399 0.986394<3.94558 537.585 640.706 707.52>
LayerCount: 2
Fore
SplineSet
157 642 m 2
 163 684 l 2
 164 692 169 696 177 696 c 2
 189 696 l 2
 197 696 199 691 198 684 c 2
 192 642 l 2
 191 634 185 630 178 630 c 2
 167 630 l 2
 160 630 156 635 157 642 c 2
60 0 m 1
 144 531 l 1
 168 531 l 1
 84 0 l 1
 60 0 l 1
EndSplineSet
Substitution2: "'smcp' Lowercase to Small Capitals lookup 16-1" i.smcp
EndChar

StartChar: h
Encoding: 104 104 13
Width: 540
VWidth: 0
Flags: HW
HStem: 0 21G<60 87.1648 440 467.189> 516 24<300.504 438.841> 764 20G<180.837 208>
DStem2: 60 0 84 0 0.156221 0.987722<3.74931 471.578 478.551 793.746> 440 0 464 0 0.15747 0.987524<3.77928 435.287>
LayerCount: 2
Fore
SplineSet
60 0 m 1
 184 784 l 1
 208 784 l 1
 158 469 l 1
 223 507 308 540 389 540 c 0
 495 540 537 458 523 370 c 2
 464 0 l 1
 440 0 l 1
 499 370 l 2
 512 454 471 516 382 516 c 0
 294 516 236 495 156 455 c 1
 84 0 l 1
 60 0 l 1
EndSplineSet
Substitution2: "'smcp' Lowercase to Small Capitals lookup 16-1" h.smcp
EndChar

StartChar: u
Encoding: 117 117 14
Width: 539
VWidth: 0
Flags: HW
HStem: -8 24<159.023 298.906> 1 21G<440 457.164> 512 20G<130.811 158 510.835 538>
VStem: 440 14<1 45.25>
DStem2: 75 162 99 162 0.15747 0.987524<-55.4837 374.675> 442 77 454 1 0.156249 0.987718<-7.16798 460.661>
LayerCount: 2
Fore
SplineSet
75 162 m 2
 134 532 l 1
 158 532 l 1
 99 162 l 2
 86 83 127 16 216 16 c 0
 304 16 362 37 442 77 c 1
 514 532 l 1
 538 532 l 1
 454 1 l 1
 440 1 l 1
 440 63 l 1
 375 25 294 -8 213 -8 c 0
 107 -8 61 74 75 162 c 2
EndSplineSet
AlternateSubs2: "'salt' Access All Alternates in Latin lookup 4-1" u.salt
Substitution2: "'smcp' Lowercase to Small Capitals lookup 16-1" u.smcp
EndChar

StartChar: r
Encoding: 114 114 15
Width: 393
VWidth: 0
Flags: HW
HStem: 0 21G<60 87.1532> 513 18<307.219 456.562>
VStem: 144 10<486.75 531>
LayerCount: 2
Fore
SplineSet
60 0 m 1
 144 531 l 1
 156 531 l 1
 157 464 l 1
 224 499 297 537 387 537 c 0
 416 537 441 536 460 529 c 1
 456 506 l 1
 433 511 412 513 383 513 c 0
 294 513 237 481 154 444 c 1
 84 0 l 1
 60 0 l 1
EndSplineSet
AlternateSubs2: "'salt' Access All Alternates in Latin lookup 4-1" r.salt
Substitution2: "'smcp' Lowercase to Small Capitals lookup 16-1" r.smcp
EndChar

StartChar: m
Encoding: 109 109 16
Width: 921
VWidth: 0
Flags: HW
HStem: 0 21G<60 87.1648 440 467.189 819 846.189> 511 20G<140.836 158> 516 24<299.446 439.804 683.204 818.43>
VStem: 144 14<486.75 531>
DStem2: 440 0 464 0 0.15747 0.987524<3.77928 436.209> 819 0 843 0 0.15747 0.987524<3.77928 433.957>
LayerCount: 2
Fore
SplineSet
60 0 m 1
 144 531 l 1
 158 531 l 1
 158 469 l 1
 223 507 305 540 386 540 c 0
 454 540 497 506 515 458 c 1
 573 497 685 540 765 540 c 0
 871 540 916 458 902 370 c 2
 843 0 l 1
 819 0 l 1
 878 370 l 2
 891 449 850 516 761 516 c 0
 677 516 596 484 519 446 c 1
 526 422 527 397 523 370 c 2
 464 0 l 1
 440 0 l 1
 499 370 l 2
 512 449 471 516 382 516 c 0
 294 516 236 495 156 455 c 1
 84 0 l 1
 60 0 l 1
EndSplineSet
AlternateSubs2: "'salt' Access All Alternates in Latin lookup 4-1" m.salt
Substitution2: "'smcp' Lowercase to Small Capitals lookup 16-1" m.smcp
EndChar

StartChar: f
Encoding: 102 102 17
Width: 359
VWidth: 0
Flags: HW
HStem: 0 21G<99 126.156> 507 24<207 381> 507 14<94 156.3> 762 24<275.571 462> 762 13<429.491 462>
DStem2: 99 0 123 0 0.155238 0.987877<3.72571 513.273 541.328 735.071>
LayerCount: 2
Fore
SplineSet
92 507 m 1
 94 521 l 1
 183 531 l 1
 198 630 l 2
 207 684 213 782 323 786 c 0
 353 787 430 785 464 775 c 1
 462 762 l 1
 320 762 l 2
 252 762 234 708 222 630 c 2
 207 531 l 1
 385 531 l 1
 381 507 l 1
 203 507 l 1
 123 0 l 1
 99 0 l 1
 179 507 l 1
 92 507 l 1
EndSplineSet
AlternateSubs2: "'salt' Access All Alternates in Latin lookup 4-1" f.salt
Substitution2: "'smcp' Lowercase to Small Capitals lookup 16-1" f.smcp
EndChar

StartChar: l
Encoding: 108 108 18
Width: 313
VWidth: 0
Flags: HW
HStem: 0 13<207.594 249> 763 20G<179.835 207>
DStem2: 89 189 113 189 0.156304 0.987709<-89.4128 601.392>
LayerCount: 2
Fore
SplineSet
89 189 m 2
 183 783 l 1
 207 783 l 1
 113 189 l 2
 88 32 150 28 179 24 c 2
 179 24 244 13 251 13 c 1
 249 0 l 1
 184 0 l 2
 100 0 68 57 89 189 c 2
EndSplineSet
Substitution2: "'smcp' Lowercase to Small Capitals lookup 16-1" l.smcp
EndChar

StartChar: j
Encoding: 106 106 19
Width: 151
VWidth: 0
Flags: HW
HStem: 511 20G<151.829 179> 630 66<171.399 202.608>
VStem: 28 180
DStem2: 28 -270 94 -4 0.156596 0.987663<2.03574 811.006 950.295 979.842> 166 642 201 642 0.164399 0.986394<-9.22497 57.5945>
LayerCount: 2
Fore
SplineSet
166 642 m 2
 173 684 l 2
 174 692 179 696 187 696 c 2
 199 696 l 2
 207 696 209 691 208 684 c 2
 201 642 l 2
 200 634 195 630 188 630 c 2
 177 630 l 2
 170 630 165 635 166 642 c 2
28 -270 m 1
 155 531 l 1
 179 531 l 1
 94 -4 l 2
 81 -90 67 -182 41 -270 c 1
 28 -270 l 1
EndSplineSet
Substitution2: "'smcp' Lowercase to Small Capitals lookup 16-1" j.smcp
EndChar

StartChar: t
Encoding: 116 116 20
Width: 344
VWidth: 0
Flags: HW
HStem: -1 13<243.594 285> 508 24<204 375> 508 16<95 169.375>
VStem: 92 287
DStem2: 125 188 149 188 0.156581 0.987665<-89.3559 324.038>
LayerCount: 2
Fore
SplineSet
92 508 m 1
 95 524 l 1
 180 532 l 1
 211 680 l 1
 227 680 l 1
 204 532 l 1
 379 532 l 1
 375 508 l 1
 200 508 l 1
 149 188 l 2
 124 31 186 27 215 23 c 2
 215 23 280 12 287 12 c 1
 285 -1 l 1
 222 -1 l 2
 138 -1 104 56 125 188 c 2
 176 508 l 1
 92 508 l 1
EndSplineSet
AlternateSubs2: "'salt' Access All Alternates in Latin lookup 4-1" t.salt
Substitution2: "'smcp' Lowercase to Small Capitals lookup 16-1" t.smcp
EndChar

StartChar: s
Encoding: 115 115 21
Width: 504
VWidth: 0
Flags: HW
HStem: -5 24<114.089 380.379> 5 14<66 188.745> 252 24<140.74 403.715> 513 23<192.256 451.202> 513 14<362.672 491>
DStem2: 99 369 123 363 0.150442 0.988619<-61.2151 107.056> 431 113 455 107 0.161132 0.986933<-61.4157 94.4025>
LayerCount: 2
Fore
SplineSet
64 5 m 1
 66 19 l 1
 310 19 l 2
 357 19 416 20 431 113 c 2
 439 162 l 2
 447 211 421 252 350 252 c 2
 219 252 l 2
 125 252 83 266 99 369 c 2
 106 415 l 2
 119 497 161 536 264 536 c 0
 316 536 443 532 494 527 c 1
 491 513 l 1
 260 513 l 2
 176 513 141 481 130 409 c 2
 123 363 l 2
 109 277 148 276 223 276 c 2
 351 276 l 2
 427 276 475 231 463 156 c 2
 455 107 l 2
 438 -2 368 -5 304 -5 c 0
 255 -5 101 1 64 5 c 1
EndSplineSet
Substitution2: "'smcp' Lowercase to Small Capitals lookup 16-1" s.smcp
EndChar

StartChar: k
Encoding: 107 107 22
Width: 474
VWidth: 0
Flags: HW
HStem: 0 21G<60 87.2 397.281 437> 275 22<131 231.549> 511 20G<452.5 493> 762 20G<180.829 208>
VStem: 468 25<497.629 531>
DStem2: 60 0 84 0 0.156611 0.98766<3.75867 283.183 304.454 791.77> 265 292 242 285 0.507536 -0.861631<0 324.681>
LayerCount: 2
Fore
SplineSet
60 0 m 1
 184 782 l 1
 208 782 l 1
 131 297 l 1
 347 296 437 426 468 531 c 1
 493 531 l 1
 452 382 352 319 265 292 c 1
 437 0 l 1
 409 0 l 1
 242 285 l 1
 191 273 147 273 128 275 c 1
 84 0 l 1
 60 0 l 1
EndSplineSet
Substitution2: "'smcp' Lowercase to Small Capitals lookup 16-1" k.smcp
EndChar

StartChar: g
Encoding: 103 103 23
Width: 532
VWidth: 0
Flags: HW
HStem: -10 24<172.167 339.534> 513 24<257.046 505.719>
DStem2: 265 -249 261 -272 0.997805 -0.066226<-226.497 48.1944> 423 -104 447 -104 0.15572 0.987801<-65.3369 134.648 150.15 619.795>
LayerCount: 2
Fore
SplineSet
115 271 m 0
 87 95 118 14 234 14 c 0
 308 14 361 28 447 49 c 1
 521 508 l 1
 322 513 l 2
 206 516 139 420 115 271 c 0
37 -248 m 1
 39 -234 l 1
 265 -249 l 2
 319 -253 406 -212 423 -104 c 2
 444 29 l 1
 376 3 276 -10 231 -10 c 0
 78 -10 66 117 91 275 c 0
 118 443 192 537 317 537 c 0
 423 537 500 528 546 524 c 1
 447 -104 l 2
 427 -228 337 -280 261 -272 c 2
 37 -248 l 1
EndSplineSet
AlternateSubs2: "'salt' Access All Alternates in Latin lookup 4-1" g.salt
Substitution2: "'smcp' Lowercase to Small Capitals lookup 16-1" g.smcp
EndChar

StartChar: v
Encoding: 118 118 24
Width: 533
VWidth: 0
Flags: HW
HStem: 0 21G<222.953 267.591> 511 20G<94 123.141 523 544>
DStem2: 118 531 94 531 0.244683 -0.969603<0 514.182> 246 33 256 0 0.501424 0.865202<0 566.551>
LayerCount: 2
Fore
SplineSet
94 531 m 1
 118 531 l 1
 246 33 l 1
 488 448 l 2
 500 469 521 504 525 532 c 1
 540 532 l 1
 548 503 517 451 511 440 c 2
 256 0 l 1
 228 0 l 1
 94 531 l 1
EndSplineSet
Substitution2: "'smcp' Lowercase to Small Capitals lookup 16-1" v.smcp
EndChar

StartChar: w
Encoding: 119 119 25
Width: 806
VWidth: 0
Flags: HW
HStem: 0 21G<222.953 265.6 500.8 544.591> 511 20G<94 123.09 521 542 801 822>
DStem2: 118 531 94 531 0.244683 -0.969603<0 514.907> 245 32 254 0 0.501659 0.865065<0 323.641 357.256 565.162> 445 329 428 300 0.251634 -0.967822<23.7891 308.755> 522 30 533 0 0.501424 0.865202<0 570.283>
LayerCount: 2
Fore
SplineSet
94 531 m 1
 118 531 l 1
 245 32 l 1
 484 445 l 2
 496 466 519 502 523 530 c 1
 538 530 l 1
 546 501 514 449 508 438 c 2
 445 329 l 1
 522 30 l 1
 764 446 l 2
 776 467 799 504 803 532 c 1
 818 532 l 1
 826 503 794 451 788 440 c 2
 533 0 l 1
 506 0 l 1
 428 300 l 1
 254 0 l 1
 228 0 l 1
 94 531 l 1
EndSplineSet
Substitution2: "'smcp' Lowercase to Small Capitals lookup 16-1" w.smcp
EndChar

StartChar: y
Encoding: 121 121 26
Width: 536
VWidth: 0
Flags: HW
HStem: -269 14<97 117.998> 0 25<247.269 283> 511 20G<94 121.952>
DStem2: 118 531 94 531 0.193426 -0.981115<0 481.262> 283 0 310 1 0.431245 0.902235<-176.845 0 27.7308 581.004>
LayerCount: 2
Fore
SplineSet
94 531 m 1
 118 531 l 1
 200 116 l 2
 220 13 295 25 295 25 c 1
 500 454 l 2
 510 476 524 510 528 538 c 1
 543 538 l 1
 551 509 532 465 523 446 c 2
 310 1 l 1
 310 1 192 -269 97 -269 c 1
 97 -255 l 1
 168 -256 283 0 283 0 c 1
 262 1 196 12 177 110 c 2
 94 531 l 1
EndSplineSet
Substitution2: "'smcp' Lowercase to Small Capitals lookup 16-1" y.smcp
EndChar

StartChar: x
Encoding: 120 120 27
Width: 444
VWidth: 0
Flags: HW
HStem: 0 21G<24 73.6955 396.724 440> 511 20G<108 151.358 474.387 524>
DStem2: 24 0 56 0 0.661201 0.750209<21.1584 345.617 384.005 707.803> 140 531 108 531 0.491895 -0.870654<0 279.451 315.187 594.145>
LayerCount: 2
Fore
SplineSet
24 0 m 1
 258 266 l 1
 108 531 l 1
 140 531 l 1
 278 288 l 1
 492 531 l 1
 524 531 l 1
 290 266 l 1
 440 0 l 1
 408 0 l 1
 271 243 l 1
 56 0 l 1
 24 0 l 1
EndSplineSet
AlternateSubs2: "'salt' Access All Alternates in Latin lookup 4-1" x.salt
Substitution2: "'smcp' Lowercase to Small Capitals lookup 16-1" x.smcp
EndChar

StartChar: V
Encoding: 86 86 28
Width: 668
VWidth: 0
Flags: HW
HStem: 0 21G<292.011 340.656> 712 20G<150 178.994 682.32 720>
DStem2: 175 732 150 732 0.195601 -0.980684<0 719.942> 316 26 330 0 0.470213 0.882553<0 800.353>
LayerCount: 2
Fore
SplineSet
150 732 m 1
 175 732 l 1
 316 26 l 1
 693 732 l 1
 720 732 l 1
 330 0 l 1
 296 0 l 1
 150 732 l 1
EndSplineSet
Substitution2: "'c2sc' Capitals to Small Capitals in Latin lookup 17 subtable" v.smcp
EndChar

StartChar: W
Encoding: 87 87 29
Width: 980
VWidth: 0
Flags: HW
HStem: 0 21G<292.011 340.202 623.151 672.109> 712 20G<150 178.017 663.873 700 995.859 1032>
DStem2: 174 732 150 732 0.195601 -0.980684<0 721.119> 316 25 330 0 0.451111 0.892468<0 428.546 467.902 792.472> 550 431 532 396 0.231836 -0.972755<29.8734 418.399> 647 24 662 0 0.451111 0.892468<0 793.816>
LayerCount: 2
Fore
SplineSet
150 732 m 1
 174 732 l 1
 316 25 l 1
 674 732 l 1
 700 732 l 1
 550 431 l 1
 647 24 l 1
 1006 732 l 1
 1032 732 l 1
 662 0 l 1
 628 0 l 1
 532 396 l 1
 330 0 l 1
 296 0 l 1
 150 732 l 1
EndSplineSet
Substitution2: "'c2sc' Capitals to Small Capitals in Latin lookup 17 subtable" w.smcp
EndChar

StartChar: C
Encoding: 67 67 30
Width: 564
VWidth: 0
Flags: HW
HStem: -6 24<237.623 451.16> 716 24<329.627 554.046>
LayerCount: 2
Fore
SplineSet
117 376 m 0
 153 606 214 740 417 740 c 0
 469 740 561 729 629 716 c 1
 627 702 l 2
 626 702 507 716 415 716 c 0
 268 716 185 646 141 366 c 0
 105 138 154 18 306 18 c 0
 411 18 520 30 520 30 c 1
 518 16 l 1
 446 3 353 -6 301 -6 c 0
 116 -6 83 161 117 376 c 0
EndSplineSet
Substitution2: "'c2sc' Capitals to Small Capitals in Latin lookup 17 subtable" c.smcp
EndChar

StartChar: D
Encoding: 68 68 31
Width: 658
VWidth: 0
Flags: HW
HStem: 0 24<108 409.861> 708 24<216 514.404>
DStem2: 80 0 108 24 0.156517 0.987675<28.0867 720.56>
LayerCount: 2
Fore
SplineSet
108 24 m 1
 339 24 l 2
 521 24 601 216 626 364 c 0
 666 601 594 708 443 708 c 2
 216 708 l 1
 108 24 l 1
80 0 m 1
 196 732 l 1
 448 732 l 2
 674 732 677 504 649 355 c 0
 613 163 524 0 339 0 c 2
 80 0 l 1
EndSplineSet
Substitution2: "'c2sc' Capitals to Small Capitals in Latin lookup 17 subtable" d.smcp
EndChar

StartChar: O
Encoding: 79 79 32
Width: 684
VWidth: 0
Flags: HW
HStem: -4 24<221.32 441.727> 713 24<323.616 552.668>
LayerCount: 2
Fore
SplineSet
142 361 m 0
 95 63 153 20 332 20 c 0
 503 20 583 65 630 361 c 0
 681 685 602 713 442 713 c 0
 294 713 195 698 142 361 c 0
118 368 m 0
 172 711 275 737 447 737 c 0
 620 737 708 697 654 354 c 0
 603 31 506 -4 326 -4 c 0
 146 -4 65 35 118 368 c 0
EndSplineSet
Substitution2: "'c2sc' Capitals to Small Capitals in Latin lookup 17 subtable" o.smcp
EndChar

StartChar: S
Encoding: 83 83 33
Width: 565
VWidth: 0
Flags: HW
HStem: -8 24<103.41 406.217> 347 24<206.177 474.298> 714 24<274.763 534.667>
DStem2: 138 498 162 494 0.124692 0.992195<-71.919 126.881> 508 156 532 151 0.145494 0.989359<-66.0635 134.006>
LayerCount: 2
Fore
SplineSet
79 7 m 1
 81 22 l 1
 124 18 225 16 318 16 c 0
 408 16 490 39 508 156 c 2
 518 224 l 2
 531 309 500 347 400 347 c 2
 288 347 l 2
 133 347 126 420 138 498 c 2
 149 564 l 1
 172 709 258 738 370 738 c 0
 423 738 541 727 589 719 c 1
 587 706 l 1
 524 710 366 714 366 714 c 2
 261 718 192 681 173 560 c 1
 162 494 l 1
 146 390 198 371 290 371 c 2
 404 371 l 2
 537 371 555 301 542 219 c 2
 532 151 l 1
 510 9 411 -8 312 -8 c 0
 263 -8 124 -1 79 7 c 1
EndSplineSet
Substitution2: "'c2sc' Capitals to Small Capitals in Latin lookup 17 subtable" s.smcp
EndChar

StartChar: G
Encoding: 71 71 34
Width: 640
VWidth: 0
Flags: HW
HStem: 0 19<228.612 369.197> 364 25<374.973 583.312> 364 14<373 410.462> 716 24<324.497 544.654>
VStem: 537 14<0 44.2951>
DStem2: 538 69 551 0 0.156094 0.987742<-4.99725 298.564>
LayerCount: 2
Fore
SplineSet
125 377 m 0
 157 577 203 740 402 740 c 0
 454 740 579 726 647 713 c 1
 644 694 l 1
 638 694 492 716 398 716 c 0
 232 716 183 585 149 368 c 0
 110 120 134 19 293 19 c 0
 371 19 538 69 538 69 c 1
 584 364 l 1
 370 364 l 1
 373 378 l 1
 415 389 463 389 544 389 c 0
 565 389 588 388 612 386 c 1
 551 0 l 1
 537 0 l 1
 537 54 l 1
 504 38 379 -5 289 -5 c 0
 82 -7 92 170 125 377 c 0
EndSplineSet
Substitution2: "'c2sc' Capitals to Small Capitals in Latin lookup 17 subtable" g.smcp
EndChar

StartChar: Q
Encoding: 81 81 35
Width: 690
VWidth: 0
Flags: HW
HStem: -4 24<225.32 445.727> 713 24<327.616 556.668>
VStem: 319 14<-53.6891 -33>
LayerCount: 2
Fore
SplineSet
319 -33 m 1
 333 -33 l 1
 350 -115 436 -116 499 -96 c 1
 495 -120 l 1
 419 -147 324 -127 319 -33 c 1
146 361 m 0
 99 63 157 20 336 20 c 0
 507 20 587 65 634 361 c 0
 685 685 606 713 446 713 c 0
 298 713 199 698 146 361 c 0
122 368 m 0
 176 711 279 737 451 737 c 0
 624 737 712 697 658 354 c 0
 607 31 510 -4 330 -4 c 0
 150 -4 69 35 122 368 c 0
EndSplineSet
Substitution2: "'c2sc' Capitals to Small Capitals in Latin lookup 17 subtable" q.smcp
EndChar

StartChar: M
Encoding: 77 77 36
Width: 770
VWidth: 0
Flags: HW
HStem: 0 21G<71 101.402 384.04 424.244 707 732.874> 712 20G<262.617 305.039 715.796 764>
VStem: 707 25<0 153.344> 739 25<571.875 701>
DStem2: 71 0 96 0 0.259879 0.965641<6.49697 727.44> 302 732 284 696 0.146394 -0.989226<32.9771 698.927> 407 41 415 0 0.419551 0.907732<0 738.394>
LayerCount: 2
Fore
SplineSet
71 0 m 1
 268 732 l 1
 302 732 l 1
 407 41 l 1
 725 732 l 1
 764 732 l 1
 732 0 l 1
 707 0 l 1
 739 701 l 1
 415 0 l 1
 387 0 l 1
 284 696 l 1
 96 0 l 1
 71 0 l 1
EndSplineSet
AlternateSubs2: "'salt' Access All Alternates in Latin lookup 4-1" M.salt
Substitution2: "'c2sc' Capitals to Small Capitals in Latin lookup 17 subtable" m.smcp
EndChar

StartChar: I
Encoding: 73 73 37
Width: 192
VWidth: 0
Flags: HW
HStem: 0 21G<90 117.169> 712 20G<202.831 230>
VStem: 90 140
DStem2: 90 0 114 0 0.156517 0.987675<3.7564 741.134>
LayerCount: 2
Fore
SplineSet
90 0 m 1
 206 732 l 1
 230 732 l 1
 114 0 l 1
 90 0 l 1
EndSplineSet
Substitution2: "'c2sc' Capitals to Small Capitals in Latin lookup 17 subtable" i.smcp
EndChar

StartChar: J
Encoding: 74 74 38
Width: 319
VWidth: 0
Flags: HW
HStem: 21 14<44 47.262> 712 20G<357.825 385>
DStem2: 271 165 295 165 0.156768 0.987636<-79.8996 574.098>
LayerCount: 2
Fore
SplineSet
38 21 m 1
 44 35 l 1
 128 8 243 -4 271 165 c 1
 361 732 l 1
 385 732 l 1
 295 165 l 2
 288 118 270 51 220 18 c 0
 172 -14 85 -13 38 21 c 1
EndSplineSet
Substitution2: "'c2sc' Capitals to Small Capitals in Latin lookup 17 subtable" j.smcp
EndChar

StartChar: H
Encoding: 72 72 39
Width: 651
VWidth: 0
Flags: HW
HStem: 0 21G<85 112.158 549 576.169> 342 24<167 603> 712 20G<197.831 225 661.831 689>
DStem2: 85 0 109 0 0.156517 0.987675<3.7564 349.993 374.324 741.134> 549 0 573 0 0.156517 0.987675<3.7564 346.237 370.567 741.134>
LayerCount: 2
Fore
SplineSet
85 0 m 1
 201 732 l 1
 225 732 l 1
 167 366 l 1
 607 366 l 1
 665 732 l 1
 689 732 l 1
 573 0 l 1
 549 0 l 1
 603 342 l 1
 163 342 l 1
 109 0 l 1
 85 0 l 1
EndSplineSet
Substitution2: "'c2sc' Capitals to Small Capitals in Latin lookup 17 subtable" h.smcp
EndChar

StartChar: E
Encoding: 69 69 40
Width: 561
VWidth: 0
Flags: HW
HStem: -3 24<151.494 416.3> 7 14<300.7 503> 351 24<162 518> 708 24<261.001 527.2> 708 14<408.8 614>
DStem2: 98 128 122 123 0.156704 0.987646<-57.3934 229.647 253.978 545.249>
LayerCount: 2
Fore
SplineSet
98 128 m 2
 174 607 l 2
 190 705 256 734 320 732 c 2
 616 722 l 1
 614 708 l 1
 317 708 l 2
 255 708 210 677 198 602 c 2
 162 375 l 1
 520 370 l 1
 518 356 l 1
 158 351 l 1
 122 123 l 2
 107 31 163 21 218 21 c 2
 505 21 l 1
 503 7 l 1
 214 -3 l 2
 148 -5 80 15 98 128 c 2
EndSplineSet
Substitution2: "'c2sc' Capitals to Small Capitals in Latin lookup 17 subtable" e.smcp
EndChar

StartChar: L
Encoding: 76 76 41
Width: 547
VWidth: 0
Flags: HW
HStem: 0 24<153.437 491> 712 20G<191.832 219>
DStem2: 99 126 123 126 0.156465 0.987684<-52.5496 613.557>
LayerCount: 2
Fore
SplineSet
99 126 m 2
 195 732 l 1
 219 732 l 1
 123 126 l 2
 108 34 165 24 219 24 c 2
 495 24 l 1
 491 0 l 1
 220 0 l 2
 154 0 81 13 99 126 c 2
EndSplineSet
Substitution2: "'c2sc' Capitals to Small Capitals in Latin lookup 17 subtable" l.smcp
EndChar

StartChar: F
Encoding: 70 70 42
Width: 555
VWidth: 0
Flags: HW
HStem: 0 21G<80 107.191> 351 24<163 519> 708 24<258.04 528.2> 708 14<409.8 615>
DStem2: 80 0 104 0 0.155878 0.987776<3.74108 359.18 383.354 677.103>
LayerCount: 2
Fore
SplineSet
80 0 m 1
 174 598 l 2
 192 712 254 734 321 732 c 2
 617 722 l 1
 615 708 l 1
 316 708 l 2
 250 708 211 679 199 602 c 2
 163 375 l 1
 522 370 l 1
 519 356 l 1
 160 351 l 1
 104 0 l 1
 80 0 l 1
EndSplineSet
Substitution2: "'c2sc' Capitals to Small Capitals in Latin lookup 17 subtable" f.smcp
EndChar

StartChar: K
Encoding: 75 75 43
Width: 528
VWidth: 0
Flags: HW
HStem: 0 21G<80 108.155 487.803 526> 355 24<164 317> 712 20G<192.831 220 594.343 641>
DStem2: 80 0 105 0 0.156517 0.987675<3.91292 363.303 387.476 741.134> 317 379 339 368 0.638519 0.769606<5.58176 459.396> 339 368 317 355 0.453018 -0.891501<1.62311 400.102>
LayerCount: 2
Fore
SplineSet
80 0 m 1
 196 732 l 1
 220 732 l 1
 164 379 l 1
 317 379 l 1
 611 732 l 1
 641 732 l 1
 339 368 l 1
 526 0 l 1
 498 0 l 1
 317 355 l 1
 161 355 l 1
 105 0 l 1
 80 0 l 1
EndSplineSet
Substitution2: "'c2sc' Capitals to Small Capitals in Latin lookup 17 subtable" k.smcp
EndChar

StartChar: T
Encoding: 84 84 44
Width: 631
VWidth: 0
Flags: HW
HStem: 0 21G<281 308.164> 708 24<143 393 417 677>
DStem2: 281 0 305 0 0.156249 0.987718<3.74998 716.804>
LayerCount: 2
Fore
SplineSet
139 708 m 1
 143 732 l 1
 681 732 l 1
 677 708 l 1
 417 708 l 1
 305 0 l 1
 281 0 l 1
 393 708 l 1
 139 708 l 1
EndSplineSet
Substitution2: "'c2sc' Capitals to Small Capitals in Latin lookup 17 subtable" t.smcp
EndChar

StartChar: P
Encoding: 80 80 45
Width: 584
VWidth: 0
Flags: HW
HStem: 0 21G<75 102.183> 323 24<213.229 476.819> 333 14<154 285.319> 707 25<211 535.947>
DStem2: 75 0 99 0 0.156517 0.987675<3.7564 341.322 355.088 719.573>
LayerCount: 2
Fore
SplineSet
154 347 m 1
 406 347 l 2
 485 347 563 374 586 533 c 1
 610 687 539 707 463 707 c 2
 211 707 l 1
 154 347 l 1
75 0 m 1
 191 732 l 1
 467 732 l 2
 546 732 639 711 611 532 c 0
 579 328 476 323 402 323 c 0
 362 323 157 330 152 333 c 1
 99 0 l 1
 75 0 l 1
EndSplineSet
Substitution2: "'c2sc' Capitals to Small Capitals in Latin lookup 17 subtable" p.smcp
EndChar

StartChar: R
Encoding: 82 82 46
Width: 612
VWidth: 0
Flags: HW
HStem: 0 21G<75 102.183 496.251 529> 323 24<203.343 394 420 480.838> 333 14<154 285.037> 707 25<211 533.975>
DStem2: 75 0 99 0 0.156517 0.987675<3.7564 341.352 355.088 719.573> 420 323 394 323 0.319746 -0.947503<0 332.582>
LayerCount: 2
Fore
SplineSet
154 347 m 1
 406 347 l 2
 485 347 561 370 586 532 c 0
 610 686 539 707 463 707 c 2
 211 707 l 1
 154 347 l 1
75 0 m 1
 191 732 l 1
 467 732 l 2
 546 732 639 707 611 528 c 0
 581 340 495 325 420 323 c 1
 529 0 l 1
 503 0 l 1
 394 323 l 1
 341 324 156 330 152 333 c 1
 99 0 l 1
 75 0 l 1
EndSplineSet
Substitution2: "'c2sc' Capitals to Small Capitals in Latin lookup 17 subtable" r.smcp
EndChar

StartChar: U
Encoding: 85 85 47
Width: 681
VWidth: 0
Flags: HW
HStem: -5 24<221.746 443.368> 712 20G<192.845 220 675.845 703>
DStem2: 131 320 155 320 0.155839 0.987782<-141.96 417.096> 614 320 638 320 0.155839 0.987782<-136.867 417.096>
LayerCount: 2
Fore
SplineSet
131 320 m 2
 196 732 l 1
 220 732 l 1
 155 320 l 2
 108 21 203 19 339 19 c 0
 464 19 569 35 614 320 c 2
 679 732 l 1
 703 732 l 1
 638 320 l 2
 587 -3 463 -5 341 -5 c 0
 205 -5 79 -9 131 320 c 2
EndSplineSet
Substitution2: "'c2sc' Capitals to Small Capitals in Latin lookup 17 subtable" u.smcp
EndChar

StartChar: B
Encoding: 66 66 48
Width: 590
VWidth: 0
Flags: HW
HStem: 0 25<108 413.095> 371 24<167 451.695> 708 24<216 530.051>
DStem2: 80 0 108 25 0.156517 0.987675<29.0744 379.418 403.749 720.56>
LayerCount: 2
Fore
SplineSet
167 395 m 1
 396 395 l 2
 489 395 566 457 586 555 c 0
 610 675 555 708 445 708 c 2
 216 708 l 1
 167 395 l 1
108 25 m 1
 337 25 l 2
 416 25 511 54 535 204 c 0
 550 296 484 373 392 371 c 1
 163 371 l 1
 108 25 l 1
80 0 m 1
 196 732 l 1
 449 732 l 2
 597 732 628 665 611 558 c 0
 596 462 519 391 455 384 c 1
 497 374 576 311 558 197 c 0
 542 95 487 0 333 0 c 2
 80 0 l 1
EndSplineSet
Substitution2: "'c2sc' Capitals to Small Capitals in Latin lookup 17 subtable" b.smcp
EndChar

StartChar: N
Encoding: 78 78 49
Width: 642
VWidth: 0
Flags: HW
HStem: 0 21G<80 107.188 535.406 572.169> 712 20G<192.831 230.579 657.807 685>
DStem2: 80 0 104 0 0.156517 0.987675<3.7564 702.469> 221 732 214 690 0.432519 -0.901625<34.8406 763.951> 551 43 569 0 0.156517 0.987675<0 697.725>
LayerCount: 2
Fore
SplineSet
80 0 m 1
 196 732 l 1
 221 732 l 1
 551 43 l 1
 661 732 l 1
 685 732 l 1
 569 0 l 1
 545 0 l 1
 214 690 l 1
 104 0 l 1
 80 0 l 1
EndSplineSet
AlternateSubs2: "'salt' Access All Alternates in Latin lookup 4-1" N.salt
Substitution2: "'c2sc' Capitals to Small Capitals in Latin lookup 17 subtable" n.smcp
EndChar

StartChar: X
Encoding: 88 88 50
Width: 542
VWidth: 0
Flags: HW
HStem: 0 21G<38 84.1622 469.032 506> 712 20G<151 187.837 580.593 627>
DStem2: 38 0 69 0 0.60624 0.795282<18.7934 444.198 486.198 920.428> 179 732 151 732 0.407874 -0.913038<0 376.082 418.781 790.298>
LayerCount: 2
Fore
SplineSet
38 0 m 1
 313 365 l 1
 151 732 l 1
 179 732 l 1
 331 388 l 1
 596 732 l 1
 627 732 l 1
 343 363 l 1
 506 0 l 1
 478 0 l 1
 326 339 l 1
 69 0 l 1
 38 0 l 1
EndSplineSet
AlternateSubs2: "'salt' Access All Alternates in Latin lookup 4-1" X.salt
Substitution2: "'c2sc' Capitals to Small Capitals in Latin lookup 17 subtable" x.smcp
EndChar

StartChar: Z
Encoding: 90 90 51
Width: 507
VWidth: 0
Flags: HW
HStem: 0 24<71 498> 708 24<151 578>
DStem2: 39 24 71 24 0.618937 0.785441<19.806 870.848>
LayerCount: 2
Fore
SplineSet
35 0 m 1
 39 24 l 1
 578 708 l 1
 147 708 l 1
 151 732 l 1
 614 732 l 1
 610 708 l 1
 71 24 l 1
 502 24 l 1
 498 0 l 1
 35 0 l 1
EndSplineSet
Substitution2: "'c2sc' Capitals to Small Capitals in Latin lookup 17 subtable" z.smcp
EndChar

StartChar: Y
Encoding: 89 89 52
Width: 628
VWidth: 0
Flags: HW
HStem: 0 21G<277 304.154> 712 20G<150 184.091 636.545 680>
DStem2: 177 732 150 732 0.335325 -0.942103<0 466.836> 277 0 301 0 0.155767 0.987794<3.73842 263.213> 333 292 342 260 0.582215 0.813035<0 542.88>
LayerCount: 2
Fore
SplineSet
150 732 m 1
 177 732 l 1
 333 292 l 1
 651 732 l 1
 680 732 l 1
 342 260 l 1
 301 0 l 1
 277 0 l 1
 318 260 l 1
 150 732 l 1
EndSplineSet
Substitution2: "'c2sc' Capitals to Small Capitals in Latin lookup 17 subtable" y.smcp
EndChar

StartChar: Agrave
Encoding: 192 192 53
Width: 643
VWidth: 0
Flags: HW
HStem: 0 21<45 83.5929 586.968 615> 253 24<220 535> 712 20<424.344 472.989> 797 133
VStem: 343.459 126
DStem2: 45 0 73 0 0.470213 0.882553<13.166 299.46 326.754 815.696> 369.459 930 343.459 930 0.600961 -0.799278<0 157.987> 469 732 449 709 0.195601 -0.980684<18.6437 459.121 483.635 741.724>
LayerCount: 2
Fore
SplineSet
343.459 930 m 1
 369.459 930 l 1
 469.459 797 l 1
 455.459 797 l 1
 343.459 930 l 1
220 277 m 1
 535 277 l 1
 449 709 l 1
 220 277 l 1
45 0 m 1
 435 732 l 1
 469 732 l 1
 615 0 l 1
 591 0 l 1
 540 253 l 1
 207 253 l 1
 73 0 l 1
 45 0 l 1
EndSplineSet
Substitution2: "'c2sc' Capitals to Small Capitals in Latin lookup 17 subtable" agrave.smcp
EndChar

StartChar: Aacute
Encoding: 193 193 54
Width: 643
VWidth: 0
Flags: HW
HStem: 0 21<45 83.5929 586.968 615> 253 24<220 535> 712 20<424.344 472.989> 797 133
VStem: 455.459 168
DStem2: 45 0 73 0 0.470213 0.882553<13.166 299.46 326.754 815.696> 469 732 449 709 0.195601 -0.980684<18.6437 459.121 483.635 741.724> 455.459 797 469.459 797 0.756823 0.65362<10.5955 194.4>
LayerCount: 2
Fore
SplineSet
455.459 797 m 1
 597.459 930 l 1
 623.459 930 l 1
 469.459 797 l 1
 455.459 797 l 1
220 277 m 1
 535 277 l 1
 449 709 l 1
 220 277 l 1
45 0 m 1
 435 732 l 1
 469 732 l 1
 615 0 l 1
 591 0 l 1
 540 253 l 1
 207 253 l 1
 73 0 l 1
 45 0 l 1
EndSplineSet
Substitution2: "'c2sc' Capitals to Small Capitals in Latin lookup 17 subtable" aacute.smcp
EndChar

StartChar: Acircumflex
Encoding: 194 194 55
Width: 643
VWidth: 0
Flags: HW
HStem: 0 21<45 83.5929 586.968 615> 253 24<220 535> 712 20<424.344 472.989> 797 130
VStem: 326.459 272
DStem2: 45 0 73 0 0.470213 0.882553<13.166 299.46 326.754 815.696> 326.459 797 344.459 797 0.762062 0.647504<13.7171 197.155> 469 732 449 709 0.195601 -0.980684<18.6437 459.121 483.635 741.724> 500.459 927 487.459 912 0.601964 -0.798523<4.15232 152.567>
LayerCount: 2
Fore
SplineSet
326.459 797 m 1
 479.459 927 l 1
 500.459 927 l 1
 598.459 797 l 1
 581.459 797 l 1
 487.459 912 l 1
 344.459 797 l 1
 326.459 797 l 1
220 277 m 1
 535 277 l 1
 449 709 l 1
 220 277 l 1
45 0 m 1
 435 732 l 1
 469 732 l 1
 615 0 l 1
 591 0 l 1
 540 253 l 1
 207 253 l 1
 73 0 l 1
 45 0 l 1
EndSplineSet
Substitution2: "'c2sc' Capitals to Small Capitals in Latin lookup 17 subtable" acircumflex.smcp
EndChar

StartChar: Atilde
Encoding: 195 195 56
Width: 643
VWidth: 0
Flags: HW
HStem: 0 21<45 83.5929 586.968 615> 253 24<220 535> 712 20<424.344 472.989> 797 16<508.56 564.057> 870 16<377.247 432.119>
DStem2: 45 0 73 0 0.470213 0.882553<13.166 299.46 326.754 815.696> 469 732 449 709 0.195601 -0.980684<18.6437 459.121 483.635 741.724>
LayerCount: 2
Fore
SplineSet
298.328 828 m 1
 337.328 858 374.328 886 413.328 886 c 0
 452.328 886 497.328 813 529.328 813 c 0
 568.328 813 610.328 847 636.328 866 c 1
 641.328 859 l 1
 602.328 826 568.328 797 526.328 797 c 0
 484.328 797 444.328 870 411.328 870 c 0
 373.328 870 342.328 846 302.328 820 c 1
 298.328 828 l 1
220 277 m 1
 535 277 l 1
 449 709 l 1
 220 277 l 1
45 0 m 1
 435 732 l 1
 469 732 l 1
 615 0 l 1
 591 0 l 1
 540 253 l 1
 207 253 l 1
 73 0 l 1
 45 0 l 1
EndSplineSet
Substitution2: "'c2sc' Capitals to Small Capitals in Latin lookup 17 subtable" atilde.smcp
EndChar

StartChar: Adieresis
Encoding: 196 196 57
Width: 643
VWidth: 0
Flags: HW
HStem: 0 21<45 83.5929 586.968 615> 253 24<220 535> 712 20<424.344 472.989> 797 35<320.41 355.106 575.41 610.106>
VStem: 320.311 35<797.206 831.68> 575.311 35<797.206 831.68>
DStem2: 45 0 73 0 0.470213 0.882553<13.166 299.46 326.754 815.696> 469 732 449 709 0.195601 -0.980684<18.6437 459.121 483.635 741.724>
LayerCount: 2
Fore
SplineSet
575.311 815 m 0
 577.311 825 586.311 832 596.311 832 c 0
 606.311 832 612.311 825 610.311 815 c 0
 608.311 805 600.311 797 590.311 797 c 0
 580.311 797 573.311 805 575.311 815 c 0
320.311 815 m 0
 322.311 825 331.311 832 341.311 832 c 0
 351.311 832 357.311 825 355.311 815 c 0
 353.311 805 345.311 797 335.311 797 c 0
 325.311 797 318.311 805 320.311 815 c 0
220 277 m 1
 535 277 l 1
 449 709 l 1
 220 277 l 1
45 0 m 1
 435 732 l 1
 469 732 l 1
 615 0 l 1
 591 0 l 1
 540 253 l 1
 207 253 l 1
 73 0 l 1
 45 0 l 1
EndSplineSet
Substitution2: "'c2sc' Capitals to Small Capitals in Latin lookup 17 subtable" adieresis.smcp
EndChar

StartChar: Aring
Encoding: 197 197 58
Width: 643
VWidth: 0
Flags: HW
HStem: 0 21<45 83.5929 586.968 615> 253 24<220 535> 712 20<424.344 472.989> 730.167 15<423.895 491.597> 920.167 15<448.416 516.165>
VStem: 367.615 203
DStem2: 45 0 73 0 0.470213 0.882553<13.166 299.46 326.754 815.696> 469 732 449 709 0.195601 -0.980684<18.6437 459.121 483.635 741.724>
LayerCount: 2
Fore
SplineSet
382.615 832.167 m 0
 374.615 784.167 408.615 745.167 456.615 745.167 c 0
 504.615 745.167 548.615 784.167 556.615 832.167 c 0
 564.615 880.167 531.615 920.167 483.615 920.167 c 0
 435.615 920.167 390.615 880.167 382.615 832.167 c 0
367.615 832.167 m 0
 376.615 889.167 430.615 935.167 486.615 935.167 c 0
 542.615 935.167 579.615 889.167 570.615 832.167 c 0
 562.454 780.479 518.935 738.659 469.137 731.313 c 1
 615 0 l 1
 591 0 l 1
 540 253 l 1
 207 253 l 1
 73 0 l 1
 45 0 l 1
 434.954 731.914 l 1
 389.253 740.713 359.654 781.745 367.615 832.167 c 0
220 277 m 1
 535 277 l 1
 449 709 l 1
 220 277 l 1
EndSplineSet
Substitution2: "'c2sc' Capitals to Small Capitals in Latin lookup 17 subtable" aring.smcp
EndChar

StartChar: AE
Encoding: 198 198 59
Width: 896
VWidth: 0
Flags: HW
HStem: -3 24<551.944 797> 7 14<697 872> 252 24<279 518> 351 24<561 887> 708 24<639.384 905.5> 708 14<799.5 983>
DStem2: 30 0 60 0 0.622076 0.782957<18.6623 339.76 370.993 854.5> 497 121 521 123 0.156625 0.987658<-52.8901 132.672 157.003 236.715 260.889 542.698>
LayerCount: 2
Fore
SplineSet
279 276 m 1
 522 276 l 1
 582 657 l 1
 279 276 l 1
30 0 m 1
 499 590 l 2
 578 689 610 737 720 732 c 2
 985 722 l 1
 983 708 l 1
 716 708 l 2
 600 708 608 667 596 592 c 2
 561 375 l 1
 890 370 l 1
 887 356 l 1
 558 351 l 1
 521 123 l 2
 506 31 562 21 617 21 c 2
 874 21 l 1
 872 7 l 1
 622 -3 l 2
 557 -5 479 8 497 121 c 2
 518 252 l 1
 259 252 l 1
 60 0 l 1
 30 0 l 1
EndSplineSet
EndChar

StartChar: Ccedilla
Encoding: 199 199 60
Width: 564
VWidth: 0
Flags: HW
HStem: -172 7<195 228> -6 24<237.623 451.16> 716 24<329.627 554.046>
VStem: 330 17<-75.908 -36>
LayerCount: 2
Fore
SplineSet
194 -172 m 1
 195 -165 l 1
 228 -160 l 2
 283 -152 315 -144 330 -36 c 1
 347 -36 l 1
 331 -136 308 -172 225 -172 c 2
 194 -172 l 1
117 376 m 0
 153 606 214 740 417 740 c 0
 469 740 561 729 629 716 c 1
 627 702 l 2
 626 702 507 716 415 716 c 0
 268 716 185 646 141 366 c 0
 105 138 154 18 306 18 c 0
 411 18 520 30 520 30 c 1
 518 16 l 1
 446 3 353 -6 301 -6 c 0
 116 -6 83 161 117 376 c 0
EndSplineSet
Substitution2: "'c2sc' Capitals to Small Capitals in Latin lookup 17 subtable" ccedilla.smcp
EndChar

StartChar: Eth
Encoding: 208 208 61
Width: 686
VWidth: 0
Flags: HW
HStem: 0 24<107 408.861> 366 14<74 137 163 320> 708 24<215 513.438>
DStem2: 79 0 107 24 0.156517 0.987675<28.0867 370.567 388.464 720.56>
LayerCount: 2
Fore
SplineSet
107 24 m 1
 338 24 l 2
 520 24 600 216 625 364 c 0
 665 601 593 708 442 708 c 2
 215 708 l 1
 163 380 l 1
 322 380 l 1
 320 366 l 1
 161 366 l 1
 107 24 l 1
72 366 m 1
 74 380 l 1
 139 380 l 1
 195 732 l 1
 447 732 l 2
 673 732 677 504 649 355 c 0
 613 163 523 0 338 0 c 2
 79 0 l 1
 137 366 l 1
 72 366 l 1
EndSplineSet
Substitution2: "'c2sc' Capitals to Small Capitals in Latin lookup 17 subtable" eth.smcp
EndChar

StartChar: Egrave
Encoding: 200 200 62
Width: 561
VWidth: 0
Flags: HW
HStem: -3 24<151.494 416.3> 7 14<300.7 503> 351 24<162 518> 708 14<408.8 614> 708 24<261.001 527.2> 792 133
VStem: 310 126
DStem2: 98 128 122 123 0.156704 0.987646<-57.3934 229.647 253.978 545.249> 336 925 310 925 0.600961 -0.799278<0 157.987>
LayerCount: 2
Fore
SplineSet
310 925 m 1
 336 925 l 1
 436 792 l 1
 422 792 l 1
 310 925 l 1
98 128 m 2
 174 607 l 2
 190 705 256 734 320 732 c 2
 616 722 l 1
 614 708 l 1
 317 708 l 2
 255 708 210 677 198 602 c 2
 162 375 l 1
 520 370 l 1
 518 356 l 1
 158 351 l 1
 122 123 l 2
 107 31 163 21 218 21 c 2
 505 21 l 1
 503 7 l 1
 214 -3 l 2
 148 -5 80 15 98 128 c 2
EndSplineSet
Substitution2: "'c2sc' Capitals to Small Capitals in Latin lookup 17 subtable" egrave.smcp
EndChar

StartChar: Eacute
Encoding: 201 201 63
Width: 561
VWidth: 0
Flags: HW
HStem: -3 24<151.494 416.3 151.494 416.3> 7 14<300.7 503 300.7 503> 351 24<162 518 162 518> 708 14<408.8 614 408.8 614> 708 24<261.001 527.2 261.001 527.2> 792 133
VStem: 408 168
DStem2: 98 128 122 123 0.156704 0.987646<-57.3934 229.647 253.978 545.249> 408 792 422 792 0.756823 0.65362<10.5955 194.4>
LayerCount: 2
Fore
SplineSet
408 792 m 1
 550 925 l 1
 576 925 l 1
 422 792 l 1
 408 792 l 1
98 128 m 2
 174 607 l 2
 190 705 256 734 320 732 c 2
 616 722 l 1
 614 708 l 1
 317 708 l 2
 255 708 210 677 198 602 c 2
 162 375 l 1
 520 370 l 1
 518 356 l 1
 158 351 l 1
 122 123 l 2
 107 31 163 21 218 21 c 2
 505 21 l 1
 503 7 l 1
 214 -3 l 2
 148 -5 80 15 98 128 c 2
EndSplineSet
Substitution2: "'c2sc' Capitals to Small Capitals in Latin lookup 17 subtable" eacute.smcp
EndChar

StartChar: Ecircumflex
Encoding: 202 202 64
Width: 561
VWidth: 0
Flags: HW
HStem: -3 24<151.494 416.3> 7 14<300.7 503> 351 24<162 518> 708 14<408.8 614> 708 24<261.001 527.2> 792 130
VStem: 294 272
DStem2: 98 128 122 123 0.156704 0.987646<-57.3934 229.647 253.978 545.249> 294 792 312 792 0.762062 0.647504<13.7171 197.155> 468 922 455 907 0.601964 -0.798523<4.15232 152.567>
LayerCount: 2
Fore
SplineSet
294 792 m 1
 447 922 l 1
 468 922 l 1
 566 792 l 1
 549 792 l 1
 455 907 l 1
 312 792 l 1
 294 792 l 1
98 128 m 2
 174 607 l 2
 190 705 256 734 320 732 c 2
 616 722 l 1
 614 708 l 1
 317 708 l 2
 255 708 210 677 198 602 c 2
 162 375 l 1
 520 370 l 1
 518 356 l 1
 158 351 l 1
 122 123 l 2
 107 31 163 21 218 21 c 2
 505 21 l 1
 503 7 l 1
 214 -3 l 2
 148 -5 80 15 98 128 c 2
EndSplineSet
Substitution2: "'c2sc' Capitals to Small Capitals in Latin lookup 17 subtable" ecircumflex.smcp
EndChar

StartChar: Edieresis
Encoding: 203 203 65
Width: 561
VWidth: 0
Flags: HW
HStem: -3 24<151.494 416.3> 7 14<300.7 503> 351 24<162 518> 708 14<408.8 614> 708 24<261.001 527.2> 825 35<283.099 317.795 538.099 572.795>
VStem: 283 35<825.206 859.68> 538 35<825.206 859.68>
DStem2: 98 128 122 123 0.156704 0.987646<-57.3934 229.647 253.978 545.249>
LayerCount: 2
Fore
SplineSet
538 843 m 0
 540 853 549 860 559 860 c 0
 569 860 575 853 573 843 c 0
 571 833 563 825 553 825 c 0
 543 825 536 833 538 843 c 0
283 843 m 0
 285 853 294 860 304 860 c 0
 314 860 320 853 318 843 c 0
 316 833 308 825 298 825 c 0
 288 825 281 833 283 843 c 0
98 128 m 2
 174 607 l 2
 190 705 256 734 320 732 c 2
 616 722 l 1
 614 708 l 1
 317 708 l 2
 255 708 210 677 198 602 c 2
 162 375 l 1
 520 370 l 1
 518 356 l 1
 158 351 l 1
 122 123 l 2
 107 31 163 21 218 21 c 2
 505 21 l 1
 503 7 l 1
 214 -3 l 2
 148 -5 80 15 98 128 c 2
EndSplineSet
Substitution2: "'c2sc' Capitals to Small Capitals in Latin lookup 17 subtable" edieresis.smcp
EndChar

StartChar: Igrave
Encoding: 204 204 66
Width: 192
VWidth: 0
Flags: HW
HStem: 0 21<90 117.169> 712 20<202.831 230> 797 133
VStem: 90 140 109.459 126
DStem2: 90 0 114 0 0.156517 0.987675<3.7564 741.134> 135.459 930 109.459 930 0.600961 -0.799278<0 157.987>
LayerCount: 2
Fore
SplineSet
109.459 930 m 1
 135.459 930 l 1
 235.459 797 l 1
 221.459 797 l 1
 109.459 930 l 1
90 0 m 1
 206 732 l 1
 230 732 l 1
 114 0 l 1
 90 0 l 1
EndSplineSet
Substitution2: "'c2sc' Capitals to Small Capitals in Latin lookup 17 subtable" igrave.smcp
EndChar

StartChar: Iacute
Encoding: 205 205 67
Width: 192
VWidth: 0
Flags: HW
HStem: 0 21<90 117.169> 712 20<202.831 230> 797 133
VStem: 90 140 221.459 168
DStem2: 90 0 114 0 0.156517 0.987675<3.7564 741.134> 221.459 797 235.459 797 0.756823 0.65362<10.5955 194.4>
LayerCount: 2
Fore
SplineSet
221.459 797 m 1
 363.459 930 l 1
 389.459 930 l 1
 235.459 797 l 1
 221.459 797 l 1
90 0 m 1
 206 732 l 1
 230 732 l 1
 114 0 l 1
 90 0 l 1
EndSplineSet
Substitution2: "'c2sc' Capitals to Small Capitals in Latin lookup 17 subtable" iacute.smcp
EndChar

StartChar: Icircumflex
Encoding: 206 206 68
Width: 192
VWidth: 0
Flags: HW
HStem: 0 21<90 117.169> 712 20<202.831 230> 797 130
VStem: 90 140 92.459 272
DStem2: 90 0 114 0 0.156517 0.987675<3.7564 741.134> 92.459 797 110.459 797 0.762062 0.647504<13.7171 197.155> 266.459 927 253.459 912 0.601964 -0.798523<4.15232 152.567>
LayerCount: 2
Fore
SplineSet
92.459 797 m 1
 245.459 927 l 1
 266.459 927 l 1
 364.459 797 l 1
 347.459 797 l 1
 253.459 912 l 1
 110.459 797 l 1
 92.459 797 l 1
90 0 m 1
 206 732 l 1
 230 732 l 1
 114 0 l 1
 90 0 l 1
EndSplineSet
Substitution2: "'c2sc' Capitals to Small Capitals in Latin lookup 17 subtable" icircumflex.smcp
EndChar

StartChar: Idieresis
Encoding: 207 207 69
Width: 192
VWidth: 0
Flags: HW
HStem: 0 21<90 117.169> 712 20<202.831 230> 797 35<86.4103 121.107 341.41 376.107>
VStem: 86.3115 35<797.206 831.68> 90 140 341.311 35<797.206 831.68>
DStem2: 90 0 114 0 0.156517 0.987675<3.7564 741.134>
LayerCount: 2
Fore
SplineSet
341.312 815 m 0
 343.312 825 352.312 832 362.312 832 c 0
 372.312 832 378.312 825 376.312 815 c 0
 374.312 805 366.312 797 356.312 797 c 0
 346.312 797 339.312 805 341.312 815 c 0
86.3115 815 m 0
 88.3115 825 97.3115 832 107.312 832 c 0
 117.312 832 123.312 825 121.312 815 c 0
 119.312 805 111.312 797 101.312 797 c 0
 91.3115 797 84.3115 805 86.3115 815 c 0
90 0 m 1
 206 732 l 1
 230 732 l 1
 114 0 l 1
 90 0 l 1
EndSplineSet
Substitution2: "'c2sc' Capitals to Small Capitals in Latin lookup 17 subtable" idieresis.smcp
EndChar

StartChar: Ntilde
Encoding: 209 209 70
Width: 642
VWidth: 0
Flags: HW
HStem: 0 21<80 107.188 535.406 572.169> 712 20<192.831 230.579 657.807 685> 797 16<497.06 552.557> 870 16<365.747 420.619>
DStem2: 80 0 104 0 0.156517 0.987675<3.7564 702.469> 221 732 214 690 0.432519 -0.901625<34.8406 763.951> 551 43 569 0 0.156517 0.987675<0 697.725>
LayerCount: 2
Fore
SplineSet
286.828 828 m 1
 325.828 858 362.828 886 401.828 886 c 0
 440.828 886 485.828 813 517.828 813 c 0
 556.828 813 598.828 847 624.828 866 c 1
 629.828 859 l 1
 590.828 826 556.828 797 514.828 797 c 0
 472.828 797 432.828 870 399.828 870 c 0
 361.828 870 330.828 846 290.828 820 c 1
 286.828 828 l 1
80 0 m 1
 196 732 l 1
 221 732 l 1
 551 43 l 1
 661 732 l 1
 685 732 l 1
 569 0 l 1
 545 0 l 1
 214 690 l 1
 104 0 l 1
 80 0 l 1
EndSplineSet
AlternateSubs2: "'salt' Access All Alternates in Latin lookup 4-1" Ntilde.salt
Substitution2: "'c2sc' Capitals to Small Capitals in Latin lookup 17 subtable" ntilde.smcp
EndChar

StartChar: Ograve
Encoding: 210 210 71
Width: 684
VWidth: 0
Flags: HW
HStem: -4 24<221.32 441.727> 713 24<323.616 552.668> 797 133
VStem: 337.667 126
DStem2: 363.667 930 337.667 930 0.600961 -0.799278<0 157.987>
LayerCount: 2
Fore
SplineSet
337.667 930 m 1
 363.667 930 l 1
 463.667 797 l 1
 449.667 797 l 1
 337.667 930 l 1
142 361 m 0
 95 63 153 20 332 20 c 0
 503 20 583 65 630 361 c 0
 681 685 602 713 442 713 c 0
 294 713 195 698 142 361 c 0
118 368 m 0
 172 711 275 737 447 737 c 0
 620 737 708 697 654 354 c 0
 603 31 506 -4 326 -4 c 0
 146 -4 65 35 118 368 c 0
EndSplineSet
Substitution2: "'c2sc' Capitals to Small Capitals in Latin lookup 17 subtable" ograve.smcp
EndChar

StartChar: Oacute
Encoding: 211 211 72
Width: 684
VWidth: 0
Flags: HW
HStem: -4 24<221.32 441.727> 713 24<323.616 552.668> 797 133
VStem: 449.667 168
DStem2: 449.667 797 463.667 797 0.756823 0.65362<10.5955 194.4>
LayerCount: 2
Fore
SplineSet
449.667 797 m 1
 591.667 930 l 1
 617.667 930 l 1
 463.667 797 l 1
 449.667 797 l 1
142 361 m 0
 95 63 153 20 332 20 c 0
 503 20 583 65 630 361 c 0
 681 685 602 713 442 713 c 0
 294 713 195 698 142 361 c 0
118 368 m 0
 172 711 275 737 447 737 c 0
 620 737 708 697 654 354 c 0
 603 31 506 -4 326 -4 c 0
 146 -4 65 35 118 368 c 0
EndSplineSet
Substitution2: "'c2sc' Capitals to Small Capitals in Latin lookup 17 subtable" oacute.smcp
EndChar

StartChar: Ocircumflex
Encoding: 212 212 73
Width: 684
VWidth: 0
Flags: HW
HStem: -4 24<221.32 441.727> 713 24<323.616 552.668> 797 130
VStem: 320.667 272
DStem2: 320.667 797 338.667 797 0.762062 0.647504<13.7171 197.155> 494.667 927 481.667 912 0.601964 -0.798523<4.15232 152.567>
LayerCount: 2
Fore
SplineSet
320.667 797 m 1
 473.667 927 l 1
 494.667 927 l 1
 592.667 797 l 1
 575.667 797 l 1
 481.667 912 l 1
 338.667 797 l 1
 320.667 797 l 1
142 361 m 0
 95 63 153 20 332 20 c 0
 503 20 583 65 630 361 c 0
 681 685 602 713 442 713 c 0
 294 713 195 698 142 361 c 0
118 368 m 0
 172 711 275 737 447 737 c 0
 620 737 708 697 654 354 c 0
 603 31 506 -4 326 -4 c 0
 146 -4 65 35 118 368 c 0
EndSplineSet
Substitution2: "'c2sc' Capitals to Small Capitals in Latin lookup 17 subtable" ocircumflex.smcp
EndChar

StartChar: Otilde
Encoding: 213 213 74
Width: 684
VWidth: 0
Flags: HW
HStem: -4 24<221.32 441.727> 713 24<323.616 552.668> 797 16<502.768 558.265> 870 16<371.455 426.327>
LayerCount: 2
Fore
SplineSet
292.536 828 m 1
 331.536 858 368.536 886 407.536 886 c 0
 446.536 886 491.536 813 523.536 813 c 0
 562.536 813 604.536 847 630.536 866 c 1
 635.536 859 l 1
 596.536 826 562.536 797 520.536 797 c 0
 478.536 797 438.536 870 405.536 870 c 0
 367.536 870 336.536 846 296.536 820 c 1
 292.536 828 l 1
142 361 m 0
 95 63 153 20 332 20 c 0
 503 20 583 65 630 361 c 0
 681 685 602 713 442 713 c 0
 294 713 195 698 142 361 c 0
118 368 m 0
 172 711 275 737 447 737 c 0
 620 737 708 697 654 354 c 0
 603 31 506 -4 326 -4 c 0
 146 -4 65 35 118 368 c 0
EndSplineSet
Substitution2: "'c2sc' Capitals to Small Capitals in Latin lookup 17 subtable" otilde.smcp
EndChar

StartChar: Odieresis
Encoding: 214 214 75
Width: 684
VWidth: 0
Flags: HW
HStem: -4 24<221.32 441.727> 713 24<323.616 552.668> 797 35<314.618 349.314 569.618 604.314>
VStem: 314.519 35<797.206 831.68> 569.519 35<797.206 831.68>
LayerCount: 2
Fore
SplineSet
569.519 815 m 0
 571.519 825 580.519 832 590.519 832 c 0
 600.519 832 606.519 825 604.519 815 c 0
 602.519 805 594.519 797 584.519 797 c 0
 574.519 797 567.519 805 569.519 815 c 0
314.519 815 m 0
 316.519 825 325.519 832 335.519 832 c 0
 345.519 832 351.519 825 349.519 815 c 0
 347.519 805 339.519 797 329.519 797 c 0
 319.519 797 312.519 805 314.519 815 c 0
142 361 m 0
 95 63 153 20 332 20 c 0
 503 20 583 65 630 361 c 0
 681 685 602 713 442 713 c 0
 294 713 195 698 142 361 c 0
118 368 m 0
 172 711 275 737 447 737 c 0
 620 737 708 697 654 354 c 0
 603 31 506 -4 326 -4 c 0
 146 -4 65 35 118 368 c 0
EndSplineSet
Substitution2: "'c2sc' Capitals to Small Capitals in Latin lookup 17 subtable" odieresis.smcp
EndChar

StartChar: Oslash
Encoding: 216 216 76
Width: 684
VWidth: 0
Flags: HW
HStem: -4 24<217.094 446.32> 713 24<324.736 557.934>
DStem2: 85 0 103 0 0.625604 0.78014<11.2609 71.7005 103.076 842.886 874.261 938.293>
LayerCount: 2
Fore
SplineSet
158 68 m 1
 190 28 251 20 335 20 c 0
 506 20 583 65 630 361 c 0
 654 511 650 599 623 649 c 1
 158 68 l 1
142 361 m 0
 119 215 121 129 150 80 c 1
 615 662 l 1
 581 708 521 713 442 713 c 0
 294 713 195 698 142 361 c 0
85 0 m 1
 132 59 l 1
 99 110 93 203 118 364 c 0
 172 707 270 737 442 737 c 0
 526 737 594 729 632 682 c 1
 672 732 l 1
 690 732 l 1
 640 670 l 1
 673 617 680 517 654 354 c 0
 603 31 506 -4 326 -4 c 0
 240 -4 178 3 141 47 c 1
 103 0 l 1
 85 0 l 1
EndSplineSet
Substitution2: "'c2sc' Capitals to Small Capitals in Latin lookup 17 subtable" oslash.smcp
EndChar

StartChar: Ugrave
Encoding: 217 217 77
Width: 681
VWidth: 0
Flags: HW
HStem: -5 24<221.746 443.368> 712 20<192.845 220 675.845 703> 797 133
VStem: 340.959 126
DStem2: 131 320 155 320 0.155839 0.987782<-141.96 417.096> 366.959 930 340.959 930 0.600961 -0.799278<0 157.987> 614 320 638 320 0.155839 0.987782<-136.867 417.096>
LayerCount: 2
Fore
SplineSet
340.959 930 m 1
 366.959 930 l 1
 466.959 797 l 1
 452.959 797 l 1
 340.959 930 l 1
131 320 m 2
 196 732 l 1
 220 732 l 1
 155 320 l 2
 108 21 203 19 339 19 c 0
 464 19 569 35 614 320 c 2
 679 732 l 1
 703 732 l 1
 638 320 l 2
 587 -3 463 -5 341 -5 c 0
 205 -5 79 -9 131 320 c 2
EndSplineSet
Substitution2: "'c2sc' Capitals to Small Capitals in Latin lookup 17 subtable" ugrave.smcp
EndChar

StartChar: Uacute
Encoding: 218 218 78
Width: 681
VWidth: 0
Flags: HW
HStem: -5 24<221.746 443.368> 712 20<192.845 220 675.845 703> 797 133
VStem: 452.959 168
DStem2: 131 320 155 320 0.155839 0.987782<-141.96 417.096> 452.959 797 466.959 797 0.756823 0.65362<10.5955 194.4> 614 320 638 320 0.155839 0.987782<-136.867 417.096>
LayerCount: 2
Fore
SplineSet
452.959 797 m 1
 594.959 930 l 1
 620.959 930 l 1
 466.959 797 l 1
 452.959 797 l 1
131 320 m 2
 196 732 l 1
 220 732 l 1
 155 320 l 2
 108 21 203 19 339 19 c 0
 464 19 569 35 614 320 c 2
 679 732 l 1
 703 732 l 1
 638 320 l 2
 587 -3 463 -5 341 -5 c 0
 205 -5 79 -9 131 320 c 2
EndSplineSet
Substitution2: "'c2sc' Capitals to Small Capitals in Latin lookup 17 subtable" uacute.smcp
EndChar

StartChar: Ucircumflex
Encoding: 219 219 79
Width: 681
VWidth: 0
Flags: HW
HStem: -5 24<221.746 443.368> 712 20<192.845 220 675.845 703> 797 130
VStem: 323.959 272
DStem2: 131 320 155 320 0.155839 0.987782<-141.96 417.096> 323.959 797 341.959 797 0.762062 0.647504<13.7171 197.155> 497.959 927 484.959 912 0.601964 -0.798523<4.15232 152.567> 614 320 638 320 0.155839 0.987782<-136.867 417.096>
LayerCount: 2
Fore
SplineSet
323.959 797 m 1
 476.959 927 l 1
 497.959 927 l 1
 595.959 797 l 1
 578.959 797 l 1
 484.959 912 l 1
 341.959 797 l 1
 323.959 797 l 1
131 320 m 2
 196 732 l 1
 220 732 l 1
 155 320 l 2
 108 21 203 19 339 19 c 0
 464 19 569 35 614 320 c 2
 679 732 l 1
 703 732 l 1
 638 320 l 2
 587 -3 463 -5 341 -5 c 0
 205 -5 79 -9 131 320 c 2
EndSplineSet
Substitution2: "'c2sc' Capitals to Small Capitals in Latin lookup 17 subtable" ucircumflex.smcp
EndChar

StartChar: Udieresis
Encoding: 220 220 80
Width: 681
VWidth: 0
Flags: HW
HStem: -5 24<221.746 443.368> 712 20<192.845 220 675.845 703> 797 35<317.91 352.606 572.91 607.606>
VStem: 317.811 35<797.206 831.68> 572.811 35<797.206 831.68>
DStem2: 131 320 155 320 0.155839 0.987782<-141.96 417.096> 614 320 638 320 0.155839 0.987782<-136.867 417.096>
LayerCount: 2
Fore
SplineSet
572.811 815 m 0
 574.811 825 583.811 832 593.811 832 c 0
 603.811 832 609.811 825 607.811 815 c 0
 605.811 805 597.811 797 587.811 797 c 0
 577.811 797 570.811 805 572.811 815 c 0
317.811 815 m 0
 319.811 825 328.811 832 338.811 832 c 0
 348.811 832 354.811 825 352.811 815 c 0
 350.811 805 342.811 797 332.811 797 c 0
 322.811 797 315.811 805 317.811 815 c 0
131 320 m 2
 196 732 l 1
 220 732 l 1
 155 320 l 2
 108 21 203 19 339 19 c 0
 464 19 569 35 614 320 c 2
 679 732 l 1
 703 732 l 1
 638 320 l 2
 587 -3 463 -5 341 -5 c 0
 205 -5 79 -9 131 320 c 2
EndSplineSet
Substitution2: "'c2sc' Capitals to Small Capitals in Latin lookup 17 subtable" udieresis.smcp
EndChar

StartChar: Yacute
Encoding: 221 221 81
Width: 628
VWidth: 0
Flags: HW
HStem: 0 21<277 304.154> 712 20<150 184.091 636.545 680> 797 133
VStem: 418.459 168
DStem2: 177 732 150 732 0.335325 -0.942103<0 466.836> 277 0 301 0 0.155767 0.987794<3.73842 263.213> 333 292 342 260 0.582215 0.813035<0 542.88> 418.459 797 432.459 797 0.756823 0.65362<10.5955 194.4>
LayerCount: 2
Fore
SplineSet
418.459 797 m 1
 560.459 930 l 1
 586.459 930 l 1
 432.459 797 l 1
 418.459 797 l 1
150 732 m 1
 177 732 l 1
 333 292 l 1
 651 732 l 1
 680 732 l 1
 342 260 l 1
 301 0 l 1
 277 0 l 1
 318 260 l 1
 150 732 l 1
EndSplineSet
Substitution2: "'c2sc' Capitals to Small Capitals in Latin lookup 17 subtable" yacute.smcp
EndChar

StartChar: agrave
Encoding: 224 224 82
Width: 545
VWidth: 0
Flags: HW
HStem: -7 23<177.986 318.991> 0 21<452 468.923> 602.972 133
VStem: 233.416 126 453 13<0 47.9>
DStem2: 259.416 735.972 233.416 735.972 0.600961 -0.799278<0 157.987> 511 476 536 479 0.144602 0.98949<-412.388 4.78166>
LayerCount: 2
Fore
SplineSet
233.416 735.972 m 1
 259.416 735.972 l 1
 359.416 602.972 l 1
 345.416 602.972 l 1
 233.416 735.972 l 1
109 246 m 0
 86 98 128 16 238 16 c 0
 325 16 385 46 453 75 c 1
 511 476 l 1
 482 494 406 530 309 517 c 0
 192 501 139 438 109 246 c 0
90 279 m 0
 130 507 228 531 310 541 c 0
 380 550 485 528 536 479 c 1
 466 0 l 1
 452 0 l 1
 453 60 l 1
 424 41 323 -7 246 -7 c 0
 132 -7 49 45 90 279 c 0
EndSplineSet
AlternateSubs2: "'salt' Access All Alternates in Latin lookup 4-1" agrave.salt
Substitution2: "'smcp' Lowercase to Small Capitals lookup 16-1" agrave.smcp
EndChar

StartChar: aacute
Encoding: 225 225 83
Width: 545
VWidth: 0
Flags: HW
HStem: -7 23<177.986 318.991> 0 21<452 468.923> 602.972 133
VStem: 345.416 168 453 13<0 47.9>
DStem2: 345.416 602.972 359.416 602.972 0.756823 0.65362<10.5955 194.4> 511 476 536 479 0.144602 0.98949<-412.388 4.78166>
LayerCount: 2
Fore
SplineSet
345.416 602.972 m 1
 487.416 735.972 l 1
 513.416 735.972 l 1
 359.416 602.972 l 1
 345.416 602.972 l 1
109 246 m 0
 86 98 128 16 238 16 c 0
 325 16 385 46 453 75 c 1
 511 476 l 1
 482 494 406 530 309 517 c 0
 192 501 139 438 109 246 c 0
90 279 m 0
 130 507 228 531 310 541 c 0
 380 550 485 528 536 479 c 1
 466 0 l 1
 452 0 l 1
 453 60 l 1
 424 41 323 -7 246 -7 c 0
 132 -7 49 45 90 279 c 0
EndSplineSet
AlternateSubs2: "'salt' Access All Alternates in Latin lookup 4-1" aacute.salt
Substitution2: "'smcp' Lowercase to Small Capitals lookup 16-1" aacute.smcp
EndChar

StartChar: acircumflex
Encoding: 226 226 84
Width: 545
VWidth: 0
Flags: HW
HStem: -7 23<177.986 318.991> 0 21<452 468.923> 602.972 130
VStem: 216.416 272 453 13<0 47.9>
DStem2: 216.416 602.972 234.416 602.972 0.762062 0.647504<13.7171 197.155> 390.416 732.972 377.416 717.972 0.601964 -0.798523<4.15232 152.567> 511 476 536 479 0.144602 0.98949<-412.388 4.78166>
LayerCount: 2
Fore
SplineSet
216.416 602.972 m 1
 369.416 732.972 l 1
 390.416 732.972 l 1
 488.416 602.972 l 1
 471.416 602.972 l 1
 377.416 717.972 l 1
 234.416 602.972 l 1
 216.416 602.972 l 1
109 246 m 0
 86 98 128 16 238 16 c 0
 325 16 385 46 453 75 c 1
 511 476 l 1
 482 494 406 530 309 517 c 0
 192 501 139 438 109 246 c 0
90 279 m 0
 130 507 228 531 310 541 c 0
 380 550 485 528 536 479 c 1
 466 0 l 1
 452 0 l 1
 453 60 l 1
 424 41 323 -7 246 -7 c 0
 132 -7 49 45 90 279 c 0
EndSplineSet
AlternateSubs2: "'salt' Access All Alternates in Latin lookup 4-1" acircumflex.salt
Substitution2: "'smcp' Lowercase to Small Capitals lookup 16-1" acircumflex.smcp
EndChar

StartChar: atilde
Encoding: 227 227 85
Width: 545
VWidth: 0
Flags: HW
HStem: -7 23<177.986 318.991> 0 21<452 468.923> 602.972 16<398.517 454.014> 675.972 16<267.204 322.076>
VStem: 453 13<0 47.9>
DStem2: 511 476 536 479 0.144602 0.98949<-412.388 4.78166>
LayerCount: 2
Fore
SplineSet
188.285 633.972 m 1
 227.285 663.972 264.285 691.972 303.285 691.972 c 0
 342.285 691.972 387.285 618.972 419.285 618.972 c 0
 458.285 618.972 500.285 652.972 526.285 671.972 c 1
 531.285 664.972 l 1
 492.285 631.972 458.285 602.972 416.285 602.972 c 0
 374.285 602.972 334.285 675.972 301.285 675.972 c 0
 263.285 675.972 232.285 651.972 192.285 625.972 c 1
 188.285 633.972 l 1
109 246 m 0
 86 98 128 16 238 16 c 0
 325 16 385 46 453 75 c 1
 511 476 l 1
 482 494 406 530 309 517 c 0
 192 501 139 438 109 246 c 0
90 279 m 0
 130 507 228 531 310 541 c 0
 380 550 485 528 536 479 c 1
 466 0 l 1
 452 0 l 1
 453 60 l 1
 424 41 323 -7 246 -7 c 0
 132 -7 49 45 90 279 c 0
EndSplineSet
AlternateSubs2: "'salt' Access All Alternates in Latin lookup 4-1" atilde.salt
Substitution2: "'smcp' Lowercase to Small Capitals lookup 16-1" atilde.smcp
EndChar

StartChar: adieresis
Encoding: 228 228 86
Width: 545
VWidth: 0
Flags: HW
HStem: -7 23<177.986 318.991> 0 21<452 468.923> 602.972 35<210.368 245.064 465.368 500.064>
VStem: 210.269 35<603.178 637.652> 453 13<0 47.9> 465.269 35<603.178 637.652>
DStem2: 511 476 536 479 0.144602 0.98949<-412.388 4.78166>
LayerCount: 2
Fore
SplineSet
465.269 620.972 m 0
 467.269 630.972 476.269 637.972 486.269 637.972 c 0
 496.269 637.972 502.269 630.972 500.269 620.972 c 0
 498.269 610.972 490.269 602.972 480.269 602.972 c 0
 470.269 602.972 463.269 610.972 465.269 620.972 c 0
210.269 620.972 m 0
 212.269 630.972 221.269 637.972 231.269 637.972 c 0
 241.269 637.972 247.269 630.972 245.269 620.972 c 0
 243.269 610.972 235.269 602.972 225.269 602.972 c 0
 215.269 602.972 208.269 610.972 210.269 620.972 c 0
109 246 m 0
 86 98 128 16 238 16 c 0
 325 16 385 46 453 75 c 1
 511 476 l 1
 482 494 406 530 309 517 c 0
 192 501 139 438 109 246 c 0
90 279 m 0
 130 507 228 531 310 541 c 0
 380 550 485 528 536 479 c 1
 466 0 l 1
 452 0 l 1
 453 60 l 1
 424 41 323 -7 246 -7 c 0
 132 -7 49 45 90 279 c 0
EndSplineSet
AlternateSubs2: "'salt' Access All Alternates in Latin lookup 4-1" adieresis.salt
Substitution2: "'smcp' Lowercase to Small Capitals lookup 16-1" adieresis.smcp
EndChar

StartChar: aring
Encoding: 229 229 87
Width: 545
VWidth: 0
Flags: HW
HStem: -7 23<177.986 318.991> 0 21<452 468.923> 602.972 15<323.36 391.062> 792.972 15<347.881 415.63>
VStem: 267.08 203 453 13<0 47.9>
DStem2: 511 476 536 479 0.144602 0.98949<-412.388 4.78166>
LayerCount: 2
Fore
SplineSet
282.08 704.972 m 0
 274.08 656.972 308.08 617.972 356.08 617.972 c 0
 404.08 617.972 448.08 656.972 456.08 704.972 c 0
 464.08 752.972 431.08 792.972 383.08 792.972 c 0
 335.08 792.972 290.08 752.972 282.08 704.972 c 0
267.08 704.972 m 0
 276.08 761.972 330.08 807.972 386.08 807.972 c 0
 442.08 807.972 479.08 761.972 470.08 704.972 c 0
 461.08 647.972 409.08 602.972 353.08 602.972 c 0
 297.08 602.972 258.08 647.972 267.08 704.972 c 0
109 246 m 0
 86 98 128 16 238 16 c 0
 325 16 385 46 453 75 c 1
 511 476 l 1
 482 494 406 530 309 517 c 0
 192 501 139 438 109 246 c 0
90 279 m 0
 130 507 228 531 310 541 c 0
 380 550 485 528 536 479 c 1
 466 0 l 1
 452 0 l 1
 453 60 l 1
 424 41 323 -7 246 -7 c 0
 132 -7 49 45 90 279 c 0
EndSplineSet
AlternateSubs2: "'salt' Access All Alternates in Latin lookup 4-1" aring.salt
Substitution2: "'smcp' Lowercase to Small Capitals lookup 16-1" aring.smcp
EndChar

StartChar: ae
Encoding: 230 230 88
Width: 963
VWidth: 0
Flags: HW
HStem: -7 23<137.986 272.849 513.819 722.783> 517 24<608.083 787.564>
LayerCount: 2
Fore
SplineSet
462 261 m 1
 462 261 831 192 856 388 c 0
 869 486 804 517 700 517 c 0
 507 517 491 412 462 261 c 1
69 246 m 0
 46 98 88 16 198 16 c 0
 282 16 368 63 435 92 c 1
 425 138 428 200 441 278 c 0
 454 353 470 413 498 461 c 1
 456 484 366 530 269 517 c 0
 152 501 99 438 69 246 c 0
50 279 m 0
 90 507 190 531 272 541 c 0
 338 549 453 519 510 475 c 1
 546 517 601 541 693 541 c 0
 819 541 896 504 881 388 c 0
 853 169 497 232 460 247 c 1
 440 94 461 19 568 17 c 0
 645 16 726 27 804 38 c 1
 801 22 l 1
 717 -1 651 -7 568 -7 c 0
 499 -7 458 19 440 74 c 1
 389 47 305 -7 206 -7 c 0
 92 -7 9 45 50 279 c 0
EndSplineSet
Substitution2: "'smcp' Lowercase to Small Capitals lookup 16-1" ae.smcp
EndChar

StartChar: ccedilla
Encoding: 231 231 89
Width: 494
VWidth: 0
Flags: HW
HStem: -171 7<115 149> -5 24<163.554 361.96> 512 24<234.625 429.827>
VStem: 251 17<-74.908 -35>
LayerCount: 2
Fore
SplineSet
114 -171 m 1
 115 -164 l 1
 149 -159 l 2
 204 -151 236 -143 251 -35 c 1
 268 -35 l 1
 252 -135 228 -171 145 -171 c 2
 114 -171 l 1
92 273 m 0
 129 505 208 536 310 536 c 0
 362 536 444 524 504 510 c 1
 501 496 l 1
 501 496 395 512 306 512 c 0
 215 512 149 478 115 262 c 0
 82 56 142 19 228 19 c 0
 320 19 436 40 436 40 c 1
 434 24 l 1
 349 1 307 -4 224 -5 c 1
 125 -5 55 40 92 273 c 0
EndSplineSet
Substitution2: "'smcp' Lowercase to Small Capitals lookup 16-1" ccedilla.smcp
EndChar

StartChar: egrave
Encoding: 232 232 90
Width: 537
VWidth: 0
Flags: HW
HStem: -7 24<156.35 368.237> 517 24<253.042 436.143> 601 133
VStem: 229.667 126
DStem2: 255.667 734 229.667 734 0.600961 -0.799278<0 157.987>
LayerCount: 2
Fore
SplineSet
229.667 734 m 1
 255.667 734 l 1
 355.667 601 l 1
 341.667 601 l 1
 229.667 734 l 1
108 261 m 1
 108 261 477 192 502 388 c 0
 515 486 451 517 347 517 c 0
 149 517 137 406 108 261 c 1
87 278 m 0
 113 430 144 541 339 541 c 0
 465 541 542 504 527 388 c 0
 499 169 143 232 106 247 c 1
 86 94 105 19 212 17 c 0
 289 16 372 27 450 38 c 1
 447 22 l 1
 363 -1 297 -7 214 -7 c 0
 86 -7 54 84 87 278 c 0
EndSplineSet
Substitution2: "'smcp' Lowercase to Small Capitals lookup 16-1" egrave.smcp
EndChar

StartChar: eacute
Encoding: 233 233 91
Width: 537
VWidth: 0
Flags: HW
HStem: -7 24<156.35 368.237> 517 24<253.042 436.143> 601 133
VStem: 341.667 168
DStem2: 341.667 601 355.667 601 0.756823 0.65362<10.5955 194.4>
LayerCount: 2
Fore
SplineSet
341.667 601 m 1
 483.667 734 l 1
 509.667 734 l 1
 355.667 601 l 1
 341.667 601 l 1
108 261 m 1
 108 261 477 192 502 388 c 0
 515 486 451 517 347 517 c 0
 149 517 137 406 108 261 c 1
87 278 m 0
 113 430 144 541 339 541 c 0
 465 541 542 504 527 388 c 0
 499 169 143 232 106 247 c 1
 86 94 105 19 212 17 c 0
 289 16 372 27 450 38 c 1
 447 22 l 1
 363 -1 297 -7 214 -7 c 0
 86 -7 54 84 87 278 c 0
EndSplineSet
Substitution2: "'smcp' Lowercase to Small Capitals lookup 16-1" eacute.smcp
EndChar

StartChar: ecircumflex
Encoding: 234 234 92
Width: 537
VWidth: 0
Flags: HW
HStem: -7 24<156.35 368.237> 517 24<253.042 436.143> 601 130
VStem: 212.667 272
DStem2: 212.667 601 230.667 601 0.762062 0.647504<13.7171 197.155> 386.667 731 373.667 716 0.601964 -0.798523<4.15232 152.567>
LayerCount: 2
Fore
SplineSet
212.667 601 m 1
 365.667 731 l 1
 386.667 731 l 1
 484.667 601 l 1
 467.667 601 l 1
 373.667 716 l 1
 230.667 601 l 1
 212.667 601 l 1
108 261 m 1
 108 261 477 192 502 388 c 0
 515 486 451 517 347 517 c 0
 149 517 137 406 108 261 c 1
87 278 m 0
 113 430 144 541 339 541 c 0
 465 541 542 504 527 388 c 0
 499 169 143 232 106 247 c 1
 86 94 105 19 212 17 c 0
 289 16 372 27 450 38 c 1
 447 22 l 1
 363 -1 297 -7 214 -7 c 0
 86 -7 54 84 87 278 c 0
EndSplineSet
Substitution2: "'smcp' Lowercase to Small Capitals lookup 16-1" ecircumflex.smcp
EndChar

StartChar: edieresis
Encoding: 235 235 93
Width: 537
VWidth: 0
Flags: HW
HStem: -7 24<156.35 368.237> 517 24<253.042 436.143> 601 35<206.618 241.314 461.618 496.314>
VStem: 206.519 35<601.206 635.68> 461.519 35<601.206 635.68>
LayerCount: 2
Fore
SplineSet
461.52 619 m 0
 463.52 629 472.52 636 482.52 636 c 0
 492.52 636 498.52 629 496.52 619 c 0
 494.52 609 486.52 601 476.52 601 c 0
 466.52 601 459.52 609 461.52 619 c 0
206.52 619 m 0
 208.52 629 217.52 636 227.52 636 c 0
 237.52 636 243.52 629 241.52 619 c 0
 239.52 609 231.52 601 221.52 601 c 0
 211.52 601 204.52 609 206.52 619 c 0
108 261 m 1
 108 261 477 192 502 388 c 0
 515 486 451 517 347 517 c 0
 149 517 137 406 108 261 c 1
87 278 m 0
 113 430 144 541 339 541 c 0
 465 541 542 504 527 388 c 0
 499 169 143 232 106 247 c 1
 86 94 105 19 212 17 c 0
 289 16 372 27 450 38 c 1
 447 22 l 1
 363 -1 297 -7 214 -7 c 0
 86 -7 54 84 87 278 c 0
EndSplineSet
Substitution2: "'smcp' Lowercase to Small Capitals lookup 16-1" edieresis.smcp
EndChar

StartChar: igrave
Encoding: 236 236 94
Width: 165
VWidth: 0
Flags: HW
HStem: 0 21<60 87.1638> 511 20<140.836 168> 596 133
VStem: 5.459 126 60 108
DStem2: 31.459 729 5.459 729 0.600961 -0.799278<0 157.987> 60 0 84 0 0.156249 0.987718<3.74998 537.603>
LayerCount: 2
Fore
SplineSet
5.45898 729 m 1
 31.459 729 l 1
 131.459 596 l 1
 117.459 596 l 1
 5.45898 729 l 1
60 0 m 1
 144 531 l 1
 168 531 l 1
 84 0 l 1
 60 0 l 1
EndSplineSet
Substitution2: "'smcp' Lowercase to Small Capitals lookup 16-1" igrave.smcp
EndChar

StartChar: iacute
Encoding: 237 237 95
Width: 165
VWidth: 0
Flags: HW
HStem: 0 21<60 87.1638> 511 20<140.836 168> 596 133
VStem: 60 108 117.459 168
DStem2: 60 0 84 0 0.156249 0.987718<3.74998 537.603> 117.459 596 131.459 596 0.756823 0.65362<10.5955 194.4>
LayerCount: 2
Fore
SplineSet
117.459 596 m 1
 259.459 729 l 1
 285.459 729 l 1
 131.459 596 l 1
 117.459 596 l 1
60 0 m 1
 144 531 l 1
 168 531 l 1
 84 0 l 1
 60 0 l 1
EndSplineSet
Substitution2: "'smcp' Lowercase to Small Capitals lookup 16-1" iacute.smcp
EndChar

StartChar: icircumflex
Encoding: 238 238 96
Width: 165
VWidth: 0
Flags: HW
HStem: 0 21<60 87.1638> 511 20<140.836 168> 596 130
VStem: -11.541 272 60 108
DStem2: -11.541 596 6.459 596 0.762062 0.647504<13.7171 197.155> 60 0 84 0 0.156249 0.987718<3.74998 537.603> 162.459 726 149.459 711 0.601964 -0.798523<4.15232 152.567>
LayerCount: 2
Fore
SplineSet
-11.541 596 m 1
 141.459 726 l 1
 162.459 726 l 1
 260.459 596 l 1
 243.459 596 l 1
 149.459 711 l 1
 6.45898 596 l 1
 -11.541 596 l 1
60 0 m 1
 144 531 l 1
 168 531 l 1
 84 0 l 1
 60 0 l 1
EndSplineSet
Substitution2: "'smcp' Lowercase to Small Capitals lookup 16-1" icircumflex.smcp
EndChar

StartChar: idieresis
Encoding: 239 239 97
Width: 165
VWidth: 0
Flags: HW
HStem: 0 21<60 87.1638> 511 20<140.836 168> 596 35<-17.5901 17.106 237.41 272.106>
VStem: -17.689 35<596.206 630.68> 60 108 237.311 35<596.206 630.68>
DStem2: 60 0 84 0 0.156249 0.987718<3.74998 537.603>
LayerCount: 2
Fore
SplineSet
237.311 614 m 0
 239.311 624 248.311 631 258.311 631 c 0
 268.311 631 274.311 624 272.311 614 c 0
 270.311 604 262.311 596 252.311 596 c 0
 242.311 596 235.311 604 237.311 614 c 0
-17.6895 614 m 0
 -15.6895 624 -6.68945 631 3.31055 631 c 0
 13.3105 631 19.3105 624 17.3105 614 c 0
 15.3105 604 7.31055 596 -2.68945 596 c 0
 -12.6895 596 -19.6895 604 -17.6895 614 c 0
60 0 m 1
 144 531 l 1
 168 531 l 1
 84 0 l 1
 60 0 l 1
EndSplineSet
Substitution2: "'smcp' Lowercase to Small Capitals lookup 16-1" idieresis.smcp
EndChar

StartChar: eth
Encoding: 240 240 98
Width: 547
VWidth: 0
Flags: HW
HStem: 0 26<150.177 356.932> 507 24<231.88 427.995> 762 21<246 320.802>
DStem2: 259 634 261 620 0.937853 0.347034<0 174.039 206.17 345.686>
LayerCount: 2
Fore
SplineSet
104 264 m 0
 72 63 123 26 220 26 c 2
 290 26 l 2
 416 26 463 133 484 264 c 0
 501 374 510 507 367 507 c 2
 297 507 l 2
 208 507 136 466 104 264 c 0
80 270 m 0
 107 440 165 531 300 531 c 2
 370 531 l 2
 457 531 494 484 500 465 c 1
 498 523 489 617 433 684 c 1
 261 620 l 1
 259 634 l 1
 422 695 l 1
 382 734 329 761 243 762 c 1
 246 783 l 1
 340 782 403 751 447 704 c 1
 584 755 l 1
 588 741 l 1
 457 693 l 1
 537 590 532 409 508 258 c 0
 476 59 393 0 286 0 c 2
 216 0 l 2
 79 0 52 91 80 270 c 0
EndSplineSet
Substitution2: "'smcp' Lowercase to Small Capitals lookup 16-1" eth.smcp
EndChar

StartChar: ograve
Encoding: 242 242 99
Width: 560
VWidth: 0
Flags: HW
HStem: -5 24<177.716 365.943> 512 24<252.013 437.291> 596 133
VStem: 244.667 126
DStem2: 270.667 729 244.667 729 0.600961 -0.799278<0 157.987>
LayerCount: 2
Fore
SplineSet
244.667 729 m 1
 270.667 729 l 1
 370.667 596 l 1
 356.667 596 l 1
 244.667 729 l 1
115 258 m 0
 82 47 146 19 273 19 c 0
 401 19 473 56 505 258 c 0
 539 475 470 512 349 512 c 0
 229 512 152 490 115 258 c 0
91 265 m 0
 125 482 195 536 354 536 c 0
 527 536 559 438 529 251 c 0
 498 57 436 -5 268 -5 c 0
 92 -5 61 75 91 265 c 0
EndSplineSet
Substitution2: "'smcp' Lowercase to Small Capitals lookup 16-1" ograve.smcp
EndChar

StartChar: oacute
Encoding: 243 243 100
Width: 560
VWidth: 0
Flags: HW
HStem: -5 24<177.716 365.943> 512 24<252.013 437.291> 596 133
VStem: 356.667 168
DStem2: 356.667 596 370.667 596 0.756823 0.65362<10.5955 194.4>
LayerCount: 2
Fore
SplineSet
356.667 596 m 1
 498.667 729 l 1
 524.667 729 l 1
 370.667 596 l 1
 356.667 596 l 1
115 258 m 0
 82 47 146 19 273 19 c 0
 401 19 473 56 505 258 c 0
 539 475 470 512 349 512 c 0
 229 512 152 490 115 258 c 0
91 265 m 0
 125 482 195 536 354 536 c 0
 527 536 559 438 529 251 c 0
 498 57 436 -5 268 -5 c 0
 92 -5 61 75 91 265 c 0
EndSplineSet
Substitution2: "'smcp' Lowercase to Small Capitals lookup 16-1" oacute.smcp
EndChar

StartChar: ocircumflex
Encoding: 244 244 101
Width: 560
VWidth: 0
Flags: HW
HStem: -5 24<177.716 365.943> 512 24<252.013 437.291> 596 130
VStem: 227.667 272
DStem2: 227.667 596 245.667 596 0.762062 0.647504<13.7171 197.155> 401.667 726 388.667 711 0.601964 -0.798523<4.15232 152.567>
LayerCount: 2
Fore
SplineSet
227.667 596 m 1
 380.667 726 l 1
 401.667 726 l 1
 499.667 596 l 1
 482.667 596 l 1
 388.667 711 l 1
 245.667 596 l 1
 227.667 596 l 1
115 258 m 0
 82 47 146 19 273 19 c 0
 401 19 473 56 505 258 c 0
 539 475 470 512 349 512 c 0
 229 512 152 490 115 258 c 0
91 265 m 0
 125 482 195 536 354 536 c 0
 527 536 559 438 529 251 c 0
 498 57 436 -5 268 -5 c 0
 92 -5 61 75 91 265 c 0
EndSplineSet
Substitution2: "'smcp' Lowercase to Small Capitals lookup 16-1" ocircumflex.smcp
EndChar

StartChar: otilde
Encoding: 245 245 102
Width: 560
VWidth: 0
Flags: HW
HStem: -5 24<177.716 365.943> 512 24<252.013 437.291> 596 16<409.767 465.264> 669 16<278.454 333.326>
LayerCount: 2
Fore
SplineSet
199.535 627 m 1
 238.535 657 275.535 685 314.535 685 c 0
 353.535 685 398.535 612 430.535 612 c 0
 469.535 612 511.535 646 537.535 665 c 1
 542.535 658 l 1
 503.535 625 469.535 596 427.535 596 c 0
 385.535 596 345.535 669 312.535 669 c 0
 274.535 669 243.535 645 203.535 619 c 1
 199.535 627 l 1
115 258 m 0
 82 47 146 19 273 19 c 0
 401 19 473 56 505 258 c 0
 539 475 470 512 349 512 c 0
 229 512 152 490 115 258 c 0
91 265 m 0
 125 482 195 536 354 536 c 0
 527 536 559 438 529 251 c 0
 498 57 436 -5 268 -5 c 0
 92 -5 61 75 91 265 c 0
EndSplineSet
Substitution2: "'smcp' Lowercase to Small Capitals lookup 16-1" otilde.smcp
EndChar

StartChar: odieresis
Encoding: 246 246 103
Width: 560
VWidth: 0
Flags: HW
HStem: -5 24<177.716 365.943> 512 24<252.013 437.291> 596 35<221.618 256.314 476.618 511.314>
VStem: 221.519 35<596.206 630.68> 476.519 35<596.206 630.68>
LayerCount: 2
Fore
SplineSet
476.52 614 m 0
 478.52 624 487.52 631 497.52 631 c 0
 507.52 631 513.52 624 511.52 614 c 0
 509.52 604 501.52 596 491.52 596 c 0
 481.52 596 474.52 604 476.52 614 c 0
221.52 614 m 0
 223.52 624 232.52 631 242.52 631 c 0
 252.52 631 258.52 624 256.52 614 c 0
 254.52 604 246.52 596 236.52 596 c 0
 226.52 596 219.52 604 221.52 614 c 0
115 258 m 0
 82 47 146 19 273 19 c 0
 401 19 473 56 505 258 c 0
 539 475 470 512 349 512 c 0
 229 512 152 490 115 258 c 0
91 265 m 0
 125 482 195 536 354 536 c 0
 527 536 559 438 529 251 c 0
 498 57 436 -5 268 -5 c 0
 92 -5 61 75 91 265 c 0
EndSplineSet
Substitution2: "'smcp' Lowercase to Small Capitals lookup 16-1" odieresis.smcp
EndChar

StartChar: ntilde
Encoding: 241 241 104
Width: 540
VWidth: 0
Flags: HW
HStem: 0 21<60 87.1648 440 467.189> 511 20<140.836 158> 516 24<299.446 439.43> 600 16<403.451 458.948> 673 16<272.138 327.01>
VStem: 144 14<486.75 531>
DStem2: 440 0 464 0 0.15747 0.987524<3.77928 433.957>
LayerCount: 2
Fore
SplineSet
193.219 631 m 1
 232.219 661 269.219 689 308.219 689 c 0
 347.219 689 392.219 616 424.219 616 c 0
 463.219 616 505.219 650 531.219 669 c 1
 536.219 662 l 1
 497.219 629 463.219 600 421.219 600 c 0
 379.219 600 339.219 673 306.219 673 c 0
 268.219 673 237.219 649 197.219 623 c 1
 193.219 631 l 1
60 0 m 1
 144 531 l 1
 158 531 l 1
 158 469 l 1
 223 507 305 540 386 540 c 0
 492 540 537 458 523 370 c 2
 464 0 l 1
 440 0 l 1
 499 370 l 2
 512 449 471 516 382 516 c 0
 294 516 236 495 156 455 c 1
 84 0 l 1
 60 0 l 1
EndSplineSet
AlternateSubs2: "'salt' Access All Alternates in Latin lookup 4-1" ntilde.salt
Substitution2: "'smcp' Lowercase to Small Capitals lookup 16-1" ntilde.smcp
EndChar

StartChar: oslash
Encoding: 248 248 105
Width: 540
VWidth: 0
Flags: HW
HStem: -5 24<164.014 358.447> 512 24<246.196 432.269>
DStem2: 51 0 69 0 0.669042 0.743225<12.0428 65.8573 94.9186 631.578 659.228 714.454>
LayerCount: 2
Fore
SplineSet
122 59 m 1
 149 25 199 19 263 19 c 0
 391 19 463 52 496 258 c 0
 512 360 507 423 484 460 c 1
 122 59 l 1
114 71 m 1
 476 471 l 1
 448 505 400 512 341 512 c 0
 221 512 143 489 106 258 c 0
 91 164 94 106 114 71 c 1
51 0 m 1
 96 50 l 1
 67 92 66 170 82 269 c 0
 116 486 186 536 345 536 c 0
 416 536 463 521 492 490 c 1
 529 531 l 1
 547 531 l 1
 500 479 l 1
 533 433 536 352 520 250 c 0
 489 56 431 -4 264 -5 c 0
 188 -5 134 9 105 40 c 1
 69 0 l 1
 51 0 l 1
EndSplineSet
Substitution2: "'smcp' Lowercase to Small Capitals lookup 16-1" oslash.smcp
EndChar

StartChar: thorn
Encoding: 254 254 106
Width: 531
VWidth: 0
Flags: HW
HStem: -10 24<197.221 372.97> 516 24<320.7 443.356> 762 20G<190.825 218>
DStem2: 27 -270 51 -270 0.156782 0.987633<3.76277 306.434 319.335 746.34 753.943 1065.17>
LayerCount: 2
Fore
SplineSet
101 43 m 1
 179 20 226 14 311 14 c 0
 419 14 474 94 502 269 c 0
 530 443 478 516 390 516 c 0
 319 516 232 481 166 457 c 1
 101 43 l 1
27 -270 m 1
 194 782 l 1
 218 782 l 1
 168 471 l 1
 197 490 326 540 394 540 c 0
 530 540 548 395 526 259 c 0
 504 121 461 -10 307 -10 c 0
 262 -10 158 3 98 29 c 1
 51 -270 l 1
 27 -270 l 1
EndSplineSet
Substitution2: "'smcp' Lowercase to Small Capitals lookup 16-1" thorn.smcp
EndChar

StartChar: ugrave
Encoding: 249 249 107
Width: 539
VWidth: 0
Flags: HW
HStem: -8 24<159.023 298.906> 1 21<440 457.164> 512 20<130.811 158 510.835 538> 596 133
VStem: 227.301 126 440 14<1 45.25>
DStem2: 75 162 99 162 0.15747 0.987524<-55.4837 374.675> 253.301 729 227.301 729 0.600961 -0.799278<0 157.987> 442 77 454 1 0.156249 0.987718<-7.16798 460.661>
LayerCount: 2
Fore
SplineSet
227.301 729 m 1
 253.301 729 l 1
 353.301 596 l 1
 339.301 596 l 1
 227.301 729 l 1
75 162 m 2
 134 532 l 1
 158 532 l 1
 99 162 l 2
 86 83 127 16 216 16 c 0
 304 16 362 37 442 77 c 1
 514 532 l 1
 538 532 l 1
 454 1 l 1
 440 1 l 1
 440 63 l 1
 375 25 294 -8 213 -8 c 0
 107 -8 61 74 75 162 c 2
EndSplineSet
AlternateSubs2: "'salt' Access All Alternates in Latin lookup 4-1" ugrave.salt
Substitution2: "'smcp' Lowercase to Small Capitals lookup 16-1" ugrave.smcp
EndChar

StartChar: uacute
Encoding: 250 250 108
Width: 539
VWidth: 0
Flags: HW
HStem: -8 24<159.023 298.906> 1 21<440 457.164> 512 20<130.811 158 510.835 538> 596 133
VStem: 339.301 168 440 14<1 45.25>
DStem2: 75 162 99 162 0.15747 0.987524<-55.4837 374.675> 339.301 596 353.301 596 0.756823 0.65362<10.5955 194.4> 442 77 454 1 0.156249 0.987718<-7.16798 460.661>
LayerCount: 2
Fore
SplineSet
339.301 596 m 1
 481.301 729 l 1
 507.301 729 l 1
 353.301 596 l 1
 339.301 596 l 1
75 162 m 2
 134 532 l 1
 158 532 l 1
 99 162 l 2
 86 83 127 16 216 16 c 0
 304 16 362 37 442 77 c 1
 514 532 l 1
 538 532 l 1
 454 1 l 1
 440 1 l 1
 440 63 l 1
 375 25 294 -8 213 -8 c 0
 107 -8 61 74 75 162 c 2
EndSplineSet
AlternateSubs2: "'salt' Access All Alternates in Latin lookup 4-1" uacute.salt
Substitution2: "'smcp' Lowercase to Small Capitals lookup 16-1" uacute.smcp
EndChar

StartChar: ucircumflex
Encoding: 251 251 109
Width: 539
VWidth: 0
Flags: HW
HStem: -8 24<159.023 298.906> 1 21<440 457.164> 512 20<130.811 158 510.835 538> 596 130
VStem: 210.301 272 440 14<1 45.25>
DStem2: 75 162 99 162 0.15747 0.987524<-55.4837 374.675> 210.301 596 228.301 596 0.762062 0.647504<13.7171 197.155> 384.301 726 371.301 711 0.601964 -0.798523<4.15232 152.567> 442 77 454 1 0.156249 0.987718<-7.16798 460.661>
LayerCount: 2
Fore
SplineSet
210.301 596 m 1
 363.301 726 l 1
 384.301 726 l 1
 482.301 596 l 1
 465.301 596 l 1
 371.301 711 l 1
 228.301 596 l 1
 210.301 596 l 1
75 162 m 2
 134 532 l 1
 158 532 l 1
 99 162 l 2
 86 83 127 16 216 16 c 0
 304 16 362 37 442 77 c 1
 514 532 l 1
 538 532 l 1
 454 1 l 1
 440 1 l 1
 440 63 l 1
 375 25 294 -8 213 -8 c 0
 107 -8 61 74 75 162 c 2
EndSplineSet
AlternateSubs2: "'salt' Access All Alternates in Latin lookup 4-1" ucircumflex.salt
Substitution2: "'smcp' Lowercase to Small Capitals lookup 16-1" ucircumflex.smcp
EndChar

StartChar: udieresis
Encoding: 252 252 110
Width: 539
VWidth: 0
Flags: HW
HStem: -8 24<159.023 298.906> 1 21<440 457.164> 512 20<130.811 158 510.835 538> 596 35<204.252 238.948 459.252 493.948>
VStem: 204.153 35<596.206 630.68> 440 14<1 45.25> 459.153 35<596.206 630.68>
DStem2: 75 162 99 162 0.15747 0.987524<-55.4837 374.675> 442 77 454 1 0.156249 0.987718<-7.16798 460.661>
LayerCount: 2
Fore
SplineSet
459.153 614 m 0
 461.153 624 470.153 631 480.153 631 c 0
 490.153 631 496.153 624 494.153 614 c 0
 492.153 604 484.153 596 474.153 596 c 0
 464.153 596 457.153 604 459.153 614 c 0
204.153 614 m 0
 206.153 624 215.153 631 225.153 631 c 0
 235.153 631 241.153 624 239.153 614 c 0
 237.153 604 229.153 596 219.153 596 c 0
 209.153 596 202.153 604 204.153 614 c 0
75 162 m 2
 134 532 l 1
 158 532 l 1
 99 162 l 2
 86 83 127 16 216 16 c 0
 304 16 362 37 442 77 c 1
 514 532 l 1
 538 532 l 1
 454 1 l 1
 440 1 l 1
 440 63 l 1
 375 25 294 -8 213 -8 c 0
 107 -8 61 74 75 162 c 2
EndSplineSet
AlternateSubs2: "'salt' Access All Alternates in Latin lookup 4-1" udieresis.salt
Substitution2: "'smcp' Lowercase to Small Capitals lookup 16-1" udieresis.smcp
EndChar

StartChar: yacute
Encoding: 253 253 111
Width: 536
VWidth: 0
Flags: HW
HStem: -269 14<97 117.998> 0 25<247.269 283> 511 20<94 121.952> 591 133
VStem: 315 168
DStem2: 118 531 94 531 0.193426 -0.981115<0 481.262> 283 0 310 1 0.431245 0.902235<-176.845 0 27.7308 581.004> 315 591 329 591 0.756823 0.65362<10.5955 194.4>
LayerCount: 2
Fore
SplineSet
315 591 m 1
 457 724 l 1
 483 724 l 1
 329 591 l 1
 315 591 l 1
94 531 m 1
 118 531 l 1
 200 116 l 2
 220 13 295 25 295 25 c 1
 500 454 l 2
 510 476 524 510 528 538 c 1
 543 538 l 1
 551 509 532 465 523 446 c 2
 310 1 l 1
 310 1 192 -269 97 -269 c 1
 97 -255 l 1
 168 -256 283 0 283 0 c 1
 262 1 196 12 177 110 c 2
 94 531 l 1
EndSplineSet
Substitution2: "'smcp' Lowercase to Small Capitals lookup 16-1" yacute.smcp
EndChar

StartChar: ydieresis
Encoding: 255 255 112
Width: 536
VWidth: 0
Flags: HW
HStem: -269 14<97 117.998> 0 25<247.269 283> 511 20<94 121.952> 624 35<185.099 219.795 440.099 474.795>
VStem: 185 35<624.206 658.68> 440 35<624.206 658.68>
DStem2: 118 531 94 531 0.193426 -0.981115<0 481.262> 283 0 310 1 0.431245 0.902235<-176.845 0 27.7308 581.004>
LayerCount: 2
Fore
SplineSet
440 642 m 0
 442 652 451 659 461 659 c 0
 471 659 477 652 475 642 c 0
 473 632 465 624 455 624 c 0
 445 624 438 632 440 642 c 0
185 642 m 0
 187 652 196 659 206 659 c 0
 216 659 222 652 220 642 c 0
 218 632 210 624 200 624 c 0
 190 624 183 632 185 642 c 0
94 531 m 1
 118 531 l 1
 200 116 l 2
 220 13 295 25 295 25 c 1
 500 454 l 2
 510 476 524 510 528 538 c 1
 543 538 l 1
 551 509 532 465 523 446 c 2
 310 1 l 1
 310 1 192 -269 97 -269 c 1
 97 -255 l 1
 168 -256 283 0 283 0 c 1
 262 1 196 12 177 110 c 2
 94 531 l 1
EndSplineSet
Substitution2: "'smcp' Lowercase to Small Capitals lookup 16-1" ydieresis.smcp
EndChar

StartChar: Thorn
Encoding: 222 222 113
Width: 553
VWidth: 0
Flags: HW
HStem: 0 21G<60 87.1447> 149 24<135.036 396.594> 159 14<111 227.334> 564 24<177 453.01>
DStem2: 60 0 84 0 0.155823 0.987785<3.73976 165.089 178.834 574.719 599.049 738.015>
LayerCount: 2
Fore
SplineSet
111 173 m 1
 328 173 l 2
 422 173 488 220 513 377 c 0
 539 540 456 563 390 564 c 1
 173 564 l 1
 111 173 l 1
60 0 m 1
 98 243 137 486 175 729 c 1
 199 729 l 1
 177 588 l 1
 394 588 l 2
 473 588 565 550 537 371 c 0
 505 167 399 149 325 149 c 1
 285 150 143 154 109 159 c 1
 84 0 l 1
 60 0 l 1
EndSplineSet
Substitution2: "'c2sc' Capitals to Small Capitals in Latin lookup 17 subtable" thorn.smcp
EndChar

StartChar: uni00B5
Encoding: 181 181 114
Width: 582
VWidth: 0
Flags: HW
HStem: -8 24<198.941 338.554> 1 21G<480 497.164> 512 20G<170.811 198 550.835 578>
VStem: 480 14<1 45.25>
DStem2: 47 -270 71 -270 0.156405 0.987693<3.75373 347.028 379.526 811.993> 482 77 494 1 0.156249 0.987718<-7.16798 460.661>
LayerCount: 2
Fore
SplineSet
47 -270 m 1
 115 162 l 1
 174 532 l 1
 198 532 l 1
 139 162 l 2
 126 83 167 16 256 16 c 0
 344 16 402 37 482 77 c 1
 554 532 l 1
 578 532 l 1
 494 1 l 1
 480 1 l 1
 480 63 l 1
 415 25 333 -8 252 -8 c 0
 186 -8 144 24 125 69 c 1
 71 -270 l 1
 47 -270 l 1
EndSplineSet
EndChar

StartChar: germandbls
Encoding: 223 223 115
Width: 548
VWidth: 0
Flags: HW
HStem: -8 24<201.158 432.86> 0 21G<60 87.1802> 753 24<310.87 482.633>
DStem2: 60 0 84 0 0.157038 0.987593<3.7689 655.006> 517 132 541 129 0.141421 0.989949<-54.6445 82.8425>
LayerCount: 2
Fore
SplineSet
60 0 m 1
 150 566 l 2
 168 682 246 777 388 777 c 0
 683 777 580 547 459 471 c 1
 377 415 324 400 316 348 c 0
 298 234 570 326 548 178 c 2
 541 129 l 2
 527 38 459 -8 364 -8 c 0
 296 -8 224 0 190 7 c 1
 192 21 l 1
 229 19 296 16 365 16 c 0
 479 16 510 89 517 132 c 2
 524 178 l 1
 545 303 270 206 293 351 c 0
 302 406 337 420 448 490 c 0
 484 513 529 566 546 610 c 0
 583 704 526 753 387 753 c 0
 272 753 193 686 174 566 c 2
 84 0 l 1
 60 0 l 1
EndSplineSet
Substitution2: "'smcp' Lowercase to Small Capitals lookup 16-1" germandbls.smcp
EndChar

StartChar: asciitilde
Encoding: 126 126 116
Width: 488
VWidth: 0
Flags: HW
HStem: 541 16<350.232 405.729> 614 16<218.919 273.791>
LayerCount: 2
Fore
SplineSet
140 572 m 1
 179 602 216 630 255 630 c 0
 294 630 339 557 371 557 c 0
 410 557 452 591 478 610 c 1
 483 603 l 1
 444 570 410 541 368 541 c 0
 326 541 286 614 253 614 c 0
 215 614 184 590 144 564 c 1
 140 572 l 1
EndSplineSet
EndChar

StartChar: asciicircum
Encoding: 94 94 117
Width: 427
VWidth: 0
Flags: HW
HStem: 531 130
VStem: 134 272
DStem2: 134 531 152 531 0.762062 0.647504<13.7171 197.155> 308 661 295 646 0.601964 -0.798523<4.15232 152.567>
LayerCount: 2
Fore
SplineSet
134 531 m 1
 287 661 l 1
 308 661 l 1
 406 531 l 1
 389 531 l 1
 295 646 l 1
 152 531 l 1
 134 531 l 1
EndSplineSet
EndChar

StartChar: grave
Encoding: 96 96 118
Width: 219
VWidth: 0
Flags: HW
HStem: 531 133
VStem: 125 126
DStem2: 151 664 125 664 0.600961 -0.799278<0 157.987>
LayerCount: 2
Fore
SplineSet
125 664 m 1
 151 664 l 1
 251 531 l 1
 237 531 l 1
 125 664 l 1
EndSplineSet
Substitution2: "'smcp' Lowercase to Small Capitals lookup 16-1" grave.smcp
EndChar

StartChar: dieresis
Encoding: 168 168 119
Width: 443
VWidth: 0
Flags: HW
HStem: 564 35<141.099 175.795 396.099 430.795>
VStem: 141 35<564.206 598.68> 396 35<564.206 598.68>
LayerCount: 2
Fore
SplineSet
396 582 m 0
 398 592 407 599 417 599 c 0
 427 599 433 592 431 582 c 0
 429 572 421 564 411 564 c 0
 401 564 394 572 396 582 c 0
141 582 m 0
 143 592 152 599 162 599 c 0
 172 599 178 592 176 582 c 0
 174 572 166 564 156 564 c 0
 146 564 139 572 141 582 c 0
EndSplineSet
Substitution2: "'smcp' Lowercase to Small Capitals lookup 16-1" dieresis.smcp
EndChar

StartChar: acute
Encoding: 180 180 120
Width: 197
VWidth: 0
Flags: HW
HStem: 531 133
VStem: 104 168
DStem2: 104 531 118 531 0.756823 0.65362<10.5955 194.4>
LayerCount: 2
Fore
SplineSet
104 531 m 1
 246 664 l 1
 272 664 l 1
 118 531 l 1
 104 531 l 1
EndSplineSet
Substitution2: "'smcp' Lowercase to Small Capitals lookup 16-1" acute.smcp
EndChar

StartChar: cedilla
Encoding: 184 184 121
Width: 271
VWidth: 0
Flags: HW
HStem: -173 7<23 57>
VStem: 159 17<-76.908 -37>
LayerCount: 2
Fore
SplineSet
22 -173 m 1
 23 -166 l 1
 57 -161 l 2
 112 -153 144 -145 159 -37 c 1
 176 -37 l 1
 160 -137 136 -173 53 -173 c 2
 22 -173 l 1
EndSplineSet
EndChar

StartChar: exclam
Encoding: 33 33 122
Width: 236
VWidth: 0
Flags: HW
HStem: 0 21G<90.5 108.5> 711 20G<201.009 226>
VStem: 124 12<196 237.611>
DStem2: 93.7207 74 128.721 74 0.164754 0.986335<-72.0997 15.0323 127.299 666.191>
LayerCount: 2
Fore
SplineSet
124 196 m 1
 204 731 l 1
 226 731 l 1
 136 196 l 1
 124 196 l 1
83.9004 12 m 2
 93.7207 74 l 2
 94.9873 82 99.6211 86 107.621 86 c 2
 118.621 86 l 2
 126.621 86 129.829 81 128.721 74 c 2
 118.9 12 l 2
 117.634 4 112 0 105 0 c 2
 94 0 l 2
 87 0 82.792 5 83.9004 12 c 2
EndSplineSet
Substitution2: "'smcp' Lowercase to Small Capitals lookup 16-1" exclam.smcp
EndChar

StartChar: degree
Encoding: 176 176 123
Width: 355
VWidth: 0
Flags: HW
HStem: 530 14<204.99 271.444> 721 14<231.924 296.406>
VStem: 149 203
LayerCount: 2
Fore
SplineSet
163 632 m 0
 155 583 189 544 237 544 c 0
 285 544 330 583 338 632 c 0
 346 681 313 721 265 721 c 0
 217 721 171 681 163 632 c 0
149 632 m 0
 158 689 209 735 265 735 c 0
 321 735 361 689 352 632 c 0
 343 575 294 530 238 530 c 0
 182 530 140 575 149 632 c 0
EndSplineSet
Substitution2: "'smcp' Lowercase to Small Capitals lookup 16-1" degree.smcp
EndChar

StartChar: period
Encoding: 46 46 124
Width: 172
VWidth: 0
Flags: HW
HStem: 0 86<79.4117 107.409>
VStem: 70.9004 44.8203
DStem2: 80.7207 74 115.721 74 0.156442 0.987687<-72.1449 14.7916>
LayerCount: 2
Fore
SplineSet
70.9004 12 m 2
 80.7207 74 l 2
 81.9873 82 86.6211 86 94.6211 86 c 2
 105.621 86 l 2
 113.621 86 116.829 81 115.721 74 c 2
 105.9 12 l 2
 104.634 4 99 0 92 0 c 2
 81 0 l 2
 74 0 69.792 5 70.9004 12 c 2
EndSplineSet
EndChar

StartChar: periodcentered
Encoding: 183 183 125
Width: 281
VWidth: 0
Flags: HW
HStem: 364 36<140.123 174.875>
VStem: 141 35<364.105 399.988>
LayerCount: 2
Fore
SplineSet
139 376 m 2
 141 388 l 2
 142 396 147 400 155 400 c 2
 167 400 l 2
 175 400 177 395 176 388 c 2
 174 376 l 2
 173 368 168 364 161 364 c 2
 149 364 l 2
 142 364 138 369 139 376 c 2
EndSplineSet
Substitution2: "'smcp' Lowercase to Small Capitals lookup 16-1" periodcentered.smcp
EndChar

StartChar: comma
Encoding: 44 44 126
Width: 171
VWidth: 0
Flags: HW
HStem: -68 6<61.1797 72.4389>
VStem: 60.2295 54.6495
DStem2: 60.2295 -68 97.1396 -37 0.142919 0.989734<6.16179 21.4527 71.0696 159.867> 87 0 97.1396 -37 0.156437 0.987688<-61.3444 0>
LayerCount: 2
Fore
SplineSet
60.2295 -68 m 1
 61.1797 -62 l 1
 76.1797 -62 78.6055 -53 79.5557 -47 c 2
 87 0 l 1
 81 0 l 2
 74 0 69.792 5 71.0586 13 c 2
 80.8789 75 l 2
 82.3047 84 86.9375 88 94.9375 88 c 2
 104.938 88 l 2
 113.938 88 116.146 83 114.879 75 c 2
 97.1396 -37 l 2
 90.8047 -77 60.2295 -68 60.2295 -68 c 1
EndSplineSet
EndChar

StartChar: bullet
Encoding: 256 8226 127
Width: 337
VWidth: 0
Flags: HW
HStem: 334 97<146.883 228.093>
VStem: 139 92<337.394 425.287>
LayerCount: 2
Fore
SplineSet
139 366 m 2
 143 396 l 2
 146 417 160 431 182 431 c 2
 206 431 l 2
 231 431 238 418 235 396 c 2
 231 366 l 2
 227 342 210 334 190 334 c 2
 166 334 l 2
 146 334 136 346 139 366 c 2
EndSplineSet
Substitution2: "'smcp' Lowercase to Small Capitals lookup 16-1" bullet.smcp
EndChar

StartChar: quoteleft
Encoding: 257 8216 128
Width: 169
VWidth: 0
Flags: HW
HStem: 724 7<204.082 217.471>
VStem: 158.088 60.491
DStem2: 174.561 693 189.601 668 0.156444 0.987687<-22.3393 32.2854> 174.561 693 209.066 652 0.156444 0.987687<-118.201 -22.1183 25.6548 36.6267>
LayerCount: 2
Fore
SplineSet
158.088 589 m 2
 174.561 693 l 2
 182.321 742 218.579 731 218.579 731 c 1
 217.471 724 l 1
 199.629 725 196.569 712 195.461 705 c 2
 189.601 668 l 1
 196.601 668 l 2
 204.601 668 210.65 662 209.066 652 c 2
 199.089 589 l 2
 197.347 578 191.555 573 181.554 573 c 2
 169.554 573 l 2
 158.554 573 156.663 580 158.088 589 c 2
EndSplineSet
Substitution2: "'smcp' Lowercase to Small Capitals lookup 16-1" quoteleft.smcp
EndChar

StartChar: quoteright
Encoding: 258 8217 129
Width: 169
VWidth: 0
Flags: HW
HStem: 574 7<159.222 173.446> 712 20G<191.138 212.638>
VStem: 158.113 61.491
DStem2: 158.113 574 201.973 611 0.165596 0.986194<7.35192 66.3277 66.9107 163.266> 187.091 637 201.973 611 0.165596 0.986194<-56.2614 0>
LayerCount: 2
Fore
SplineSet
158.113 574 m 1
 159.222 581 l 1
 177.063 580 179.964 592 181.072 599 c 2
 187.091 637 l 1
 180.091 637 l 2
 172.091 637 165.883 642 167.467 652 c 2
 178.604 716 l 2
 180.518 726.999 186.138 732 196.138 732 c 2
 207.138 732 l 2
 218.138 732 221.114 724.999 219.604 716 c 2
 201.973 611 l 2
 194.212 562 158.113 574 158.113 574 c 1
EndSplineSet
Substitution2: "'smcp' Lowercase to Small Capitals lookup 16-1" quoteright.smcp
EndChar

StartChar: quotesinglbase
Encoding: 259 8218 130
Width: 169
VWidth: 0
Flags: HW
HStem: -64 7<58.7715 72.1604>
VStem: 57.6631 60.4909
DStem2: 57.6631 -64 101.682 -26 0.156435 0.987688<7.79152 67.1689 67.7529 163.879> 86.7998 0 101.682 -26 0.156435 0.987688<-55.6372 0>
LayerCount: 2
Fore
SplineSet
57.6631 -64 m 1
 58.7715 -57 l 1
 76.6133 -58 79.6729 -45 80.7812 -38 c 2
 86.7998 0 l 1
 79.7998 0 l 2
 71.7998 0 65.5918 5 67.1758 15 c 2
 77.1533 78 l 2
 78.8965 89 84.8467 95 94.8467 95 c 2
 105.847 95 l 2
 116.847 95 119.579 87 118.154 78 c 2
 101.682 -26 l 2
 93.9209 -75 57.6631 -64 57.6631 -64 c 1
EndSplineSet
Substitution2: "'smcp' Lowercase to Small Capitals lookup 16-1" quotesinglbase.smcp
EndChar

StartChar: quotedblleft
Encoding: 260 8220 131
Width: 255
VWidth: 0
Flags: HW
HStem: 724 7<197.262 211.07 294.682 308.07>
VStem: 152.688 156.491
DStem2: 169.161 693 184.201 668 0.156444 0.987687<-22.3393 33.2144> 169.161 693 203.667 652 0.156444 0.987687<-118.201 -22.232 26.4524 36.5739> 265.16 693 280.201 668 0.156435 0.987688<-22.3393 32.2854> 265.16 693 299.667 652 0.156435 0.987688<-118.248 -22.1185 25.6549 36.6267>
LayerCount: 2
Fore
SplineSet
248.688 589 m 2
 265.16 693 l 2
 272.921 742 309.179 731 309.179 731 c 1
 308.07 724 l 1
 290.229 725 287.17 712 286.061 705 c 2
 280.201 668 l 1
 287.201 668 l 2
 295.201 668 301.25 662 299.667 652 c 2
 289.688 589 l 2
 287.946 578 282.154 573 272.154 573 c 2
 261.154 573 l 2
 250.154 573 247.263 580 248.688 589 c 2
152.688 589 m 2
 169.161 693 l 2
 176.922 742 212.18 731 212.18 731 c 1
 211.07 724 l 1
 193.229 725 191.17 712 190.062 705 c 2
 184.201 668 l 1
 190.201 668 l 2
 198.201 668 205.251 662 203.667 652 c 2
 193.688 589 l 2
 191.946 578 185.154 573 175.154 573 c 2
 164.154 573 l 2
 153.154 573 151.264 580 152.688 589 c 2
EndSplineSet
Substitution2: "'smcp' Lowercase to Small Capitals lookup 16-1" quotedblleft.smcp
EndChar

StartChar: quotedblright
Encoding: 261 8221 132
Width: 254
VWidth: 0
Flags: HW
HStem: 574 7<154.422 168.568 250.421 264.645> 712 20G<185.338 206.838 281.338 303.838>
VStem: 153.313 156.491
DStem2: 153.313 574 197.173 611 0.15644 0.987687<7.12193 66 66.5865 162.814> 181.291 637 197.173 611 0.15644 0.987687<-56.1936 0> 249.312 574 293.173 611 0.15644 0.987687<7.12203 62.5497 66.7843 162.931> 278.291 637 293.173 611 0.15644 0.987687<-55.4024 0>
LayerCount: 2
Fore
SplineSet
249.312 574 m 1
 250.421 581 l 1
 268.263 580 271.164 592 272.272 599 c 2
 278.291 637 l 1
 271.291 637 l 2
 263.291 637 257.083 642 258.667 652 c 2
 268.804 716 l 2
 270.546 727 276.338 732 286.338 732 c 2
 298.338 732 l 2
 309.338 732 311.229 725 309.804 716 c 2
 293.173 611 l 2
 285.412 562 249.312 574 249.312 574 c 1
153.313 574 m 1
 154.422 581 l 1
 172.264 580 174.164 592 175.272 599 c 2
 181.291 637 l 1
 175.272 637 l 2
 167.272 637 161.083 642 162.667 652 c 2
 172.804 716 l 2
 174.546 727 180.338 732 190.338 732 c 2
 201.338 732 l 2
 212.338 732 215.229 725 213.804 716 c 2
 197.173 611 l 2
 189.412 562 153.313 574 153.313 574 c 1
EndSplineSet
Substitution2: "'smcp' Lowercase to Small Capitals lookup 16-1" quotedblright.smcp
EndChar

StartChar: quotedblbase
Encoding: 262 8222 133
Width: 254
VWidth: 0
Flags: HW
HStem: -62 7<53.6895 67.0773 149.688 163.077>
VStem: 52.5801 156.49
DStem2: 52.5801 -62 96.5986 -24 0.156429 0.987689<7.79136 67.0124 67.5988 163.879> 80.7168 2 96.5986 -24 0.156429 0.987689<-56.4492 0> 148.58 -62 192.599 -24 0.156425 0.98769<7.7913 40.7181 67.7966 163.85> 177.717 2 192.599 -24 0.156425 0.98769<-55.6373 0>
LayerCount: 2
Fore
SplineSet
148.58 -62 m 1
 149.688 -55 l 1
 167.53 -56 170.59 -43 171.698 -36 c 2
 177.717 2 l 1
 170.717 2 l 2
 162.717 2 156.509 7 158.093 17 c 2
 168.07 80 l 2
 169.812 91 175.764 97 185.764 97 c 2
 197.764 97 l 2
 208.764 97 210.496 89 209.07 80 c 2
 192.599 -24 l 2
 184.838 -73 148.58 -62 148.58 -62 c 1
52.5801 -62 m 1
 53.6895 -55 l 1
 71.5312 -56 73.5898 -43 74.6982 -36 c 2
 80.7168 2 l 1
 74.6982 2 l 2
 66.6982 2 60.5088 7 62.0928 17 c 2
 72.0713 80 l 2
 73.8135 91 79.7637 97 89.7637 97 c 2
 100.764 97 l 2
 111.764 97 114.496 89 113.07 80 c 2
 96.5986 -24 l 2
 88.8379 -73 52.5801 -62 52.5801 -62 c 1
EndSplineSet
Substitution2: "'smcp' Lowercase to Small Capitals lookup 16-1" quotedblbase.smcp
EndChar

StartChar: colon
Encoding: 58 58 134
Width: 177
VWidth: 0
Flags: HW
HStem: 0 21G<82.5 100.5> 510 20G<160.943 179.943>
VStem: 75.9004 110.143
DStem2: 85.7207 74 120.721 74 0.146893 0.989152<-72.1905 14.6263 376.719 463.525>
LayerCount: 2
Fore
SplineSet
141.064 455 m 2
 151.043 518 l 2
 152.311 526 156.943 530 164.943 530 c 2
 175.943 530 l 2
 183.943 530 187.151 525 186.043 518 c 2
 176.064 455 l 2
 174.798 447 169.322 444 162.322 444 c 2
 151.322 444 l 2
 144.322 444 139.956 448 141.064 455 c 2
75.9004 12 m 2
 85.7207 74 l 2
 86.9873 82 91.6211 86 99.6211 86 c 2
 110.621 86 l 2
 118.621 86 121.829 81 120.721 74 c 2
 110.9 12 l 2
 109.634 4 104 0 97 0 c 2
 86 0 l 2
 79 0 74.792 5 75.9004 12 c 2
EndSplineSet
EndChar

StartChar: semicolon
Encoding: 59 59 135
Width: 172
VWidth: 0
Flags: HW
HStem: -68 6<61.1797 72.4389> 510 20G<160.943 179.943>
VStem: 60.2295 125.813
DStem2: 60.2295 -68 97.1396 -37 0.153144 0.988204<7.00837 22.538 71.3551 160.291 520.616 607.554> 87 0 97.1396 -37 0.15817 0.987412<-61.3294 0>
LayerCount: 2
Fore
SplineSet
141.064 455 m 2
 151.043 518 l 2
 152.311 526 156.943 530 164.943 530 c 2
 175.943 530 l 2
 183.943 530 187.151 525 186.043 518 c 2
 176.064 455 l 2
 174.798 447 169.322 444 162.322 444 c 2
 151.322 444 l 2
 144.322 444 139.956 448 141.064 455 c 2
60.2295 -68 m 1
 61.1797 -62 l 1
 76.1797 -62 78.6055 -53 79.5557 -47 c 2
 87 0 l 1
 81 0 l 2
 74 0 69.792 5 71.0586 13 c 2
 80.8789 75 l 2
 82.3047 84 86.9375 88 94.9375 88 c 2
 104.938 88 l 2
 113.938 88 116.146 83 114.879 75 c 2
 97.1396 -37 l 2
 90.8047 -77 60.2295 -68 60.2295 -68 c 1
EndSplineSet
EndChar

StartChar: quotedbl
Encoding: 34 34 136
Width: 287
VWidth: 0
Flags: HW
HStem: 531 201
VStem: 108 150
LayerCount: 2
Fore
SplineSet
208 531 m 1
 222 665 l 1
 233 732 l 1
 258 732 l 1
 247 665 l 1
 220 531 l 1
 208 531 l 1
108 531 m 1
 122 665 l 1
 133 732 l 1
 158 732 l 1
 147 665 l 1
 120 531 l 1
 108 531 l 1
EndSplineSet
Substitution2: "'smcp' Lowercase to Small Capitals lookup 16-1" quotedbl.smcp
EndChar

StartChar: exclamdown
Encoding: 161 161 137
Width: 239
VWidth: 0
Flags: HW
VStem: 45 142
DStem2: 152 450 187 450 0.172001 0.985097<-74.1229 13.0639>
LayerCount: 2
Fore
SplineSet
141 387 m 2
 152 450 l 2
 153.387 457.943 158 460 165 460 c 2
 177 460 l 2
 184 460 188.216 456.966 187 450 c 2
 176 387 l 2
 175 379 170 374 162 374 c 2
 151 374 l 2
 143 374 140 380 141 387 c 2
45 -270 m 1
 135 266 l 1
 147 266 l 1
 67 -270 l 1
 45 -270 l 1
EndSplineSet
Substitution2: "'case' Case-Sensitive Forms lookup 1-1" exclamdown.alt
Substitution2: "'smcp' Lowercase to Small Capitals lookup 16-1" exclamdown.smcp
EndChar

StartChar: zero
Encoding: 48 48 138
Width: 649
VWidth: 0
Flags: HW
HStem: 0 24<205.089 476.415> 708 24<310.501 580.755>
DStem2: 121 162 145 162 0.15733 0.987546<-54.7638 478.678> 570 162 594 162 0.15733 0.987546<-70.394 476.429>
LayerCount: 2
Fore
SplineSet
145 162 m 2
 131 70 181 24 271 24 c 2
 405 24 l 2
 509 24 557 77 570 162 c 2
 635 570 l 2
 649 660 609 708 513 708 c 2
 379 708 l 2
 290 708 224 658 210 570 c 2
 145 162 l 2
121 162 m 2
 186 570 l 2
 203 678 288 732 383 732 c 2
 517 732 l 2
 639 732 673 661 659 570 c 2
 594 162 l 2
 575 43 500 0 401 0 c 2
 267 0 l 2
 176 0 102 42 121 162 c 2
EndSplineSet
Substitution2: "'dnom' Denominators lookup 0 subtable" zero.denominator
Substitution2: "'sups' Superscript lookup 2 subtable" zerosuperior
Substitution2: "'onum' Oldstyle Figures in Latin lookup 5-1" zero.oldstyle
Substitution2: "'tnum' Tabular Numbers in Latin lookup 7-1" zero.tnum
Substitution2: "'numr' Numerators lookup 9 subtable" zero.numerator
Substitution2: "'zero' Slashed Zero lookup 20-1" uni0338
Substitution2: "'sinf' Scientific Inferiors lookup 3-1" zeroinferior
Substitution2: "'frac' Diagonal Fractions lookup 13-1" zero.numerator
Substitution2: "'smcp' Lowercase to Small Capitals lookup 16-1" zero.smcp
EndChar

StartChar: one
Encoding: 49 49 139
Width: 406
VWidth: 0
Flags: HW
HStem: 0 21G<251 278.115> 625 15<138 191.33> 712 20G<317.217 389>
VStem: 134 255
DStem2: 251 0 275 0 0.153883 0.988089<3.69319 710.873>
LayerCount: 2
Fore
SplineSet
134 625 m 1
 138 640 l 1
 238 640 367 732 367 732 c 1
 389 732 l 1
 275 0 l 1
 251 0 l 1
 363 702 l 1
 329 679 230 625 134 625 c 1
EndSplineSet
Substitution2: "'dnom' Denominators lookup 0 subtable" one.denominator
Substitution2: "'sups' Superscript lookup 2 subtable" onesuperior
Substitution2: "'onum' Oldstyle Figures in Latin lookup 5-1" one.oldstyle
Substitution2: "'tnum' Tabular Numbers in Latin lookup 7-1" one.tnum
Substitution2: "'numr' Numerators lookup 9 subtable" one.numerator
Substitution2: "'sinf' Scientific Inferiors lookup 3-1" oneinferior
Substitution2: "'frac' Diagonal Fractions lookup 13-1" one.numerator
Substitution2: "'smcp' Lowercase to Small Capitals lookup 16-1" one.smcp
EndChar

StartChar: two
Encoding: 50 50 140
Width: 574
VWidth: 0
Flags: HW
HStem: 0 24<92 517> 717 25<241.273 504.354> 717 15<156 241.273>
LayerCount: 2
Fore
SplineSet
47 0 m 1
 51 23 l 1
 161 102 547 366 575 532 c 0
 599 674 535 717 422 717 c 2
 154 717 l 1
 156 732 l 1
 261 745 381 742 432 742 c 0
 580 742 622 655 601 530 c 0
 570 344 149 63 92 24 c 1
 521 24 l 1
 517 0 l 1
 47 0 l 1
EndSplineSet
Substitution2: "'dnom' Denominators lookup 0 subtable" two.denominator
Substitution2: "'sups' Superscript lookup 2 subtable" twosuperior
Substitution2: "'onum' Oldstyle Figures in Latin lookup 5-1" two.oldstyle
Substitution2: "'tnum' Tabular Numbers in Latin lookup 7-1" two.tnum
Substitution2: "'numr' Numerators lookup 9 subtable" two.numerator
Substitution2: "'sinf' Scientific Inferiors lookup 3-1" twoinferior
Substitution2: "'frac' Diagonal Fractions lookup 13-1" two.numerator
Substitution2: "'smcp' Lowercase to Small Capitals lookup 16-1" two.smcp
EndChar

StartChar: three
Encoding: 51 51 141
Width: 579
VWidth: 0
Flags: HW
HStem: -7 25<125.037 389.504> 4 14<42 112.336> 352 27<159 431.266> 359 14<159 369> 710 24<249.17 497.579> 710 14<147 206.321>
DStem2: 491 166 517 161 0.154968 0.98792<-75.3909 113.197 281.449 480.521>
LayerCount: 2
Fore
SplineSet
39 4 m 1
 42 18 l 1
 315 18 l 2
 394 18 472 49 491 166 c 1
 500 225 l 2
 516 325 426 350 369 352 c 2
 157 359 l 1
 159 373 l 1
 373 379 l 1
 451 380 534 419 547 504 c 2
 557 573 l 1
 573 672 513 710 431 710 c 2
 145 710 l 1
 147 724 l 1
 209 735 322 736 439 734 c 0
 558 732 596 661 581 569 c 1
 571 500 l 1
 554 395 459 367 429 365 c 1
 460 360 542 324 526 220 c 2
 517 161 l 2
 500 52 435 -7 313 -7 c 0
 199 -7 77 -4 39 4 c 1
EndSplineSet
Substitution2: "'dnom' Denominators lookup 0 subtable" three.denominator
Substitution2: "'sups' Superscript lookup 2 subtable" threesuperior
Substitution2: "'onum' Oldstyle Figures in Latin lookup 5-1" three.oldstyle
Substitution2: "'tnum' Tabular Numbers in Latin lookup 7-1" three.tnum
Substitution2: "'numr' Numerators lookup 9 subtable" three.numerator
Substitution2: "'sinf' Scientific Inferiors lookup 3-1" threeinferior
Substitution2: "'frac' Diagonal Fractions lookup 13-1" three.numerator
Substitution2: "'smcp' Lowercase to Small Capitals lookup 16-1" three.smcp
EndChar

StartChar: four
Encoding: 52 52 142
Width: 572
VWidth: 0
Flags: HW
HStem: 2 21G<425 452.143> 212 24<84 458 486 546.4> 222 14<509.6 574> 712 20G<424.444 467>
DStem2: 55 237 84 236 0.613941 0.789352<17.0149 627.096> 425 2 449 2 0.155869 0.987778<3.74087 212.577 240.648 553.302>
LayerCount: 2
Fore
SplineSet
55 237 m 1
 440 732 l 1
 467 732 l 1
 84 236 l 1
 462 236 l 1
 499 472 l 1
 521 547 l 1
 535 547 l 1
 486 236 l 1
 576 236 l 1
 574 222 l 1
 482 212 l 1
 449 2 l 1
 425 2 l 1
 458 212 l 1
 63 212 l 1
 55 237 l 1
EndSplineSet
Substitution2: "'dnom' Denominators lookup 0 subtable" four.denominator
Substitution2: "'sups' Superscript lookup 2 subtable" foursuperior
Substitution2: "'onum' Oldstyle Figures in Latin lookup 5-1" four.oldstyle
Substitution2: "'tnum' Tabular Numbers in Latin lookup 7-1" four.tnum
Substitution2: "'numr' Numerators lookup 9 subtable" four.numerator
Substitution2: "'sinf' Scientific Inferiors lookup 3-1" fourinferior
Substitution2: "'frac' Diagonal Fractions lookup 13-1" four.numerator
Substitution2: "'smcp' Lowercase to Small Capitals lookup 16-1" four.smcp
EndChar

StartChar: five
Encoding: 53 53 143
Width: 627
VWidth: 0
Flags: HW
HStem: -4 24<190.853 437.321> 6 14<81 159.403> 407 24<244.203 512.532> 708 24<236 636>
DStem2: 124 282 165 365 0.20239 0.979305<89.5803 439.852> 548 168 571 166 0.159546 0.98719<-62.1916 164.555>
LayerCount: 2
Fore
SplineSet
79 6 m 1
 81 20 l 1
 378 20 l 2
 448 20 532 68 548 168 c 2
 563 263 l 2
 571 313 577 407 451 407 c 2
 298 407 l 2
 230 407 158 348 148 282 c 1
 124 282 l 1
 217 732 l 1
 640 732 l 1
 636 708 l 1
 236 708 l 1
 165 365 l 1
 176 380 221 431 298 431 c 0
 371 431 419 431 450 431 c 0
 568 431 602 362 587 265 c 2
 571 166 l 2
 549 29 443 -4 381 -4 c 0
 257 -4 149 -4 79 6 c 1
EndSplineSet
Substitution2: "'dnom' Denominators lookup 0 subtable" five.denominator
Substitution2: "'sups' Superscript lookup 2 subtable" fivesuperior
Substitution2: "'onum' Oldstyle Figures in Latin lookup 5-1" five.oldstyle
Substitution2: "'tnum' Tabular Numbers in Latin lookup 7-1" five.tnum
Substitution2: "'numr' Numerators lookup 9 subtable" five.numerator
Substitution2: "'sinf' Scientific Inferiors lookup 3-1" fiveinferior
Substitution2: "'frac' Diagonal Fractions lookup 13-1" five.numerator
Substitution2: "'smcp' Lowercase to Small Capitals lookup 16-1" five.smcp
EndChar

StartChar: six
Encoding: 54 54 144
Width: 635
VWidth: 0
Flags: HW
HStem: -1 24<207.262 447.688> 380 25<236.66 504.858> 714 24<304.586 540.973> 714 15<488.922 620>
DStem2: 529 146 554 148 0.116246 0.99322<-58.4896 189.755>
LayerCount: 2
Fore
SplineSet
147 380 m 1
 122 224 115 23 259 23 c 2
 378 23 l 2
 440 23 512 42 529 146 c 2
 546 252 l 2
 563 357 513 380 429 380 c 2
 147 380 l 1
124 384 m 0
 165 642 260 738 352 738 c 0
 453 738 562 736 622 729 c 1
 620 714 l 1
 354 714 l 2
 227 714 167 506 149 394 c 1
 236 404 351 405 425 405 c 0
 559 405 585 341 572 259 c 2
 554 148 l 2
 536 36 478 -1 384 -1 c 2
 260 -1 l 2
 151 -1 76 81 124 384 c 0
EndSplineSet
Substitution2: "'dnom' Denominators lookup 0 subtable" six.denominator
Substitution2: "'sups' Superscript lookup 2 subtable" sixsuperior
Substitution2: "'onum' Oldstyle Figures in Latin lookup 5-1" six.oldstyle
Substitution2: "'tnum' Tabular Numbers in Latin lookup 7-1" six.tnum
Substitution2: "'numr' Numerators lookup 9 subtable" six.numerator
Substitution2: "'sinf' Scientific Inferiors lookup 3-1" sixinferior
Substitution2: "'frac' Diagonal Fractions lookup 13-1" six.numerator
Substitution2: "'smcp' Lowercase to Small Capitals lookup 16-1" six.smcp
EndChar

StartChar: seven
Encoding: 55 55 145
Width: 540
VWidth: 0
Flags: HW
HStem: 0 21G<210 247.873> 708 24<138 560>
DStem2: 210 0 238 0 0.442655 0.896692<12.3943 789.787>
LayerCount: 2
Fore
SplineSet
134 708 m 1
 138 732 l 1
 576 732 l 1
 588 709 l 1
 238 0 l 1
 210 0 l 1
 560 708 l 1
 134 708 l 1
EndSplineSet
Substitution2: "'dnom' Denominators lookup 0 subtable" seven.denominator
Substitution2: "'sups' Superscript lookup 2 subtable" sevensuperior
Substitution2: "'onum' Oldstyle Figures in Latin lookup 5-1" seven.oldstyle
Substitution2: "'tnum' Tabular Numbers in Latin lookup 7-1" seven.tnum
Substitution2: "'numr' Numerators lookup 9 subtable" seven.numerator
Substitution2: "'sinf' Scientific Inferiors lookup 3-1" seveninferior
Substitution2: "'frac' Diagonal Fractions lookup 13-1" seven.numerator
Substitution2: "'smcp' Lowercase to Small Capitals lookup 16-1" seven.smcp
EndChar

StartChar: percent
Encoding: 37 37 146
Width: 985
VWidth: 0
Flags: HW
HStem: 3 15<597.118 814.295> 349 15<167.906 385.083> 371 15<652.036 867.199> 717 15<223.433 438.954>
DStem2: 115 474 130 474 0.155963 0.987763<-52.1515 193.457> 225 0 246 0 0.60348 0.797378<12.6731 918.009> 457 474 472 474 0.155963 0.987763<-56.4893 189.182> 545 128 560 128 0.155963 0.987763<-52.1732 194.626> 887 128 902 128 0.155963 0.987763<-56.5137 189.139>
LayerCount: 2
Fore
SplineSet
560 128 m 2
 546 42 576 18 654 18 c 2
 755 18 l 2
 832 18 873 39 887 128 c 2
 908 261 l 2
 920 339 899 371 813 371 c 2
 712 371 l 2
 633 371 595 350 581 261 c 2
 560 128 l 2
545 128 m 2
 566 261 l 2
 579 346 611 386 712 386 c 2
 813 386 l 2
 911 386 936 346 923 261 c 2
 902 128 l 2
 889 43 856 3 755 3 c 2
 654 3 l 2
 556 3 532 43 545 128 c 2
225 0 m 1
 779 732 l 1
 800 732 l 1
 246 0 l 1
 225 0 l 1
130 474 m 2
 116 388 147 364 225 364 c 2
 326 364 l 2
 403 364 443 385 457 474 c 2
 478 607 l 2
 490 685 470 717 384 717 c 2
 283 717 l 2
 204 717 165 696 151 607 c 2
 130 474 l 2
115 474 m 2
 136 607 l 2
 149 692 183 732 284 732 c 2
 385 732 l 2
 483 732 506 692 493 607 c 2
 472 474 l 2
 459 389 427 349 326 349 c 2
 225 349 l 2
 127 349 102 389 115 474 c 2
EndSplineSet
Substitution2: "'smcp' Lowercase to Small Capitals lookup 16-1" percent.smcp
EndChar

StartChar: nine
Encoding: 57 57 147
Width: 636
VWidth: 0
Flags: HW
HStem: -6 24<181.322 418.414> 3 15<102 233.649> 327 25<218.205 478.987> 709 24<275.297 519.581>
DStem2: 150 478 174 473 0.148768 0.988872<-63.6482 173.125>
LayerCount: 2
Fore
SplineSet
174 473 m 1
 157 368 222 352 298 352 c 2
 575 352 l 1
 600 508 611 709 468 709 c 2
 348 709 l 2
 286 709 207 690 191 586 c 2
 174 473 l 1
100 3 m 1
 102 18 l 1
 368 18 l 2
 498 18 555 226 573 338 c 1
 486 328 364 327 290 327 c 0
 156 327 137 396 150 478 c 2
 168 589 l 2
 186 701 258 733 352 733 c 2
 468 733 l 2
 577 733 647 642 599 339 c 0
 558 81 463 -6 371 -6 c 0
 270 -6 160 -4 100 3 c 1
EndSplineSet
Substitution2: "'dnom' Denominators lookup 0 subtable" nine.denominator
Substitution2: "'sups' Superscript lookup 2 subtable" ninesuperior
Substitution2: "'onum' Oldstyle Figures in Latin lookup 5-1" nine.oldstyle
Substitution2: "'tnum' Tabular Numbers in Latin lookup 7-1" nine.tnum
Substitution2: "'numr' Numerators lookup 9 subtable" nine.numerator
Substitution2: "'sinf' Scientific Inferiors lookup 3-1" nineinferior
Substitution2: "'frac' Diagonal Fractions lookup 13-1" nine.numerator
Substitution2: "'smcp' Lowercase to Small Capitals lookup 16-1" nine.smcp
EndChar

StartChar: eight
Encoding: 56 56 148
Width: 644
VWidth: 0
Flags: HW
HStem: 0 24<210.864 453.213> 362 23<241.556 530.101> 713 24<302.702 562.281>
DStem2: 121 154 145 151 0.151701 0.988426<-54.32 152.006 291.971 498.242> 548 151 575 154 0.160893 0.986972<-59.7492 163.693 299.407 489.153>
LayerCount: 2
Fore
SplineSet
198 494 m 1
 182 393 256 385 322 385 c 2
 451 385 l 2
 548 385 597 448 604 494 c 2
 615 562 l 2
 632 672 587 713 494 713 c 2
 380 713 l 2
 271 713 223 666 208 562 c 2
 198 494 l 1
145 151 m 2
 130 58 198 24 283 24 c 2
 391 24 l 2
 452 24 533 55 548 151 c 2
 565 256 l 2
 582 362 504 362 454 362 c 2
 321 362 l 2
 275 362 175 338 162 256 c 2
 145 151 l 2
121 154 m 2
 136 253 l 2
 148 329 215 366 254 366 c 1
 170 381 167 453 175 506 c 2
 185 571 l 2
 206 705 279 737 382 737 c 2
 498 737 l 2
 610 737 658 680 639 557 c 2
 629 492 l 2
 620 438 575 384 518 380 c 1
 585 360 600 315 590 252 c 2
 575 154 l 1
 554 24 458 0 394 0 c 2
 279 0 l 2
 107 0 115 113 121 154 c 2
EndSplineSet
Substitution2: "'dnom' Denominators lookup 0 subtable" eight.denominator
Substitution2: "'sups' Superscript lookup 2 subtable" eightsuperior
Substitution2: "'onum' Oldstyle Figures in Latin lookup 5-1" eight.oldstyle
Substitution2: "'tnum' Tabular Numbers in Latin lookup 7-1" eight.tnum
Substitution2: "'numr' Numerators lookup 9 subtable" eight.numerator
Substitution2: "'sinf' Scientific Inferiors lookup 3-1" eightinferior
Substitution2: "'frac' Diagonal Fractions lookup 13-1" eight.numerator
Substitution2: "'smcp' Lowercase to Small Capitals lookup 16-1" eight.smcp
EndChar

StartChar: quotesingle
Encoding: 39 39 149
Width: 132
VWidth: 0
Flags: HW
HStem: 531 201
VStem: 90 50
LayerCount: 2
Fore
SplineSet
90 531 m 1
 104 665 l 1
 115 732 l 1
 140 732 l 1
 129 665 l 1
 102 531 l 1
 90 531 l 1
EndSplineSet
Substitution2: "'smcp' Lowercase to Small Capitals lookup 16-1" quotesingle.smcp
EndChar

StartChar: onesuperior
Encoding: 185 185 150
Width: 276
VWidth: 100
Flags: HW
HStem: 756 11<116 156.348>
VStem: 115 177
DStem2: 198 356 216 356 0.157023 0.987595<2.82642 456.554>
LayerCount: 2
Fore
SplineSet
115 756 m 1
 116 767 l 1
 196 767 274 834 274 834 c 1
 292 834 l 1
 216 356 l 1
 198 356 l 1
 269 807 l 1
 252 794 192 756 115 756 c 1
EndSplineSet
EndChar

StartChar: twosuperior
Encoding: 178 178 151
Width: 397
VWidth: 100
Flags: HW
HStem: 356 18<115 384> 820 18<150.125 376.582> 820 11<145 269.915>
LayerCount: 2
Fore
SplineSet
75 356 m 1
 77 370 l 1
 153 424 403 593 420 699 c 0
 431 768 418 820 322 820 c 2
 145 820 l 2
 143 820 146 832 147 831 c 1
 214 839 259 838 331 838 c 0
 429 838 453 773 440 695 c 0
 421 582 157 405 115 374 c 1
 387 374 l 1
 384 356 l 1
 75 356 l 1
EndSplineSet
EndChar

StartChar: threesuperior
Encoding: 179 179 152
Width: 426
VWidth: 100
Flags: HW
HStem: 352 18<88.2506 319.577> 363 7<77 94.894> 592 10<154 304.746> 815 18<156.481 389.609> 815 10<145 182.035>
DStem2: 388 475 405 469 0.156163 0.987731<-55.4545 56.3553 181.219 294.97>
LayerCount: 2
Fore
SplineSet
76 363 m 1
 77 370 l 1
 252 370 l 2
 334 370 375 393 388 475 c 1
 391 498 l 1
 400 558 347 587 295 588 c 2
 152 592 l 1
 154 602 l 1
 291 606 l 2
 353 608 417 639 423 689 c 2
 427 725 l 1
 439 800 387 815 337 815 c 2
 144 815 l 1
 145 825 l 1
 192 834 265 833 341 833 c 0
 428 833 454 782 445 722 c 2
 439 684 l 2
 431 627 366 599 342 597 c 1
 363 593 419 562 410 499 c 1
 405 469 l 2
 394 398 359 352 260 352 c 0
 186 352 117 354 76 363 c 1
EndSplineSet
EndChar

StartChar: ordmasculine
Encoding: 186 186 153
Width: 367
VWidth: 0
Flags: HW
HStem: 291 13<85 362> 373 16<171.368 309.387> 721 16<217.655 357.027>
LayerCount: 2
Fore
SplineSet
128 550 m 0
 108 423 129 389 238 389 c 0
 340 389 375 414 396 550 c 0
 418 686 402 721 290 721 c 0
 185 721 151 697 128 550 c 0
112 555 m 0
 135 697 166 737 293 737 c 0
 420 737 435 687 412 545 c 0
 392 417 362 373 235 373 c 0
 108 373 92 427 112 555 c 0
83 291 m 1
 85 304 l 1
 364 304 l 1
 362 291 l 1
 83 291 l 1
EndSplineSet
Ligature2: "'ordn' Ordinals lookup 21-1" o
Substitution2: "'smcp' Lowercase to Small Capitals lookup 16-1" ordmasculine.smcp
EndChar

StartChar: ordfeminine
Encoding: 170 170 154
Width: 337
VWidth: 0
Flags: HW
HStem: 291 13<74 351> 377 16<183.836 269.519>
VStem: 351 10<381 425.979>
DStem2: 356 451 361 381 0.143895 0.989593<-21.2875 236.926>
LayerCount: 2
Fore
SplineSet
124 560 m 0
 108 460 147 393 223 393 c 0
 269 393 313 417 356 451 c 1
 391 679 l 1
 379 696 328 718 269 716 c 0
 182 714 139 656 124 560 c 0
108 565 m 0
 130 709 213 728 261 732 c 0
 324 737 376 718 408 683 c 1
 361 381 l 1
 351 381 l 1
 353 437 l 1
 323 401 270 377 220 377 c 0
 162 377 86 417 108 565 c 0
72 291 m 1
 74 304 l 1
 353 304 l 1
 351 291 l 1
 72 291 l 1
EndSplineSet
Ligature2: "'ordn' Ordinals lookup 21-1" a
Substitution2: "'smcp' Lowercase to Small Capitals lookup 16-1" ordfeminine.smcp
EndChar

StartChar: slash
Encoding: 47 47 155
Width: 291
VWidth: 0
Flags: HW
DStem2: 8 -72 30 -72 0.441235 0.897391<9.70718 938.275>
LayerCount: 2
Fore
SplineSet
8 -72 m 1
 422 770 l 1
 444 770 l 1
 30 -72 l 1
 8 -72 l 1
EndSplineSet
Substitution2: "'numr' Numerators lookup 9 subtable" fraction
Substitution2: "'frac' Diagonal Fractions lookup 12-1" fraction
EndChar

StartChar: backslash
Encoding: 92 92 156
Width: 432
VWidth: 0
Flags: HW
VStem: 141 167
DStem2: 160 770 141 770 0.173118 -0.984901<0 851.619>
LayerCount: 2
Fore
SplineSet
141 770 m 1
 160 770 l 1
 308 -72 l 1
 289 -72 l 1
 141 770 l 1
EndSplineSet
EndChar

StartChar: bar
Encoding: 124 124 157
Width: 215
VWidth: 0
Flags: HW
VStem: 74 157
DStem2: 74 -72 98 -72 0.156023 0.987753<3.74455 852.439>
LayerCount: 2
Fore
SplineSet
74 -72 m 1
 207 770 l 1
 231 770 l 1
 98 -72 l 1
 74 -72 l 1
EndSplineSet
EndChar

StartChar: underscore
Encoding: 95 95 158
Width: 648
VWidth: 0
Flags: HW
HStem: -1 24<23 623>
LayerCount: 2
Fore
SplineSet
19 -1 m 1
 23 23 l 1
 627 23 l 1
 623 -1 l 1
 19 -1 l 1
EndSplineSet
EndChar

StartChar: hyphen
Encoding: 45 45 159
Width: 331
VWidth: 0
Flags: HW
HStem: 278 24<64 344>
VStem: 60 288
LayerCount: 2
Fore
SplineSet
60 278 m 1
 64 302 l 1
 348 302 l 1
 344 278 l 1
 60 278 l 1
EndSplineSet
Substitution2: "'case' Case-Sensitive Forms lookup 1-1" hyphen.alt
Substitution2: "'c2sc' Capitals to Small Capitals in Latin lookup 17 subtable" hyphen.smcp
Substitution2: "'smcp' Lowercase to Small Capitals lookup 16-1" hyphen.smcp
EndChar

StartChar: numbersign
Encoding: 35 35 160
Width: 631
VWidth: 0
Flags: HW
HStem: 0 21G<155 173.32 353 371.345> 250 12<60 234 251 432 448 621> 467 12<129 303 319 500 517 690> 712 20G<381.597 400 578.676 597>
DStem2: 155 0 167 0 0.303311 0.952892<3.63973 262.184 278.775 489.89 506.178 768.188> 353 0 365 0 0.302128 0.953267<3.62554 261.232 277.505 489.589 506.164 767.885>
LayerCount: 2
Fore
SplineSet
251 262 m 1
 436 261 l 1
 500 467 l 1
 315 467 l 1
 251 262 l 1
56 250 m 1
 60 262 l 1
 239 262 l 1
 303 467 l 1
 124 467 l 1
 129 479 l 1
 307 479 l 1
 388 732 l 1
 400 732 l 1
 319 479 l 1
 505 479 l 1
 585 732 l 1
 597 732 l 1
 517 479 l 1
 694 479 l 1
 690 467 l 1
 512 467 l 1
 448 261 l 1
 625 261 l 1
 621 249 l 1
 444 249 l 1
 365 0 l 1
 353 0 l 1
 432 249 l 1
 246 250 l 1
 167 0 l 1
 155 0 l 1
 234 250 l 1
 56 250 l 1
EndSplineSet
Substitution2: "'smcp' Lowercase to Small Capitals lookup 16-1" numbersign.smcp
EndChar

StartChar: dollar
Encoding: 36 36 161
Width: 574
VWidth: 0
Flags: HW
HStem: -7 23<119.135 269 287 397.631> 347 24<211.982 468.468> 715 23<281.572 387 405 521.422>
DStem2: 139 494 163 494 0.12558 0.992083<-63.4186 131.283> 256 -88 274 -88 0.155963 0.987763<2.80733 82.0363 838.143 923.298> 499 156 523 156 0.145494 0.989359<-66.2584 138.96>
LayerCount: 2
Fore
SplineSet
80 7 m 1
 82 22 l 1
 125 18 213 16 306 16 c 0
 403 16 481 39 499 156 c 2
 509 224 l 1
 524 316 491 347 391 347 c 2
 289 347 l 2
 134 347 129 432 139 494 c 2
 150 560 l 1
 173 706 252 738 387 738 c 1
 400 824 l 1
 418 824 l 1
 405 737 l 1
 462 734 541 725 580 719 c 1
 578 706 l 1
 515 710 386 715 386 715 c 2
 272 720 195 694 174 560 c 1
 163 494 l 2
 147 394 203 371 291 371 c 2
 395 371 l 2
 528 371 546 306 533 224 c 2
 523 156 l 1
 500 8 395 -10 287 -8 c 1
 274 -88 l 1
 256 -88 l 1
 269 -7 l 1
 210 -5 116 0 80 7 c 1
EndSplineSet
Substitution2: "'smcp' Lowercase to Small Capitals lookup 16-1" dollar.smcp
EndChar

StartChar: zerosuperior
Encoding: 263 8304 162
Width: 483
VWidth: 100
Flags: HW
HStem: 355 18<136.672 366.447> 812 18<207.525 425.369>
DStem2: 90 468 108 469 0.154968 0.98792<-50.3948 306.457> 419 469 437 459 0.154968 0.98792<-59.9838 302.074>
LayerCount: 2
Fore
SplineSet
108 469 m 2
 95 389 127 373 196 373 c 2
 305 373 l 2
 389 373 408 402 419 469 c 2
 458 716 l 2
 468 779 449 812 375 812 c 2
 266 812 l 2
 193 812 158 788 147 716 c 2
 108 469 l 2
90 468 m 2
 130 723 l 2
 143 807 194 830 265 830 c 2
 382 830 l 2
 465 830 488 781 477 714 c 2
 437 459 l 2
 422 363 370 355 306 355 c 2
 189 355 l 2
 130 355 74 368 90 468 c 2
EndSplineSet
EndChar

StartChar: foursuperior
Encoding: 264 8308 163
Width: 486
VWidth: 100
Flags: HW
HStem: 522 19<145 404 425 460.818> 533 8<444.182 483>
DStem2: 115 532 145 541 0.62245 0.782659<25.7174 380.753> 378 356 396 356 0.156249 0.987718<2.81248 168.024 190.071 309.898>
LayerCount: 2
Fore
SplineSet
115 532 m 1
 352 830 l 1
 375 830 l 1
 145 541 l 1
 407 541 l 1
 427 662 l 1
 443 710 l 1
 452 710 l 1
 425 541 l 1
 484 541 l 1
 483 533 l 1
 422 522 l 1
 396 356 l 1
 378 356 l 1
 404 522 l 1
 117 522 l 1
 115 532 l 1
EndSplineSet
EndChar

StartChar: fivesuperior
Encoding: 265 8309 164
Width: 422
VWidth: 100
Flags: HW
HStem: 351 19<107.456 342.559> 358 12<81 289.191> 611 18<186.248 388.756> 812 18<182 461>
DStem2: 108 538 126 538 0.187303 0.982302<3.37146 283.011> 403 469 420 465 0.154377 0.988012<-49.7067 108.516>
LayerCount: 2
Fore
SplineSet
79 358 m 1
 81 370 l 1
 292 370 l 2
 353 370 392 401 403 469 c 1
 411 525 l 2
 419 575 418 611 334 611 c 2
 224 611 l 2
 178 611 133 575 126 538 c 1
 108 538 l 1
 169 830 l 1
 464 830 l 1
 461 812 l 1
 182 812 l 1
 133 580 l 1
 171 641 253 629 335 629 c 0
 412 629 441 600 430 529 c 2
 420 465 l 2
 407 383 356 351 293 351 c 0
 212 351 114 352 79 358 c 1
EndSplineSet
EndChar

StartChar: sixsuperior
Encoding: 266 8310 165
Width: 426
VWidth: 100
Flags: HW
HStem: 355 18<158.219 355.016> 594 18<165.907 403.913> 817 18<224.857 469>
DStem2: 410 460 428 457 0.177683 0.984088<-47.1506 107.601>
LayerCount: 2
Fore
SplineSet
123 594 m 1
 95 418 131 373 202 373 c 2
 309 373 l 2
 367 373 400 404 410 460 c 2
 423 532 l 1
 432 589 397 594 343 594 c 2
 123 594 l 1
107 605 m 0
 140 802 200 833 265 835 c 0
 332 837 430 835 471 829 c 1
 469 817 l 1
 264 817 l 2
 180 817 145 728 125 605 c 1
 181 611 301 612 349 612 c 0
 437 612 448 579 440 528 c 2
 428 457 l 2
 416 385 374 355 313 355 c 2
 199 355 l 2
 127 355 71 392 107 605 c 0
EndSplineSet
EndChar

StartChar: sevensuperior
Encoding: 267 8311 166
Width: 440
VWidth: 100
Flags: HW
HStem: 814 18<127 439>
DStem2: 184 356 205 356 0.485482 0.874247<10.1951 524.203>
LayerCount: 2
Fore
SplineSet
124 814 m 1
 127 832 l 1
 454 832 l 1
 461 817 l 1
 205 356 l 1
 184 356 l 1
 439 814 l 1
 124 814 l 1
EndSplineSet
EndChar

StartChar: eightsuperior
Encoding: 268 8312 167
Width: 419
VWidth: 100
Flags: HW
HStem: 354 18<168.285 385.737> 587 18<207.129 412.581> 817 18<241.828 449.41>
DStem2: 122 458 141 462 0.157698 0.987487<-43.2491 93.0703 192.638 321.311> 439 462 456 458 0.160676 0.987007<-51.9537 82.8459 185.781 308.931>
LayerCount: 2
Fore
SplineSet
176 682 m 2
 168 629 202 605 247 605 c 2
 378 605 l 2
 418 605 466 631 474 682 c 2
 479 714 l 2
 492 798 462 817 396 817 c 2
 299 817 l 2
 231 817 194 794 181 714 c 2
 176 682 l 2
141 462 m 2
 131 397 152 372 222 372 c 2
 334 372 l 2
 393 372 428 394 439 462 c 2
 447 512 l 2
 455 565 408 587 379 587 c 2
 254 587 l 2
 200 587 156 556 149 514 c 2
 141 462 l 2
122 458 m 2
 133 521 l 2
 141 569 190 591 217 592 c 1
 163 602 152 647 157 681 c 2
 164 721 l 1
 179 813 229 835 296 835 c 2
 406 835 l 2
 476 835 512 802 498 716 c 1
 491 676 l 2
 486 642 457 602 408 598 c 1
 440 592 473 561 466 516 c 2
 456 458 l 1
 443 374 397 354 342 354 c 2
 217 354 l 2
 125 354 113 404 122 458 c 2
EndSplineSet
EndChar

StartChar: ninesuperior
Encoding: 269 8313 168
Width: 507
VWidth: 100
Flags: HW
HStem: 356 18<140.38 366.064> 362 12<122 321.838> 579 18<185.699 424.307> 818 18<235.765 430.472>
DStem2: 151 661 169 659 0.143244 0.989687<-37.7567 116.153>
LayerCount: 2
Fore
SplineSet
169 659 m 2
 160 602 193 597 247 597 c 2
 467 597 l 1
 495 773 459 818 388 818 c 2
 282 818 l 2
 224 818 189 787 180 731 c 2
 169 659 l 2
120 362 m 1
 122 374 l 1
 327 374 l 2
 411 374 445 463 465 586 c 1
 409 580 291 579 243 579 c 0
 155 579 143 610 151 661 c 2
 162 737 l 2
 173 809 223 836 284 836 c 2
 389 836 l 2
 461 836 519 799 483 586 c 0
 450 389 390 358 325 356 c 0
 258 354 161 356 120 362 c 1
EndSplineSet
EndChar

StartChar: zeroinferior
Encoding: 270 8320 169
Width: 494
VWidth: -455
Flags: HW
HStem: -200 18<152.672 382.447> 257 18<223.525 441.369>
DStem2: 106 -87 124 -86 0.154968 0.98792<-50.3948 306.457> 435 -86 453 -96 0.154968 0.98792<-59.9838 302.074>
LayerCount: 2
Fore
SplineSet
124 -86 m 2
 111 -166 143 -182 212 -182 c 2
 321 -182 l 2
 405 -182 424 -153 435 -86 c 2
 474 161 l 2
 484 224 465 257 391 257 c 2
 282 257 l 2
 209 257 174 233 163 161 c 2
 124 -86 l 2
106 -87 m 2
 146 168 l 2
 159 252 210 275 281 275 c 2
 398 275 l 2
 481 275 504 226 493 159 c 2
 453 -96 l 2
 438 -192 386 -200 322 -200 c 2
 205 -200 l 2
 146 -200 90 -187 106 -87 c 2
EndSplineSet
EndChar

StartChar: oneinferior
Encoding: 271 8321 170
Width: 291
VWidth: -455
Flags: HW
HStem: 201 11<44 84.3481>
VStem: 43 177
DStem2: 126 -199 144 -199 0.157023 0.987595<2.82642 456.554>
LayerCount: 2
Fore
SplineSet
43 201 m 1
 44 212 l 1
 124 212 202 279 202 279 c 1
 220 279 l 1
 144 -199 l 1
 126 -199 l 1
 197 252 l 1
 180 239 120 201 43 201 c 1
EndSplineSet
EndChar

StartChar: twoinferior
Encoding: 272 8322 171
Width: 465
VWidth: -455
Flags: HW
HStem: -199 18<83 352> 265 18<118.125 344.582> 265 11<113 237.915>
LayerCount: 2
Fore
SplineSet
43 -199 m 1
 45 -185 l 1
 121 -131 371 38 388 144 c 0
 399 213 386 265 290 265 c 2
 113 265 l 2
 111 265 114 277 115 276 c 1
 182 284 227 283 299 283 c 0
 397 283 421 218 408 140 c 0
 389 27 125 -150 83 -181 c 1
 355 -181 l 1
 352 -199 l 1
 43 -199 l 1
EndSplineSet
EndChar

StartChar: threeinferior
Encoding: 273 8323 172
Width: 395
VWidth: -455
Flags: HW
HStem: -203 18<15.2506 246.577> -192 7<4 21.894> 37 10<81 231.746> 260 18<83.4807 316.609> 260 10<72 109.035>
DStem2: 315 -80 332 -86 0.156163 0.987731<-55.4545 56.3553 181.219 294.97>
LayerCount: 2
Fore
SplineSet
3 -192 m 1
 4 -185 l 1
 179 -185 l 2
 261 -185 302 -162 315 -80 c 1
 318 -57 l 1
 327 3 274 32 222 33 c 2
 79 37 l 1
 81 47 l 1
 218 51 l 2
 280 53 344 84 350 134 c 2
 354 170 l 1
 366 245 314 260 264 260 c 2
 71 260 l 1
 72 270 l 1
 119 279 192 278 268 278 c 0
 355 278 381 227 372 167 c 2
 366 129 l 2
 358 72 293 44 269 42 c 1
 290 38 346 7 337 -56 c 1
 332 -86 l 2
 321 -157 286 -203 187 -203 c 0
 113 -203 44 -201 3 -192 c 1
EndSplineSet
EndChar

StartChar: fourinferior
Encoding: 274 8324 173
Width: 424
VWidth: -455
Flags: HW
HStem: -33 19<34 293 314 349.818> -22 8<333.182 372>
DStem2: 4 -23 34 -14 0.62245 0.782659<25.7174 380.753> 267 -199 285 -199 0.156249 0.987718<2.81248 168.024 190.071 309.898>
LayerCount: 2
Fore
SplineSet
4 -23 m 1
 241 275 l 1
 264 275 l 1
 34 -14 l 1
 296 -14 l 1
 316 107 l 1
 332 155 l 1
 341 155 l 1
 314 -14 l 1
 373 -14 l 1
 372 -22 l 1
 311 -33 l 1
 285 -199 l 1
 267 -199 l 1
 293 -33 l 1
 6 -33 l 1
 4 -23 l 1
EndSplineSet
EndChar

StartChar: fiveinferior
Encoding: 275 8325 174
Width: 420
VWidth: -455
Flags: HW
HStem: -204 19<35.4557 270.559> -197 12<9 217.191> 56 18<114.248 316.756> 257 18<110 389>
DStem2: 36 -17 54 -17 0.187303 0.982302<3.37146 283.011> 331 -86 348 -90 0.154377 0.988012<-49.7067 108.516>
LayerCount: 2
Fore
SplineSet
7 -197 m 1
 9 -185 l 1
 220 -185 l 2
 281 -185 320 -154 331 -86 c 1
 339 -30 l 2
 347 20 346 56 262 56 c 2
 152 56 l 2
 106 56 61 20 54 -17 c 1
 36 -17 l 1
 97 275 l 1
 392 275 l 1
 389 257 l 1
 110 257 l 1
 61 25 l 1
 99 86 181 74 263 74 c 0
 340 74 369 45 358 -26 c 2
 348 -90 l 2
 335 -172 284 -204 221 -204 c 0
 140 -204 42 -203 7 -197 c 1
EndSplineSet
EndChar

StartChar: sixinferior
Encoding: 276 8326 175
Width: 424
VWidth: -455
Flags: HW
HStem: -200 18<86.2193 283.016> 39 18<93.9071 331.913> 262 18<152.857 397>
DStem2: 338 -95 356 -98 0.177683 0.984088<-47.1506 107.601>
LayerCount: 2
Fore
SplineSet
51 39 m 1
 23 -137 59 -182 130 -182 c 2
 237 -182 l 2
 295 -182 328 -151 338 -95 c 2
 351 -23 l 1
 360 34 325 39 271 39 c 2
 51 39 l 1
35 50 m 0
 68 247 128 278 193 280 c 0
 260 282 358 280 399 274 c 1
 397 262 l 1
 192 262 l 2
 108 262 73 173 53 50 c 1
 109 56 229 57 277 57 c 0
 365 57 376 24 368 -27 c 2
 356 -98 l 2
 344 -170 302 -200 241 -200 c 2
 127 -200 l 2
 55 -200 -1 -163 35 50 c 0
EndSplineSet
EndChar

StartChar: seveninferior
Encoding: 277 8327 176
Width: 439
VWidth: -455
Flags: HW
HStem: 259 18<55 367>
DStem2: 112 -199 133 -199 0.485482 0.874247<10.1951 524.203>
LayerCount: 2
Fore
SplineSet
52 259 m 1
 55 277 l 1
 382 277 l 1
 389 262 l 1
 133 -199 l 1
 112 -199 l 1
 367 259 l 1
 52 259 l 1
EndSplineSet
EndChar

StartChar: eightinferior
Encoding: 278 8328 177
Width: 421
VWidth: -455
Flags: HW
HStem: -201 18<96.2848 313.737> 32 18<135.129 340.581> 262 18<169.828 377.41>
DStem2: 50 -97 69 -93 0.157698 0.987487<-43.2491 93.0703 192.638 321.311> 367 -93 384 -97 0.160676 0.987007<-51.9538 82.8459 185.781 308.931>
LayerCount: 2
Fore
SplineSet
104 127 m 2
 96 74 130 50 175 50 c 2
 306 50 l 2
 346 50 394 76 402 127 c 2
 407 159 l 2
 420 243 390 262 324 262 c 2
 227 262 l 2
 159 262 122 239 109 159 c 2
 104 127 l 2
69 -93 m 2
 59 -158 80 -183 150 -183 c 2
 262 -183 l 2
 321 -183 356 -161 367 -93 c 2
 375 -43 l 2
 383 10 336 32 307 32 c 2
 182 32 l 2
 128 32 84 1 77 -41 c 2
 69 -93 l 2
50 -97 m 2
 61 -34 l 2
 69 14 118 36 145 37 c 1
 91 47 80 92 85 126 c 2
 92 166 l 1
 107 258 157 280 224 280 c 2
 334 280 l 2
 404 280 440 247 426 161 c 1
 419 121 l 2
 414 87 385 47 336 43 c 1
 368 37 401 6 394 -39 c 2
 384 -97 l 1
 371 -181 325 -201 270 -201 c 2
 145 -201 l 2
 53 -201 41 -151 50 -97 c 2
EndSplineSet
EndChar

StartChar: nineinferior
Encoding: 279 8329 178
Width: 504
VWidth: -455
Flags: HW
HStem: -199 18<68.38 294.064> -193 12<50 249.838> 24 18<113.699 352.307> 263 18<163.765 358.472>
DStem2: 79 106 97 104 0.143244 0.989687<-37.7567 116.153>
LayerCount: 2
Fore
SplineSet
97 104 m 2
 88 47 121 42 175 42 c 2
 395 42 l 1
 423 218 387 263 316 263 c 2
 210 263 l 2
 152 263 117 232 108 176 c 2
 97 104 l 2
48 -193 m 1
 50 -181 l 1
 255 -181 l 2
 339 -181 373 -92 393 31 c 1
 337 25 219 24 171 24 c 0
 83 24 71 55 79 106 c 2
 90 182 l 2
 101 254 151 281 212 281 c 2
 317 281 l 2
 389 281 447 244 411 31 c 0
 378 -166 318 -197 253 -199 c 0
 186 -201 89 -199 48 -193 c 1
EndSplineSet
EndChar

StartChar: zero.oldstyle
Encoding: 280 -1 179
Width: 627
VWidth: 0
Flags: HW
HStem: 0 24<183.288 454.415> 607 24<272.156 540.149>
DStem2: 99 162 123 162 0.154475 0.987997<-58.8054 375.503> 548 162 572 162 0.154475 0.987997<-69.1951 375.645>
LayerCount: 2
Fore
SplineSet
123 162 m 2
 109 70 159 24 249 24 c 2
 383 24 l 2
 487 24 535 77 548 162 c 2
 596 469 l 2
 610 559 571 607 475 607 c 2
 341 607 l 2
 252 607 185 557 171 469 c 2
 123 162 l 2
99 162 m 2
 147 469 l 2
 164 577 245 631 340 631 c 2
 474 631 l 2
 601 631 634 556 620 469 c 2
 572 162 l 2
 553 43 483 0 384 0 c 2
 252 0 l 2
 161 0 80 42 99 162 c 2
EndSplineSet
Substitution2: "'tnum' Tabular Numbers in Latin lookup 7-1" zero.tosf
Substitution2: "'lnum' Lining Figures lookup 19-1" zero
EndChar

StartChar: one.oldstyle
Encoding: 281 -1 180
Width: 385
VWidth: 0
Flags: HW
HStem: 0 21G<226 253.07> 525 15<96 149.33>
VStem: 92 255
DStem2: 226 0 250 0 0.151705 0.988426<3.64091 609.444>
LayerCount: 2
Fore
SplineSet
92 525 m 1
 96 540 l 1
 196 540 325 632 325 632 c 1
 347 632 l 1
 250 0 l 1
 226 0 l 1
 321 602 l 1
 287 579 188 525 92 525 c 1
EndSplineSet
Substitution2: "'tnum' Tabular Numbers in Latin lookup 7-1" one.tosf
Substitution2: "'lnum' Lining Figures lookup 19-1" one
EndChar

StartChar: two.oldstyle
Encoding: 282 -1 181
Width: 612
VWidth: 0
Flags: HW
HStem: 0 24<123 533> 615 23<249.749 503.13> 615 13<162 218.052>
LayerCount: 2
Fore
SplineSet
68 0 m 1
 72 23 l 1
 172 71 561 298 586 453 c 0
 605 575 529 615 421 615 c 2
 160 615 l 1
 162 628 l 1
 214 636 322 643 436 638 c 1
 576 638 628 559 610 446 c 0
 584 281 188 54 123 24 c 1
 537 24 l 1
 533 0 l 1
 68 0 l 1
EndSplineSet
Substitution2: "'tnum' Tabular Numbers in Latin lookup 7-1" two.tosf
Substitution2: "'lnum' Lining Figures lookup 19-1" two
EndChar

StartChar: three.oldstyle
Encoding: 283 -1 182
Width: 581
VWidth: 0
Flags: HW
HStem: -108 25<128.373 401.109> -97 14<50 120.02> 251 27<167 439.266> 258 14<167 377> 609 24<256.403 503.856> 609 14<155 213.972>
DStem2: 499 60 525 57 0.159689 0.987167<-73.1749 111.998 286.203 477.516>
LayerCount: 2
Fore
SplineSet
47 -97 m 1
 50 -83 l 1
 323 -83 l 2
 402 -83 480 -57 499 60 c 1
 508 119 l 2
 524 219 434 249 377 251 c 2
 165 258 l 1
 167 272 l 1
 381 278 l 1
 459 279 542 314 555 399 c 2
 565 468 l 1
 581 567 521 609 439 609 c 2
 153 609 l 1
 155 623 l 1
 217 634 328 635 445 633 c 0
 564 631 605 556 590 464 c 2
 579 393 l 1
 561 288 467 266 437 264 c 1
 468 259 550 220 534 116 c 2
 525 57 l 2
 508 -52 442 -108 320 -108 c 0
 206 -108 85 -105 47 -97 c 1
EndSplineSet
Substitution2: "'tnum' Tabular Numbers in Latin lookup 7-1" three.tosf
Substitution2: "'lnum' Lining Figures lookup 19-1" three
EndChar

StartChar: four.oldstyle
Encoding: 284 -1 183
Width: 584
VWidth: 0
Flags: HW
HStem: 112 24<73 447 475 535.4> 122 14<498.6 563>
DStem2: 44 137 73 136 0.613941 0.789352<17.0149 627.096> 414 -98 438 -98 0.155869 0.987778<3.74087 212.577 240.648 553.302>
LayerCount: 2
Fore
SplineSet
44 137 m 1
 429 632 l 1
 456 632 l 1
 73 136 l 1
 451 136 l 1
 488 372 l 1
 510 447 l 1
 524 447 l 1
 475 136 l 1
 565 136 l 1
 563 122 l 1
 471 112 l 1
 438 -98 l 1
 414 -98 l 1
 447 112 l 1
 52 112 l 1
 44 137 l 1
EndSplineSet
Substitution2: "'tnum' Tabular Numbers in Latin lookup 7-1" four.tosf
Substitution2: "'lnum' Lining Figures lookup 19-1" four
EndChar

StartChar: five.oldstyle
Encoding: 285 -1 184
Width: 610
VWidth: 0
Flags: HW
HStem: -104 24<180.853 427.321> -94 14<71 149.403> 307 24<234.203 502.532> 608 24<226 626>
DStem2: 114 182 155 265 0.20239 0.979305<89.5803 439.852> 538 68 561 66 0.159546 0.98719<-62.1916 164.555>
LayerCount: 2
Fore
SplineSet
69 -94 m 1
 71 -80 l 1
 368 -80 l 2
 438 -80 522 -32 538 68 c 2
 553 163 l 2
 561 213 567 307 441 307 c 2
 288 307 l 2
 220 307 148 248 138 182 c 1
 114 182 l 1
 207 632 l 1
 630 632 l 1
 626 608 l 1
 226 608 l 1
 155 265 l 1
 166 280 211 331 288 331 c 0
 361 331 409 331 440 331 c 0
 558 331 592 262 577 165 c 2
 561 66 l 2
 539 -71 433 -104 371 -104 c 0
 247 -104 139 -104 69 -94 c 1
EndSplineSet
Substitution2: "'tnum' Tabular Numbers in Latin lookup 7-1" five.tosf
Substitution2: "'lnum' Lining Figures lookup 19-1" five
EndChar

StartChar: six.oldstyle
Encoding: 286 -1 185
Width: 606
VWidth: 0
Flags: HW
HStem: -1 24<221.262 461.688> 380 25<250.66 518.858> 714 24<318.586 554.973> 714 15<502.922 634>
DStem2: 543 146 568 148 0.116246 0.99322<-58.4896 189.755>
LayerCount: 2
Fore
SplineSet
161 380 m 1
 136 224 129 23 273 23 c 2
 392 23 l 2
 454 23 526 42 543 146 c 2
 560 252 l 2
 577 357 527 380 443 380 c 2
 161 380 l 1
138 384 m 0
 179 642 274 738 366 738 c 0
 467 738 576 736 636 729 c 1
 634 714 l 1
 368 714 l 2
 241 714 181 506 163 394 c 1
 250 404 365 405 439 405 c 0
 573 405 599 341 586 259 c 2
 568 148 l 2
 550 36 492 -1 398 -1 c 2
 274 -1 l 2
 165 -1 90 81 138 384 c 0
EndSplineSet
Substitution2: "'tnum' Tabular Numbers in Latin lookup 7-1" six.tosf
Substitution2: "'lnum' Lining Figures lookup 19-1" six
EndChar

StartChar: seven.oldstyle
Encoding: 287 -1 186
Width: 578
VWidth: 0
Flags: HW
HStem: 608 24<133 555>
DStem2: 205 -100 233 -100 0.442655 0.896692<12.3943 789.787>
LayerCount: 2
Fore
SplineSet
129 608 m 1
 133 632 l 1
 571 632 l 1
 583 609 l 1
 233 -100 l 1
 205 -100 l 1
 555 608 l 1
 129 608 l 1
EndSplineSet
Substitution2: "'tnum' Tabular Numbers in Latin lookup 7-1" seven.tosf
Substitution2: "'lnum' Lining Figures lookup 19-1" seven
EndChar

StartChar: eight.oldstyle
Encoding: 288 -1 187
Width: 610
VWidth: 0
Flags: HW
HStem: 0 24<210.864 453.213> 362 23<241.556 530.101> 713 24<302.702 562.281>
DStem2: 121 154 145 151 0.151701 0.988426<-54.32 152.006 291.971 498.242> 548 151 575 154 0.160893 0.986972<-59.7492 163.693 299.407 489.153>
LayerCount: 2
Fore
SplineSet
198 494 m 1
 182 393 256 385 322 385 c 2
 451 385 l 2
 548 385 597 448 604 494 c 2
 615 562 l 2
 632 672 587 713 494 713 c 2
 380 713 l 2
 271 713 223 666 208 562 c 2
 198 494 l 1
145 151 m 2
 130 58 198 24 283 24 c 2
 391 24 l 2
 452 24 533 55 548 151 c 2
 565 256 l 2
 582 362 504 362 454 362 c 2
 321 362 l 2
 275 362 175 338 162 256 c 2
 145 151 l 2
121 154 m 2
 136 253 l 2
 148 329 215 366 254 366 c 1
 170 381 167 453 175 506 c 2
 185 571 l 2
 206 705 279 737 382 737 c 2
 498 737 l 2
 610 737 658 680 639 557 c 2
 629 492 l 2
 620 438 575 384 518 380 c 1
 585 360 600 315 590 252 c 2
 575 154 l 1
 554 24 458 0 394 0 c 2
 279 0 l 2
 107 0 115 113 121 154 c 2
EndSplineSet
Substitution2: "'tnum' Tabular Numbers in Latin lookup 7-1" eight.tosf
Substitution2: "'lnum' Lining Figures lookup 19-1" eight
EndChar

StartChar: nine.oldstyle
Encoding: 289 -1 188
Width: 634
VWidth: 0
Flags: HW
HStem: -106 24<177.322 414.414> -97 15<98 229.649> 227 25<214.205 474.987> 609 24<271.297 515.581>
DStem2: 146 378 170 373 0.148768 0.988872<-63.6482 173.125>
LayerCount: 2
Fore
SplineSet
170 373 m 1
 153 268 218 252 294 252 c 2
 571 252 l 1
 596 408 607 609 464 609 c 2
 344 609 l 2
 282 609 203 590 187 486 c 2
 170 373 l 1
96 -97 m 1
 98 -82 l 1
 364 -82 l 2
 494 -82 551 126 569 238 c 1
 482 228 360 227 286 227 c 0
 152 227 133 296 146 378 c 2
 164 489 l 2
 182 601 254 633 348 633 c 2
 464 633 l 2
 573 633 643 542 595 239 c 0
 554 -19 459 -106 367 -106 c 0
 266 -106 156 -104 96 -97 c 1
EndSplineSet
Substitution2: "'tnum' Tabular Numbers in Latin lookup 7-1" nine.tosf
Substitution2: "'lnum' Lining Figures lookup 19-1" nine
EndChar

StartChar: ampersand
Encoding: 38 38 189
Width: 688
VWidth: 0
Flags: HW
HStem: 0 21G<515.748 552> 710 14<475.337 585>
DStem2: 172 366 192 353 0.79901 0.601317<-82.3505 118.962> 238 538 220 524 0.504071 -0.863662<-62.6538 101.129 124.451 454.707 480.688 610.831> 361 60 378 44 0.772632 0.634855<-62.7017 108.868 133.681 253.809>
LayerCount: 2
Fore
SplineSet
109 97 m 0
 158 14 274 -11 361 60 c 2
 447 130 l 1
 281 419 l 1
 192 353 l 2
 90 277 57 185 109 97 c 0
91 82 m 0
 29 182 73 292 172 366 c 2
 269 439 l 1
 220 524 l 2
 151 643 218 708 299 726 c 0
 359 739 516 730 587 724 c 1
 585 710 l 1
 372 710 l 2
 242 710 174 650 238 538 c 2
 465 144 l 1
 647 295 l 1
 654 287 l 1
 572 203 l 1
 478 125 l 1
 552 0 l 1
 528 0 l 1
 460 111 l 1
 378 44 l 2
 292 -26 156 -23 91 82 c 0
EndSplineSet
AlternateSubs2: "'salt' Access All Alternates in Latin lookup 4-1" ampersand.salt
Substitution2: "'smcp' Lowercase to Small Capitals lookup 16-1" ampersand.smcp
EndChar

StartChar: asterisk
Encoding: 42 42 190
Width: 483
VWidth: 0
Flags: HW
HStem: 592 14<141 281>
LayerCount: 2
Fore
SplineSet
348 552 m 1
 473 635 l 1
 480 623 l 1
 363 533 l 1
 348 552 l 1
298 723 m 1
 312 727 l 1
 359 604 l 1
 334 593 l 1
 298 723 l 1
295 495 m 1
 311 518 l 1
 416 435 l 1
 406 424 l 1
 295 495 l 1
191 409 m 1
 245 543 l 1
 270 539 l 1
 203 405 l 1
 191 409 l 1
139 592 m 1
 141 606 l 1
 284 610 l 1
 281 586 l 1
 139 592 l 1
EndSplineSet
Substitution2: "'smcp' Lowercase to Small Capitals lookup 16-1" asterisk.smcp
EndChar

StartChar: Euro
Encoding: 290 8364 191
Width: 728
VWidth: 0
Flags: HW
HStem: -6 24<285.391 522.764> 268 21<72 157 185 466> 430 20<98 183 210 492> 716 24<384.365 627.056>
DStem2: 157 268 181 268 0.157356 0.987542<-89.0671 0 25.1443 164.073 188.072 310.735>
LayerCount: 2
Fore
SplineSet
70 272 m 1
 72 286 l 1
 161 289 l 1
 183 430 l 1
 96 433 l 1
 98 446 l 1
 186 450 l 1
 197 522 222 740 466 740 c 0
 518 740 610 733 678 720 c 1
 676 706 l 1
 676 706 548 717 465 716 c 0
 278 715 232 586 210 450 c 1
 494 447 l 1
 492 433 l 1
 207 430 l 1
 185 289 l 1
 468 285 l 1
 466 271 l 1
 466 271 178 270 181 268 c 1
 155 119 217 21 352 18 c 0
 461 15 573 30 573 30 c 1
 570 15 l 1
 486 -4 439 -6 354 -6 c 0
 276 -6 122 28 157 268 c 1
 70 272 l 1
EndSplineSet
Substitution2: "'smcp' Lowercase to Small Capitals lookup 16-1" Euro.smcp
EndChar

StartChar: parenleft
Encoding: 40 40 192
Width: 275
VWidth: 120
Flags: HW
LayerCount: 2
Fore
SplineSet
126 396 m 0
 169 670 369 920 369 920 c 1
 394 920 l 1
 394 920 191 658 148 386 c 0
 100 86 226 -150 226 -150 c 1
 200 -150 l 1
 200 -150 76 80 126 396 c 0
EndSplineSet
Substitution2: "'case' Case-Sensitive Forms lookup 1-1" parenleft.alt
Substitution2: "'c2sc' Capitals to Small Capitals in Latin lookup 17 subtable" parenleft.smcp
Substitution2: "'smcp' Lowercase to Small Capitals lookup 16-1" parenleft.smcp
EndChar

StartChar: parenright
Encoding: 41 41 193
Width: 276
VWidth: 120
Flags: HW
LayerCount: 2
Fore
SplineSet
-13 -150 m 1
 -13 -150 186 86 234 386 c 0
 277 658 156 920 156 920 c 1
 181 920 l 1
 181 920 299 656 256 382 c 0
 206 66 15 -150 15 -150 c 1
 -13 -150 l 1
EndSplineSet
Substitution2: "'case' Case-Sensitive Forms lookup 1-1" parenright.alt
Substitution2: "'c2sc' Capitals to Small Capitals in Latin lookup 17 subtable" parenright.smcp
Substitution2: "'smcp' Lowercase to Small Capitals lookup 16-1" parenright.smcp
EndChar

StartChar: plus
Encoding: 43 43 194
Width: 524
VWidth: 0
Flags: HW
HStem: 344 24<104 281 309 486>
DStem2: 252 163 276 163 0.156094 0.987742<3.74626 183.308 211.385 390.79>
LayerCount: 2
Fore
SplineSet
100 344 m 1
 104 368 l 1
 285 368 l 1
 313 549 l 1
 337 549 l 1
 309 368 l 1
 490 368 l 1
 486 344 l 1
 305 344 l 1
 276 163 l 1
 252 163 l 1
 281 344 l 1
 100 344 l 1
EndSplineSet
EndChar

StartChar: endash
Encoding: 291 8211 195
Width: 432
VWidth: 0
Flags: HW
HStem: 275 25<64 533>
LayerCount: 2
Fore
SplineSet
60 275 m 1
 64 300 l 1
 537 300 l 1
 533 275 l 1
 60 275 l 1
EndSplineSet
Substitution2: "'case' Case-Sensitive Forms lookup 1-1" endash.alt
Substitution2: "'c2sc' Capitals to Small Capitals in Latin lookup 17 subtable" endash.smcp
Substitution2: "'smcp' Lowercase to Small Capitals lookup 16-1" endash.smcp
EndChar

StartChar: emdash
Encoding: 292 8212 196
Width: 741
VWidth: 0
Flags: HW
HStem: 277 25<63 755>
LayerCount: 2
Fore
SplineSet
59 277 m 1
 63 302 l 1
 759 302 l 1
 755 277 l 1
 59 277 l 1
EndSplineSet
Substitution2: "'case' Case-Sensitive Forms lookup 1-1" emdash.alt
Substitution2: "'c2sc' Capitals to Small Capitals in Latin lookup 17 subtable" emdash.smcp
Substitution2: "'smcp' Lowercase to Small Capitals lookup 16-1" emdash.smcp
EndChar

StartChar: less
Encoding: 60 60 197
Width: 472
VWidth: 0
Flags: HW
DStem2: 129 354 99 345 0.83777 -0.546023<0 342.801> 102 365 129 354 0.890605 0.454777<19.0438 405.908>
LayerCount: 2
Fore
SplineSet
99 345 m 1
 102 365 l 1
 478 557 l 1
 473 531 l 1
 129 354 l 1
 415 165 l 1
 412 141 l 1
 99 345 l 1
EndSplineSet
EndChar

StartChar: equal
Encoding: 61 61 198
Width: 462
VWidth: 0
Flags: HW
HStem: 212 24<57 480> 471 24<98 521>
LayerCount: 2
Fore
SplineSet
94 471 m 1
 98 495 l 1
 525 495 l 1
 521 471 l 1
 94 471 l 1
53 212 m 1
 57 236 l 1
 484 236 l 1
 480 212 l 1
 53 212 l 1
EndSplineSet
EndChar

StartChar: greater
Encoding: 62 62 199
Width: 473
VWidth: 0
Flags: HW
DStem2: 76 168 72 141 0.879495 0.475907<0 396.011> 138 557 134 534 0.853148 -0.52167<8.58582 348.334>
LayerCount: 2
Fore
SplineSet
72 141 m 1
 76 168 l 1
 424 357 l 1
 134 534 l 1
 138 557 l 1
 452 365 l 1
 449 345 l 1
 72 141 l 1
EndSplineSet
EndChar

StartChar: multiply
Encoding: 215 215 200
Width: 443
VWidth: 0
Flags: HW
HStem: 211 288
VStem: 93 330
DStem2: 93 228 107 211 0.756715 0.653745<0 195.673 219.1 417.075> 151 499 134 484 0.644308 -0.764766<0.518249 167.349 190.015 356.846>
LayerCount: 2
Fore
SplineSet
93 228 m 1
 241 356 l 1
 134 484 l 1
 151 499 l 1
 259 371 l 1
 409 501 l 1
 423 484 l 1
 273 354 l 1
 381 226 l 1
 363 211 l 1
 256 339 l 1
 107 211 l 1
 93 228 l 1
EndSplineSet
EndChar

StartChar: divide
Encoding: 247 247 201
Width: 556
VWidth: 0
Flags: HW
HStem: 147 66<270.611 302.406> 341 24<104 516> 483 66<323.688 355.42>
DStem2: 272 201 307 201 0.154217 0.988037<-51.9309 14.8251 288.132 354.849>
LayerCount: 2
Fore
SplineSet
319 494 m 2
 325 537 l 2
 326 545 331 549 339 549 c 2
 351 549 l 2
 359 549 361 544 360 537 c 2
 354 494 l 2
 353 486 347 483 340 483 c 2
 329 483 l 2
 322 483 318 487 319 494 c 2
266 159 m 2
 272 201 l 2
 273 209 278 213 286 213 c 2
 298 213 l 2
 306 213 308 208 307 201 c 2
 301 159 l 2
 300 151 294 147 287 147 c 2
 276 147 l 2
 269 147 265 152 266 159 c 2
100 341 m 1
 104 365 l 1
 520 365 l 1
 516 341 l 1
 100 341 l 1
EndSplineSet
EndChar

StartChar: question
Encoding: 63 63 202
Width: 543
VWidth: 0
Flags: HW
HStem: 0 21G<177.5 195.5> 297 20<243 400.851> 715 24<187.406 460.674> 715 14<127 214.42>
DStem2: 180.721 74 215.721 74 0.158937 0.987289<-71.4516 14.1498 126.817 231.216> 510 453 535 453 0.156465 0.987684<-64.358 179.304>
LayerCount: 2
Fore
SplineSet
170.9 12 m 2
 180.721 74 l 2
 181.987 82 186.621 86 194.621 86 c 2
 205.621 86 l 2
 213.621 86 216.829 81 215.721 74 c 2
 205.9 12 l 2
 204.634 4 199 0 192 0 c 2
 181 0 l 2
 174 0 169.792 5 170.9 12 c 2
125 715 m 1
 127 729 l 1
 206 738 292 739 375 739 c 0
 530 740 569 672 550 554 c 1
 535 453 l 2
 514 318 430 278 243 297 c 1
 227 195 l 1
 201 195 l 1
 220 317 l 1
 322 317 l 2
 426 317 494 352 510 453 c 2
 526 554 l 2
 544 670 499 715 374 715 c 2
 125 715 l 1
EndSplineSet
Substitution2: "'smcp' Lowercase to Small Capitals lookup 16-1" question.smcp
EndChar

StartChar: bracketleft
Encoding: 91 91 203
Width: 265
VWidth: 120
Flags: HW
HStem: -150 24<138.854 235> 878 24<297.078 398>
DStem2: 76 22 100 22 0.156249 0.987718<-71.4075 798.812>
LayerCount: 2
Fore
SplineSet
76 22 m 2
 188 730 l 2
 198 795 231 902 352 902 c 2
 401 902 l 1
 398 878 l 1
 348 878 l 2
 282 878 229 835 212 730 c 2
 100 22 l 2
 87 -58 106 -126 189 -126 c 2
 239 -126 l 1
 235 -150 l 1
 185 -150 l 2
 70 -150 66 -38 76 22 c 2
EndSplineSet
EndChar

StartChar: bracketright
Encoding: 93 93 204
Width: 270
VWidth: 120
Flags: HW
HStem: -150 24<-9 91.77> 878 24<154 247.393>
DStem2: 176 22 200 22 0.156249 0.987718<-77.1424 793.641>
LayerCount: 2
Fore
SplineSet
-13 -150 m 1
 -9 -126 l 1
 41 -126 l 2
 124 -126 163 -58 176 22 c 2
 288 730 l 2
 305 835 266 878 200 878 c 2
 150 878 l 1
 154 902 l 1
 204 902 l 2
 323 902 322 790 312 730 c 2
 200 22 l 2
 189 -49 158 -150 37 -150 c 2
 -13 -150 l 1
EndSplineSet
EndChar

StartChar: braceleft
Encoding: 123 123 205
Width: 260
VWidth: 120
Flags: HW
HStem: -150 23<169.409 233> 879 23<329.788 396>
DStem2: 100 29 123 22 0.157935 0.98745<-80.9338 316.943 415.675 786.956>
LayerCount: 2
Fore
SplineSet
67 380 m 1
 71 407 l 1
 104 410 164 422 173 480 c 2
 211 723 l 2
 226 819 267 902 400 902 c 1
 396 879 l 1
 308 879 253 838 234 716 c 2
 197 480 l 2
 189 432 147 400 103 394 c 1
 145 388 176 353 169 311 c 2
 123 22 l 2
 105 -92 146 -127 237 -127 c 1
 233 -150 l 1
 84 -150 88 -49 100 29 c 2
 144 307 l 2
 152 355 107 383 67 380 c 1
EndSplineSet
EndChar

StartChar: braceright
Encoding: 125 125 206
Width: 258
VWidth: 120
Flags: HW
HStem: -150 23<-9 61.6539> 380 27<287.46 321> 881 21<154 207.774>
DStem2: 151 22 174 17 0.155158 0.98789<-81.0653 329.838 431.339 785.951>
LayerCount: 2
Fore
SplineSet
-13 -150 m 1
 -9 -127 l 1
 82 -127 133 -92 151 22 c 2
 197 311 l 2
 204 353 245 388 289 394 c 1
 247 400 215 432 223 480 c 2
 260 716 l 2
 279 838 238 881 150 881 c 1
 154 902 l 1
 287 902 298 805 283 709 c 2
 247 480 l 2
 238 423 292 410 325 407 c 1
 321 380 l 1
 281 383 228 355 220 307 c 2
 174 17 l 2
 162 -61 136 -150 -13 -150 c 1
EndSplineSet
EndChar

StartChar: at
Encoding: 64 64 207
Width: 901
VWidth: 0
Flags: HW
HStem: -179 24<158.172 496.447> -169 14<530.946 599> -4 24<343.088 494.892> 3 23<633 700.785> 675 24<277.014 791.097>
DStem2: 64 9 88 9 0.15626 0.987716<-61.9129 593.88> 617 80 633 26 0.153312 0.988178<-10.576 405.677> 788 167 812 167 0.148067 0.988977<-72.9578 435.918>
LayerCount: 2
Fore
SplineSet
280 254 m 0
 255 55 324 21 402 20 c 0
 457 19 552 31 617 80 c 1
 676 479 l 1
 607 516 548 521 483 519 c 0
 426 517 310 495 280 254 c 0
64 9 m 2
 145 521 l 2
 160 613 212 699 350 699 c 2
 725 699 l 2
 836 699 882 634 865 521 c 2
 812 167 l 2
 807 132 787 3 643 3 c 2
 614 3 l 1
 616 63 l 1
 585 29 483 -3 410 -4 c 0
 299 -6 224 48 258 275 c 0
 292 496 399 537 473 544 c 0
 552 551 649 531 700 482 c 1
 633 26 l 1
 681 26 768 34 788 167 c 2
 841 521 l 2
 859 642 806 675 724 675 c 2
 350 675 l 2
 230 675 182 604 169 521 c 2
 88 9 l 2
 71 -97 131 -155 217 -155 c 2
 601 -155 l 1
 599 -169 l 1
 549 -179 435 -179 309 -179 c 2
 211 -179 l 2
 107 -179 47 -98 64 9 c 2
EndSplineSet
Substitution2: "'case' Case-Sensitive Forms lookup 1-1" at.alt
Substitution2: "'smcp' Lowercase to Small Capitals lookup 16-1" at.smcp
EndChar

StartChar: breve
Encoding: 293 728 208
Width: 272
VWidth: 0
Flags: HW
HStem: 530 14<122.928 196.648>
VStem: 60 14<591.127 644> 276 14<620.604 644>
LayerCount: 2
Fore
SplineSet
60 644 m 1
 74 644 l 1
 65 587 104 543 158 544 c 0
 217 545 267 586 276 644 c 1
 290 644 l 1
 278 568 212 530 157 530 c 0
 102 530 49 572 60 644 c 1
EndSplineSet
EndChar

StartChar: ogonek
Encoding: 294 731 209
Width: 263
VWidth: 0
Flags: HW
HStem: -181 14<216.589 262> -20 20G<167.5 259>
LayerCount: 2
Fore
SplineSet
247 0 m 1
 259 0 l 1
 141 -45 132 -170 264 -167 c 1
 262 -181 l 1
 144 -197 88 -66 247 0 c 1
EndSplineSet
EndChar

StartChar: caron
Encoding: 295 711 210
Width: 403
VWidth: 0
Flags: HW
HStem: 531 130
VStem: 32 272
DStem2: 49 661 32 661 0.601964 -0.798523<0 148.415> 143 546 151 531 0.762062 0.647504<0 183.438>
LayerCount: 2
Fore
SplineSet
32 661 m 1
 49 661 l 1
 143 546 l 1
 286 661 l 1
 304 661 l 1
 151 531 l 1
 130 531 l 1
 32 661 l 1
EndSplineSet
Substitution2: "'smcp' Lowercase to Small Capitals lookup 16-1" caron.smcp
EndChar

StartChar: hungarumlaut
Encoding: 296 733 211
Width: 462
VWidth: 0
Flags: HW
HStem: 531 133
VStem: 154 307
DStem2: 154 531 168 531 0.756823 0.65362<10.5955 194.4> 293 531 307 531 0.756823 0.65362<10.5955 194.4>
LayerCount: 2
Fore
SplineSet
293 531 m 1
 435 664 l 1
 461 664 l 1
 307 531 l 1
 293 531 l 1
154 531 m 1
 296 664 l 1
 322 664 l 1
 168 531 l 1
 154 531 l 1
EndSplineSet
EndChar

StartChar: dotaccent
Encoding: 297 729 212
Width: 172
VWidth: 0
Flags: HW
HStem: 547 86<79.4117 107.408>
VStem: 70.9004 44.8206
DStem2: 80.7207 621 115.721 621 0.156453 0.987686<-72.1448 14.7919>
LayerCount: 2
Fore
SplineSet
70.9004 559 m 2
 80.7207 621 l 2
 81.9873 629 86.6211 633 94.6211 633 c 2
 105.621 633 l 2
 113.621 633 116.829 628 115.721 621 c 2
 105.9 559 l 2
 104.634 551 99 547 92 547 c 2
 81 547 l 2
 74 547 69.792 552 70.9004 559 c 2
EndSplineSet
EndChar

StartChar: Aogonek
Encoding: 298 260 213
Width: 922
VWidth: 0
Flags: HW
HStem: -181 14<670.589 716> -20 20<621.5 713> 0 21<147 185.593 688.968 717> 253 24<322 637> 712 20<526.344 574.989>
DStem2: 147 0 175 0 0.470213 0.882553<13.166 299.46 326.754 815.696> 571 732 551 709 0.195601 -0.980684<18.6437 459.121 483.635 741.724>
LayerCount: 2
Fore
SplineSet
322 277 m 1
 637 277 l 1
 551 709 l 1
 322 277 l 1
147 0 m 1
 537 732 l 1
 571 732 l 1
 717 0 l 1
 713 0 l 1
 595 -45 586 -170 718 -167 c 1
 716 -181 l 1
 598 -197 542 -66 701 0 c 1
 693 0 l 1
 642 253 l 1
 309 253 l 1
 175 0 l 1
 147 0 l 1
EndSplineSet
Substitution2: "'c2sc' Capitals to Small Capitals in Latin lookup 17 subtable" aogonek.smcp
EndChar

StartChar: Lcaron
Encoding: 299 317 214
Width: 547
VWidth: 0
Flags: HW
HStem: 0 24<152.683 491> 712 20G<191.832 219>
VStem: 285 12<571 604.5>
DStem2: 99 126 123 126 0.156465 0.987684<-52.5496 613.557> 300 705 325 705 0.123427 0.992354<-133.346 67.722>
LayerCount: 2
Fore
SplineSet
285 571 m 1
 300 705 l 1
 310 772 l 1
 335 772 l 1
 325 705 l 1
 297 571 l 1
 285 571 l 1
99 126 m 2
 195 732 l 1
 219 732 l 1
 123 126 l 2
 108 34 165 24 219 24 c 2
 495 24 l 1
 491 0 l 1
 215 0 l 2
 149 0 81 13 99 126 c 2
EndSplineSet
Substitution2: "'c2sc' Capitals to Small Capitals in Latin lookup 17 subtable" lcaron.smcp
EndChar

StartChar: Sacute
Encoding: 300 346 215
Width: 565
VWidth: 0
Flags: HW
HStem: -8 24<103.41 406.217> 347 24<206.177 474.298> 714 24<274.763 534.667> 798 133
VStem: 402.667 168
DStem2: 138 498 162 494 0.124692 0.992195<-71.919 126.881> 402.667 798 416.667 798 0.756823 0.65362<10.5955 194.4> 508 156 532 151 0.145494 0.989359<-66.0635 134.006>
LayerCount: 2
Fore
SplineSet
402.667 798 m 1
 544.667 931 l 1
 570.667 931 l 1
 416.667 798 l 1
 402.667 798 l 1
79 7 m 1
 81 22 l 1
 124 18 225 16 318 16 c 0
 408 16 490 39 508 156 c 2
 518 224 l 2
 531 309 500 347 400 347 c 2
 288 347 l 2
 133 347 126 420 138 498 c 2
 149 564 l 1
 172 709 258 738 370 738 c 0
 423 738 541 727 589 719 c 1
 587 706 l 1
 524 710 366 714 366 714 c 2
 261 718 192 681 173 560 c 1
 162 494 l 1
 146 390 198 371 290 371 c 2
 404 371 l 2
 537 371 555 301 542 219 c 2
 532 151 l 1
 510 9 411 -8 312 -8 c 0
 263 -8 124 -1 79 7 c 1
EndSplineSet
Substitution2: "'c2sc' Capitals to Small Capitals in Latin lookup 17 subtable" sacute.smcp
EndChar

StartChar: Scaron
Encoding: 301 352 216
Width: 565
VWidth: 0
Flags: HW
HStem: -8 24<103.41 406.217> 347 24<206.177 474.298> 714 24<274.763 534.667> 798 130
VStem: 297.268 272
DStem2: 138 498 162 494 0.124692 0.992195<-71.919 126.881> 314.268 928 297.268 928 0.601964 -0.798523<0 148.415> 408.268 813 416.268 798 0.762062 0.647504<0 183.438> 508 156 532 151 0.145494 0.989359<-66.0635 134.006>
LayerCount: 2
Fore
SplineSet
297.268 928 m 1
 314.268 928 l 1
 408.268 813 l 1
 551.268 928 l 1
 569.268 928 l 1
 416.268 798 l 1
 395.268 798 l 1
 297.268 928 l 1
79 7 m 1
 81 22 l 1
 124 18 225 16 318 16 c 0
 408 16 490 39 508 156 c 2
 518 224 l 2
 531 309 500 347 400 347 c 2
 288 347 l 2
 133 347 126 420 138 498 c 2
 149 564 l 1
 172 709 258 738 370 738 c 0
 423 738 541 727 589 719 c 1
 587 706 l 1
 524 710 366 714 366 714 c 2
 261 718 192 681 173 560 c 1
 162 494 l 1
 146 390 198 371 290 371 c 2
 404 371 l 2
 537 371 555 301 542 219 c 2
 532 151 l 1
 510 9 411 -8 312 -8 c 0
 263 -8 124 -1 79 7 c 1
EndSplineSet
Substitution2: "'c2sc' Capitals to Small Capitals in Latin lookup 17 subtable" scaron.smcp
EndChar

StartChar: Scedilla
Encoding: 302 350 217
Width: 565
VWidth: 0
Flags: HW
HStem: -181 7<167 201> -8 24<103.41 406.217> 347 24<206.177 474.298> 714 24<274.763 534.667>
VStem: 303 17<-84.908 -45>
DStem2: 138 498 162 494 0.124692 0.992195<-71.919 126.881> 508 156 532 151 0.145494 0.989359<-66.0635 134.006>
LayerCount: 2
Fore
SplineSet
166 -181 m 1
 167 -174 l 1
 201 -169 l 2
 256 -161 288 -153 303 -45 c 1
 320 -45 l 1
 304 -145 280 -181 197 -181 c 2
 166 -181 l 1
79 7 m 1
 81 22 l 1
 124 18 225 16 318 16 c 0
 408 16 490 39 508 156 c 2
 518 224 l 2
 531 309 500 347 400 347 c 2
 288 347 l 2
 133 347 126 420 138 498 c 2
 149 564 l 1
 172 709 258 738 370 738 c 0
 423 738 541 727 589 719 c 1
 587 706 l 1
 524 710 366 714 366 714 c 2
 261 718 192 681 173 560 c 1
 162 494 l 1
 146 390 198 371 290 371 c 2
 404 371 l 2
 537 371 555 301 542 219 c 2
 532 151 l 1
 510 9 411 -8 312 -8 c 0
 263 -8 124 -1 79 7 c 1
EndSplineSet
Substitution2: "'c2sc' Capitals to Small Capitals in Latin lookup 17 subtable" scedilla.smcp
EndChar

StartChar: Tcaron
Encoding: 303 356 218
Width: 631
VWidth: 0
Flags: HW
HStem: 0 21<281 308.164> 708 24<143 393 417 677> 797 130
VStem: 307.06 272
DStem2: 281 0 305 0 0.156249 0.987718<3.74998 716.804> 324.06 927 307.06 927 0.601964 -0.798523<0 148.415> 418.06 812 426.06 797 0.762062 0.647504<0 183.438>
LayerCount: 2
Fore
SplineSet
307.06 927 m 1
 324.06 927 l 1
 418.06 812 l 1
 561.06 927 l 1
 579.06 927 l 1
 426.06 797 l 1
 405.06 797 l 1
 307.06 927 l 1
139 708 m 1
 143 732 l 1
 681 732 l 1
 677 708 l 1
 417 708 l 1
 305 0 l 1
 281 0 l 1
 393 708 l 1
 139 708 l 1
EndSplineSet
Substitution2: "'c2sc' Capitals to Small Capitals in Latin lookup 17 subtable" tcaron.smcp
EndChar

StartChar: Zacute
Encoding: 304 377 219
Width: 507
VWidth: 0
Flags: HW
HStem: 0 24<71 498> 708 24<151 578> 797 133
VStem: 385.959 168
DStem2: 39 24 71 24 0.618937 0.785441<19.806 870.848> 385.959 797 399.959 797 0.756823 0.65362<10.5955 194.4>
LayerCount: 2
Fore
SplineSet
385.959 797 m 1
 527.959 930 l 1
 553.959 930 l 1
 399.959 797 l 1
 385.959 797 l 1
35 0 m 1
 39 24 l 1
 578 708 l 1
 147 708 l 1
 151 732 l 1
 614 732 l 1
 610 708 l 1
 71 24 l 1
 502 24 l 1
 498 0 l 1
 35 0 l 1
EndSplineSet
Substitution2: "'c2sc' Capitals to Small Capitals in Latin lookup 17 subtable" zacute.smcp
EndChar

StartChar: Zcaron
Encoding: 305 381 220
Width: 507
VWidth: 0
Flags: HW
HStem: 0 24<71 498> 708 24<151 578> 797 130
VStem: 277.56 272
DStem2: 39 24 71 24 0.618937 0.785441<19.806 870.848> 294.56 927 277.56 927 0.601964 -0.798523<0 148.415> 388.56 812 396.56 797 0.762062 0.647504<0 183.438>
LayerCount: 2
Fore
SplineSet
277.56 927 m 1
 294.56 927 l 1
 388.56 812 l 1
 531.56 927 l 1
 549.56 927 l 1
 396.56 797 l 1
 375.56 797 l 1
 277.56 927 l 1
35 0 m 1
 39 24 l 1
 578 708 l 1
 147 708 l 1
 151 732 l 1
 614 732 l 1
 610 708 l 1
 71 24 l 1
 502 24 l 1
 498 0 l 1
 35 0 l 1
EndSplineSet
Substitution2: "'c2sc' Capitals to Small Capitals in Latin lookup 17 subtable" zcaron.smcp
EndChar

StartChar: Zdotaccent
Encoding: 306 379 221
Width: 507
VWidth: 0
Flags: HW
HStem: 0 24<71 498> 708 24<151 578> 778 86<353.601 381.597>
VStem: 345.089 44.8206
DStem2: 39 24 71 24 0.618937 0.785441<19.806 870.848> 354.91 852 389.91 852 0.156453 0.987686<-72.1448 14.7919>
LayerCount: 2
Fore
SplineSet
345.09 790 m 2
 354.91 852 l 2
 356.177 860 360.811 864 368.811 864 c 2
 379.81 864 l 2
 387.81 864 391.018 859 389.91 852 c 2
 380.089 790 l 2
 378.823 782 373.189 778 366.189 778 c 2
 355.189 778 l 2
 348.189 778 343.981 783 345.09 790 c 2
35 0 m 1
 39 24 l 1
 578 708 l 1
 147 708 l 1
 151 732 l 1
 614 732 l 1
 610 708 l 1
 71 24 l 1
 502 24 l 1
 498 0 l 1
 35 0 l 1
EndSplineSet
Substitution2: "'c2sc' Capitals to Small Capitals in Latin lookup 17 subtable" zdotaccent.smcp
EndChar

StartChar: aogonek
Encoding: 307 261 222
Width: 545
VWidth: 0
Flags: HW
HStem: -180.922 14<423.656 469.067> -19.9219 20<374.567 466.067> -7 23<177.986 318.991> 0 21<452 468.923>
VStem: 453 13<0 47.9>
DStem2: 511 476 536 479 0.144602 0.98949<-412.388 4.78166>
LayerCount: 2
Fore
SplineSet
109 246 m 0
 86 98 128 16 238 16 c 0
 325 16 385 46 453 75 c 1
 511 476 l 1
 482 494 406 530 309 517 c 0
 192 501 139 438 109 246 c 0
90 279 m 0
 130 507 228 531 310 541 c 0
 380 550 485 528 536 479 c 1
 466.011 0.078125 l 1
 466.067 0.078125 l 1
 466.008 0.0555116 l 2
 466.008 0.0370078 466 0.0185039 466 0 c 2
 465.863 0 l 1
 348.057 -45.0664 339.144 -169.92 471.067 -166.922 c 1
 469.067 -180.922 l 1
 351.114 -196.916 295.112 -66.0252 453.879 0 c 1
 452 0 l 1
 453 60 l 1
 424 41 323 -7 246 -7 c 0
 132 -7 49 45 90 279 c 0
EndSplineSet
AlternateSubs2: "'salt' Access All Alternates in Latin lookup 4-1" aogonek.salt
Substitution2: "'smcp' Lowercase to Small Capitals lookup 16-1" aogonek.smcp
EndChar

StartChar: lcaron
Encoding: 308 318 223
Width: 313
VWidth: 0
Flags: HW
HStem: 0 13<207.594 249> 763 19G<179.835 207 304.015 332>
VStem: 282 12<581 614.5>
DStem2: 89 189 113 189 0.156304 0.987709<-89.4128 601.392> 297 715 322 715 0.123427 0.992354<-133.346 67.722>
LayerCount: 2
Fore
SplineSet
282 581 m 1
 297 715 l 1
 307 782 l 1
 332 782 l 1
 322 715 l 1
 294 581 l 1
 282 581 l 1
89 189 m 2
 183 783 l 1
 207 783 l 1
 113 189 l 2
 88 32 150 28 179 24 c 2
 179 24 244 13 251 13 c 1
 249 0 l 1
 184 0 l 2
 100 0 68 57 89 189 c 2
EndSplineSet
Substitution2: "'smcp' Lowercase to Small Capitals lookup 16-1" lcaron.smcp
EndChar

StartChar: sacute
Encoding: 309 347 224
Width: 504
VWidth: 0
Flags: HW
HStem: -5 24<114.089 380.379> 5 14<66 188.745> 252 24<140.74 403.715> 513 14<362.672 491> 513 23<192.256 451.202> 596 133
VStem: 316.667 168
DStem2: 99 369 123 363 0.150442 0.988619<-61.2151 107.056> 316.667 596 330.667 596 0.756823 0.65362<10.5955 194.4> 431 113 455 107 0.161132 0.986933<-61.4157 94.4025>
LayerCount: 2
Fore
SplineSet
316.667 596 m 1
 458.667 729 l 1
 484.667 729 l 1
 330.667 596 l 1
 316.667 596 l 1
64 5 m 1
 66 19 l 1
 310 19 l 2
 357 19 416 20 431 113 c 2
 439 162 l 2
 447 211 421 252 350 252 c 2
 219 252 l 2
 125 252 83 266 99 369 c 2
 106 415 l 2
 119 497 161 536 264 536 c 0
 316 536 443 532 494 527 c 1
 491 513 l 1
 260 513 l 2
 176 513 141 481 130 409 c 2
 123 363 l 2
 109 277 148 276 223 276 c 2
 351 276 l 2
 427 276 475 231 463 156 c 2
 455 107 l 2
 438 -2 368 -5 304 -5 c 0
 255 -5 101 1 64 5 c 1
EndSplineSet
Substitution2: "'smcp' Lowercase to Small Capitals lookup 16-1" sacute.smcp
EndChar

StartChar: scaron
Encoding: 310 353 225
Width: 504
VWidth: 0
Flags: HW
HStem: -5 24<114.089 380.379> 5 14<66 188.745> 252 24<140.74 403.715> 513 14<362.672 491> 513 23<192.256 451.202> 596 130
VStem: 213.268 272
DStem2: 99 369 123 363 0.150442 0.988619<-61.2151 107.056> 230.268 726 213.268 726 0.601964 -0.798523<0 148.415> 324.268 611 332.268 596 0.762062 0.647504<0 183.438> 431 113 455 107 0.161132 0.986933<-61.4157 94.4025>
LayerCount: 2
Fore
SplineSet
213.268 726 m 1
 230.268 726 l 1
 324.268 611 l 1
 467.268 726 l 1
 485.268 726 l 1
 332.268 596 l 1
 311.268 596 l 1
 213.268 726 l 1
64 5 m 1
 66 19 l 1
 310 19 l 2
 357 19 416 20 431 113 c 2
 439 162 l 2
 447 211 421 252 350 252 c 2
 219 252 l 2
 125 252 83 266 99 369 c 2
 106 415 l 2
 119 497 161 536 264 536 c 0
 316 536 443 532 494 527 c 1
 491 513 l 1
 260 513 l 2
 176 513 141 481 130 409 c 2
 123 363 l 2
 109 277 148 276 223 276 c 2
 351 276 l 2
 427 276 475 231 463 156 c 2
 455 107 l 2
 438 -2 368 -5 304 -5 c 0
 255 -5 101 1 64 5 c 1
EndSplineSet
Substitution2: "'smcp' Lowercase to Small Capitals lookup 16-1" scaron.smcp
EndChar

StartChar: scedilla
Encoding: 311 351 226
Width: 504
VWidth: 0
Flags: HW
HStem: -176.467 7<127.459 161.459> -5 24<114.089 380.379> 5 14<66 188.745> 252 24<140.74 403.715> 513 14<362.672 491> 513 23<192.256 451.202>
VStem: 263.459 17<-80.3746 -40.4667>
DStem2: 99 369 123 363 0.150442 0.988619<-61.2151 107.056> 431 113 455 107 0.161132 0.986933<-61.4157 94.4025>
LayerCount: 2
Fore
SplineSet
126.459 -176.467 m 1
 127.459 -169.467 l 1
 161.459 -164.467 l 2
 216.459 -156.467 248.459 -148.467 263.459 -40.4668 c 1
 280.459 -40.4668 l 1
 264.459 -140.467 240.459 -176.467 157.459 -176.467 c 2
 126.459 -176.467 l 1
64 5 m 1
 66 19 l 1
 310 19 l 2
 357 19 416 20 431 113 c 2
 439 162 l 2
 447 211 421 252 350 252 c 2
 219 252 l 2
 125 252 83 266 99 369 c 2
 106 415 l 2
 119 497 161 536 264 536 c 0
 316 536 443 532 494 527 c 1
 491 513 l 1
 260 513 l 2
 176 513 141 481 130 409 c 2
 123 363 l 2
 109 277 148 276 223 276 c 2
 351 276 l 2
 427 276 475 231 463 156 c 2
 455 107 l 2
 438 -2 368 -5 304 -5 c 0
 255 -5 101 1 64 5 c 1
EndSplineSet
Substitution2: "'smcp' Lowercase to Small Capitals lookup 16-1" scedilla.smcp
EndChar

StartChar: tcaron
Encoding: 312 357 227
Width: 344
VWidth: 0
Flags: HW
HStem: -1 13<243.594 285> 508 24<204 375> 508 16<95 169.375>
VStem: 92 287
DStem2: 125 188 149 188 0.156581 0.987665<-89.3559 324.038>
LayerCount: 2
Fore
SplineSet
303 597 m 1
 317 731 l 1
 328 798 l 1
 353 798 l 1
 342 731 l 1
 315 597 l 1
 303 597 l 1
92 508 m 1
 95 524 l 1
 180 532 l 1
 211 680 l 1
 227 680 l 1
 204 532 l 1
 379 532 l 1
 375 508 l 1
 200 508 l 1
 149 188 l 2
 124 31 186 27 215 23 c 2
 215 23 280 12 287 12 c 1
 285 -1 l 1
 222 -1 l 2
 138 -1 104 56 125 188 c 2
 176 508 l 1
 92 508 l 1
EndSplineSet
AlternateSubs2: "'salt' Access All Alternates in Latin lookup 4-1" tcaron.salt
Substitution2: "'smcp' Lowercase to Small Capitals lookup 16-1" tcaron.smcp
EndChar

StartChar: zacute
Encoding: 313 378 228
Width: 449
VWidth: 0
Flags: HW
HStem: 1 24<82 427.427> 507 24<114 472> 596 133
VStem: 315.459 168
DStem2: 49 25 82 25 0.660487 0.750837<21.7961 641.29> 315.459 596 329.459 596 0.756823 0.65362<10.5955 194.4>
LayerCount: 2
Fore
SplineSet
315.459 596 m 1
 457.459 729 l 1
 483.459 729 l 1
 329.459 596 l 1
 315.459 596 l 1
45 1 m 1
 49 25 l 1
 472 507 l 1
 110 507 l 1
 114 531 l 1
 510 531 l 1
 506 507 l 1
 82 25 l 1
 430 25 l 1
 431 24 426 1 426 1 c 1
 45 1 l 1
EndSplineSet
Substitution2: "'smcp' Lowercase to Small Capitals lookup 16-1" zacute.smcp
EndChar

StartChar: zcaron
Encoding: 314 382 229
Width: 449
VWidth: 0
Flags: HW
HStem: 1 24<82 427.427> 507 24<114 472> 596 130
VStem: 207.06 272
DStem2: 49 25 82 25 0.660487 0.750837<21.7961 641.29> 224.06 726 207.06 726 0.601964 -0.798523<0 148.415> 318.06 611 326.06 596 0.762062 0.647504<0 183.438>
LayerCount: 2
Fore
SplineSet
207.06 726 m 1
 224.06 726 l 1
 318.06 611 l 1
 461.06 726 l 1
 479.06 726 l 1
 326.06 596 l 1
 305.06 596 l 1
 207.06 726 l 1
45 1 m 1
 49 25 l 1
 472 507 l 1
 110 507 l 1
 114 531 l 1
 510 531 l 1
 506 507 l 1
 82 25 l 1
 430 25 l 1
 431 24 426 1 426 1 c 1
 45 1 l 1
EndSplineSet
Substitution2: "'smcp' Lowercase to Small Capitals lookup 16-1" zcaron.smcp
EndChar

StartChar: zdotaccent
Encoding: 315 380 230
Width: 449
VWidth: 0
Flags: HW
HStem: 1 24<82 427.427> 507 24<114 472> 596 86<315.375 343.371>
VStem: 306.863 44.8206
DStem2: 49 25 82 25 0.660487 0.750837<21.7961 641.29> 316.684 670 351.684 670 0.156453 0.987686<-72.1448 14.7919>
LayerCount: 2
Fore
SplineSet
306.863 608 m 2
 316.684 670 l 2
 317.95 678 322.584 682 330.584 682 c 2
 341.584 682 l 2
 349.584 682 352.792 677 351.684 670 c 2
 341.863 608 l 2
 340.597 600 334.963 596 327.963 596 c 2
 316.963 596 l 2
 309.963 596 305.755 601 306.863 608 c 2
45 1 m 1
 49 25 l 1
 472 507 l 1
 110 507 l 1
 114 531 l 1
 510 531 l 1
 506 507 l 1
 82 25 l 1
 430 25 l 1
 431 24 426 1 426 1 c 1
 45 1 l 1
EndSplineSet
Substitution2: "'smcp' Lowercase to Small Capitals lookup 16-1" zdotaccent.smcp
EndChar

StartChar: Racute
Encoding: 316 340 231
Width: 612
VWidth: 0
Flags: HW
HStem: 0 21<75 102.183 496.251 529> 323 24<203.343 394 420 480.838> 333 14<154 285.037> 707 25<211 533.975> 797 133
VStem: 402.459 168
DStem2: 75 0 99 0 0.156517 0.987675<3.7564 341.352 355.088 719.573> 420 323 394 323 0.319746 -0.947503<0 332.582> 402.459 797 416.459 797 0.756823 0.65362<10.5955 194.4>
LayerCount: 2
Fore
SplineSet
402.459 797 m 1
 544.459 930 l 1
 570.459 930 l 1
 416.459 797 l 1
 402.459 797 l 1
154 347 m 1
 406 347 l 2
 485 347 561 370 586 532 c 0
 610 686 539 707 463 707 c 2
 211 707 l 1
 154 347 l 1
75 0 m 1
 191 732 l 1
 467 732 l 2
 546 732 639 707 611 528 c 0
 581 340 495 325 420 323 c 1
 529 0 l 1
 503 0 l 1
 394 323 l 1
 341 324 156 330 152 333 c 1
 99 0 l 1
 75 0 l 1
EndSplineSet
Substitution2: "'c2sc' Capitals to Small Capitals in Latin lookup 17 subtable" racute.smcp
EndChar

StartChar: Abreve
Encoding: 317 258 232
Width: 643
VWidth: 0
Flags: HW
HStem: 0 21<45 83.5929 586.968 615> 253 24<220 535> 712 20<424.344 472.989> 797 14<428.453 502.173>
VStem: 365.525 14<858.127 911> 581.525 14<887.604 911>
DStem2: 45 0 73 0 0.470213 0.882553<13.166 299.46 326.754 815.696> 469 732 449 709 0.195601 -0.980684<18.6437 459.121 483.635 741.724>
LayerCount: 2
Fore
SplineSet
365.525 911 m 1
 379.525 911 l 1
 370.525 854 409.525 810 463.525 811 c 0
 522.525 812 572.525 853 581.525 911 c 1
 595.525 911 l 1
 583.525 835 517.525 797 462.525 797 c 0
 407.525 797 354.525 839 365.525 911 c 1
220 277 m 1
 535 277 l 1
 449 709 l 1
 220 277 l 1
45 0 m 1
 435 732 l 1
 469 732 l 1
 615 0 l 1
 591 0 l 1
 540 253 l 1
 207 253 l 1
 73 0 l 1
 45 0 l 1
EndSplineSet
Substitution2: "'c2sc' Capitals to Small Capitals in Latin lookup 17 subtable" abreve.smcp
EndChar

StartChar: Lacute
Encoding: 318 313 233
Width: 547
VWidth: 0
Flags: HW
HStem: 0 24<153.437 491> 712 20<191.832 219> 797 133
VStem: 214.161 168
DStem2: 99 126 123 126 0.156465 0.987684<-52.5496 613.557> 214.161 797 228.161 797 0.756823 0.65362<10.5955 194.4>
LayerCount: 2
Fore
SplineSet
214.161 797 m 1
 356.161 930 l 1
 382.161 930 l 1
 228.161 797 l 1
 214.161 797 l 1
99 126 m 2
 195 732 l 1
 219 732 l 1
 123 126 l 2
 108 34 165 24 219 24 c 2
 495 24 l 1
 491 0 l 1
 220 0 l 2
 154 0 81 13 99 126 c 2
EndSplineSet
Substitution2: "'c2sc' Capitals to Small Capitals in Latin lookup 17 subtable" lacute.smcp
EndChar

StartChar: Cacute
Encoding: 319 262 234
Width: 564
VWidth: 0
Flags: HW
HStem: -6 24<237.623 451.16> 716 24<329.627 554.046> 800 133
VStem: 420 168
DStem2: 420 800 434 800 0.756823 0.65362<10.5955 194.4>
LayerCount: 2
Fore
SplineSet
420 800 m 1
 562 933 l 1
 588 933 l 1
 434 800 l 1
 420 800 l 1
117 376 m 0
 153 606 214 740 417 740 c 0
 469 740 561 729 629 716 c 1
 627 702 l 2
 626 702 507 716 415 716 c 0
 268 716 185 646 141 366 c 0
 105 138 154 18 306 18 c 0
 411 18 520 30 520 30 c 1
 518 16 l 1
 446 3 353 -6 301 -6 c 0
 116 -6 83 161 117 376 c 0
EndSplineSet
Substitution2: "'c2sc' Capitals to Small Capitals in Latin lookup 17 subtable" cacute.smcp
EndChar

StartChar: Ccaron
Encoding: 320 268 235
Width: 564
VWidth: 0
Flags: HW
HStem: -6 24<237.623 451.16> 716 24<329.627 554.046> 800 130
VStem: 311 272
DStem2: 328 930 311 930 0.601964 -0.798523<0 148.415> 422 815 430 800 0.762062 0.647504<0 183.438>
LayerCount: 2
Fore
SplineSet
311 930 m 1
 328 930 l 1
 422 815 l 1
 565 930 l 1
 583 930 l 1
 430 800 l 1
 409 800 l 1
 311 930 l 1
117 376 m 0
 153 606 214 740 417 740 c 0
 469 740 561 729 629 716 c 1
 627 702 l 2
 626 702 507 716 415 716 c 0
 268 716 185 646 141 366 c 0
 105 138 154 18 306 18 c 0
 411 18 520 30 520 30 c 1
 518 16 l 1
 446 3 353 -6 301 -6 c 0
 116 -6 83 161 117 376 c 0
EndSplineSet
Substitution2: "'c2sc' Capitals to Small Capitals in Latin lookup 17 subtable" ccaron.smcp
EndChar

StartChar: Eogonek
Encoding: 321 280 236
Width: 561
VWidth: 0
Flags: HW
HStem: -174.052 14<459.902 505.314> -13.0522 20<410.814 502.314> -3 24<151.494 416.3> 7 14<300.7 503> 351 24<162 518> 708 14<408.8 614> 708 24<261.001 527.2>
DStem2: 98 128 122 123 0.156704 0.987646<-57.3934 229.647 253.978 545.249>
LayerCount: 2
Fore
SplineSet
98 128 m 2
 174 607 l 2
 190 705 256 734 320 732 c 2
 616 722 l 1
 614 708 l 1
 317 708 l 2
 255 708 210 677 198 602 c 2
 162 375 l 1
 520 370 l 1
 518 356 l 1
 158 351 l 1
 122 123 l 2
 107 31 163 21 218 21 c 2
 505 21 l 1
 503 7 l 1
 501.476 6.94727 l 1
 502.314 6.94727 l 1
 384.314 -38.0527 375.314 -163.053 507.314 -160.053 c 1
 505.314 -174.053 l 1
 387.565 -190.019 331.552 -59.6082 489.305 6.52612 c 1
 214 -3 l 2
 148 -5 80 15 98 128 c 2
EndSplineSet
Substitution2: "'c2sc' Capitals to Small Capitals in Latin lookup 17 subtable" eogonek.smcp
EndChar

StartChar: Ecaron
Encoding: 322 282 237
Width: 561
VWidth: 0
Flags: HW
HStem: -3 24<151.494 416.3> 7 14<300.7 503> 351 24<162 518> 708 14<408.8 614> 708 24<261.001 527.2> 797 130
VStem: 313.005 272
DStem2: 98 128 122 123 0.156704 0.987646<-57.3934 229.647 253.978 545.249> 330.005 927 313.005 927 0.601964 -0.798523<0 148.415> 424.005 812 432.005 797 0.762062 0.647504<0 183.438>
LayerCount: 2
Fore
SplineSet
313.005 927 m 1
 330.005 927 l 1
 424.005 812 l 1
 567.005 927 l 1
 585.005 927 l 1
 432.005 797 l 1
 411.005 797 l 1
 313.005 927 l 1
98 128 m 2
 174 607 l 2
 190 705 256 734 320 732 c 2
 616 722 l 1
 614 708 l 1
 317 708 l 2
 255 708 210 677 198 602 c 2
 162 375 l 1
 520 370 l 1
 518 356 l 1
 158 351 l 1
 122 123 l 2
 107 31 163 21 218 21 c 2
 505 21 l 1
 503 7 l 1
 214 -3 l 2
 148 -5 80 15 98 128 c 2
EndSplineSet
Substitution2: "'c2sc' Capitals to Small Capitals in Latin lookup 17 subtable" ecaron.smcp
EndChar

StartChar: Dcaron
Encoding: 323 270 238
Width: 658
VWidth: 0
Flags: HW
HStem: 0 24<108 409.861> 708 24<216 514.404> 797 130
VStem: 327.035 272
DStem2: 80 0 108 24 0.156517 0.987675<28.0867 720.56> 344.035 927 327.035 927 0.601964 -0.798523<0 148.415> 438.035 812 446.035 797 0.762062 0.647504<0 183.438>
LayerCount: 2
Fore
SplineSet
327.035 927 m 1
 344.035 927 l 1
 438.035 812 l 1
 581.035 927 l 1
 599.035 927 l 1
 446.035 797 l 1
 425.035 797 l 1
 327.035 927 l 1
108 24 m 1
 339 24 l 2
 521 24 601 216 626 364 c 0
 666 601 594 708 443 708 c 2
 216 708 l 1
 108 24 l 1
80 0 m 1
 196 732 l 1
 448 732 l 2
 674 732 677 504 649 355 c 0
 613 163 524 0 339 0 c 2
 80 0 l 1
EndSplineSet
Substitution2: "'c2sc' Capitals to Small Capitals in Latin lookup 17 subtable" dcaron.smcp
EndChar

StartChar: Nacute
Encoding: 324 323 239
Width: 642
VWidth: 0
Flags: HW
HStem: 0 21<80 107.188 535.406 572.169> 712 20<192.831 230.579 657.807 685> 797 133
VStem: 443.959 168
DStem2: 80 0 104 0 0.156517 0.987675<3.7564 702.469> 221 732 214 690 0.432519 -0.901625<34.8406 763.951> 443.959 797 457.959 797 0.756823 0.65362<10.5955 194.4> 551 43 569 0 0.156517 0.987675<0 697.725>
LayerCount: 2
Fore
SplineSet
443.959 797 m 1
 585.959 930 l 1
 611.959 930 l 1
 457.959 797 l 1
 443.959 797 l 1
80 0 m 1
 196 732 l 1
 221 732 l 1
 551 43 l 1
 661 732 l 1
 685 732 l 1
 569 0 l 1
 545 0 l 1
 214 690 l 1
 104 0 l 1
 80 0 l 1
EndSplineSet
AlternateSubs2: "'salt' Access All Alternates in Latin lookup 4-1" Nacute.salt
Substitution2: "'c2sc' Capitals to Small Capitals in Latin lookup 17 subtable" nacute.smcp
EndChar

StartChar: Ncaron
Encoding: 325 327 240
Width: 642
VWidth: 0
Flags: HW
HStem: 0 21<80 107.188 535.406 572.169> 712 20<192.831 230.579 657.807 685> 797 130
VStem: 335.56 272
DStem2: 80 0 104 0 0.156517 0.987675<3.7564 702.469> 221 732 214 690 0.432519 -0.901625<34.8406 763.951> 352.56 927 335.56 927 0.601964 -0.798523<0 148.415> 446.56 812 454.56 797 0.762062 0.647504<0 183.438> 551 43 569 0 0.156517 0.987675<0 697.725>
LayerCount: 2
Fore
SplineSet
335.56 927 m 1
 352.56 927 l 1
 446.56 812 l 1
 589.56 927 l 1
 607.56 927 l 1
 454.56 797 l 1
 433.56 797 l 1
 335.56 927 l 1
80 0 m 1
 196 732 l 1
 221 732 l 1
 551 43 l 1
 661 732 l 1
 685 732 l 1
 569 0 l 1
 545 0 l 1
 214 690 l 1
 104 0 l 1
 80 0 l 1
EndSplineSet
AlternateSubs2: "'salt' Access All Alternates in Latin lookup 4-1" Ncaron.salt
Substitution2: "'c2sc' Capitals to Small Capitals in Latin lookup 17 subtable" ncaron.smcp
EndChar

StartChar: Ohungarumlaut
Encoding: 326 336 241
Width: 684
VWidth: 0
Flags: HW
HStem: -4 24<221.32 441.727> 713 24<323.616 552.668> 797 133
VStem: 380.167 307
DStem2: 380.167 797 394.167 797 0.756823 0.65362<10.5955 194.4> 519.167 797 533.167 797 0.756823 0.65362<10.5955 194.4>
LayerCount: 2
Fore
SplineSet
519.167 797 m 1
 661.167 930 l 1
 687.167 930 l 1
 533.167 797 l 1
 519.167 797 l 1
380.167 797 m 1
 522.167 930 l 1
 548.167 930 l 1
 394.167 797 l 1
 380.167 797 l 1
142 361 m 0
 95 63 153 20 332 20 c 0
 503 20 583 65 630 361 c 0
 681 685 602 713 442 713 c 0
 294 713 195 698 142 361 c 0
118 368 m 0
 172 711 275 737 447 737 c 0
 620 737 708 697 654 354 c 0
 603 31 506 -4 326 -4 c 0
 146 -4 65 35 118 368 c 0
EndSplineSet
Substitution2: "'c2sc' Capitals to Small Capitals in Latin lookup 17 subtable" ohungarumlaut.smcp
EndChar

StartChar: Rcaron
Encoding: 327 344 242
Width: 612
VWidth: 0
Flags: HW
HStem: 0 21<75 102.183 496.251 529> 323 24<203.343 394 420 480.838> 333 14<154 285.037> 707 25<211 533.975> 797 130
VStem: 294.06 272
DStem2: 75 0 99 0 0.156517 0.987675<3.7564 341.352 355.088 719.573> 311.06 927 294.06 927 0.601964 -0.798523<0 148.415> 420 323 394 323 0.319746 -0.947503<0 332.582> 405.06 812 413.06 797 0.762062 0.647504<0 183.438>
LayerCount: 2
Fore
SplineSet
294.06 927 m 1
 311.06 927 l 1
 405.06 812 l 1
 548.06 927 l 1
 566.06 927 l 1
 413.06 797 l 1
 392.06 797 l 1
 294.06 927 l 1
154 347 m 1
 406 347 l 2
 485 347 561 370 586 532 c 0
 610 686 539 707 463 707 c 2
 211 707 l 1
 154 347 l 1
75 0 m 1
 191 732 l 1
 467 732 l 2
 546 732 639 707 611 528 c 0
 581 340 495 325 420 323 c 1
 529 0 l 1
 503 0 l 1
 394 323 l 1
 341 324 156 330 152 333 c 1
 99 0 l 1
 75 0 l 1
EndSplineSet
Substitution2: "'c2sc' Capitals to Small Capitals in Latin lookup 17 subtable" rcaron.smcp
EndChar

StartChar: Uring
Encoding: 328 366 243
Width: 681
VWidth: 0
Flags: HW
HStem: -5 24<221.746 443.368> 712 20<192.845 220 675.845 703> 797 15<430.903 498.605> 987 15<455.424 523.173>
VStem: 374.623 203
DStem2: 131 320 155 320 0.155839 0.987782<-141.96 417.096> 614 320 638 320 0.155839 0.987782<-136.867 417.096>
LayerCount: 2
Fore
SplineSet
389.623 899 m 0
 381.623 851 415.623 812 463.623 812 c 0
 511.623 812 555.623 851 563.623 899 c 0
 571.623 947 538.623 987 490.623 987 c 0
 442.623 987 397.623 947 389.623 899 c 0
374.623 899 m 0
 383.623 956 437.623 1002 493.623 1002 c 0
 549.623 1002 586.623 956 577.623 899 c 0
 568.623 842 516.623 797 460.623 797 c 0
 404.623 797 365.623 842 374.623 899 c 0
131 320 m 2
 196 732 l 1
 220 732 l 1
 155 320 l 2
 108 21 203 19 339 19 c 0
 464 19 569 35 614 320 c 2
 679 732 l 1
 703 732 l 1
 638 320 l 2
 587 -3 463 -5 341 -5 c 0
 205 -5 79 -9 131 320 c 2
EndSplineSet
Substitution2: "'c2sc' Capitals to Small Capitals in Latin lookup 17 subtable" uring.smcp
EndChar

StartChar: Uhungarumlaut
Encoding: 329 368 244
Width: 681
VWidth: 0
Flags: HW
HStem: -5 24<221.746 443.368> 712 20<192.845 220 675.845 703> 797 133
VStem: 383.459 307
DStem2: 131 320 155 320 0.155839 0.987782<-141.96 417.096> 383.459 797 397.459 797 0.756823 0.65362<10.5955 194.4> 522.459 797 536.459 797 0.756823 0.65362<10.5955 194.4> 614 320 638 320 0.155839 0.987782<-136.867 417.096>
LayerCount: 2
Fore
SplineSet
522.459 797 m 1
 664.459 930 l 1
 690.459 930 l 1
 536.459 797 l 1
 522.459 797 l 1
383.459 797 m 1
 525.459 930 l 1
 551.459 930 l 1
 397.459 797 l 1
 383.459 797 l 1
131 320 m 2
 196 732 l 1
 220 732 l 1
 155 320 l 2
 108 21 203 19 339 19 c 0
 464 19 569 35 614 320 c 2
 679 732 l 1
 703 732 l 1
 638 320 l 2
 587 -3 463 -5 341 -5 c 0
 205 -5 79 -9 131 320 c 2
EndSplineSet
Substitution2: "'c2sc' Capitals to Small Capitals in Latin lookup 17 subtable" uhungarumlaut.smcp
EndChar

StartChar: Tcommaaccent
Encoding: 330 354 245
Width: 631
VWidth: 0
Flags: HW
HStem: -185 7<140 174> 0 21<280 307.164> 708 24<142 392 416 676>
VStem: 276 17<-88.908 -49>
DStem2: 280 0 304 0 0.156249 0.987718<3.74998 716.804>
LayerCount: 2
Fore
SplineSet
139 -185 m 1
 140 -178 l 1
 174 -173 l 2
 229 -165 261 -157 276 -49 c 1
 293 -49 l 1
 277 -149 253 -185 170 -185 c 2
 139 -185 l 1
138 708 m 1
 142 732 l 1
 680 732 l 1
 676 708 l 1
 416 708 l 1
 304 0 l 1
 280 0 l 1
 392 708 l 1
 138 708 l 1
EndSplineSet
Substitution2: "'c2sc' Capitals to Small Capitals in Latin lookup 17 subtable" tcommaaccent.smcp
EndChar

StartChar: racute
Encoding: 331 341 246
Width: 393
VWidth: 0
Flags: HW
HStem: 0 21<60 87.1532> 513 18<307.219 456.562> 597 133
VStem: 144 10<486.75 531> 305.776 168
DStem2: 305.776 597 319.776 597 0.756823 0.65362<10.5955 194.4>
LayerCount: 2
Fore
SplineSet
305.776 597 m 1
 447.776 730 l 1
 473.776 730 l 1
 319.776 597 l 1
 305.776 597 l 1
60 0 m 1
 144 531 l 1
 156 531 l 1
 157 464 l 1
 224 499 297 537 387 537 c 0
 416 537 441 536 460 529 c 1
 456 506 l 1
 433 511 412 513 383 513 c 0
 294 513 237 481 154 444 c 1
 84 0 l 1
 60 0 l 1
EndSplineSet
AlternateSubs2: "'salt' Access All Alternates in Latin lookup 4-1" racute.salt
Substitution2: "'smcp' Lowercase to Small Capitals lookup 16-1" racute.smcp
EndChar

StartChar: abreve
Encoding: 332 259 247
Width: 545
VWidth: 0
Flags: HW
HStem: -7 23<177.986 318.991> 0 21<452 468.923> 602.972 14<318.41 392.13>
VStem: 255.482 14<664.099 716.972> 453 13<0 47.9> 471.482 14<693.576 716.972>
DStem2: 511 476 536 479 0.144602 0.98949<-412.388 4.78166>
LayerCount: 2
Fore
SplineSet
255.482 716.972 m 1
 269.482 716.972 l 1
 260.482 659.972 299.482 615.972 353.482 616.972 c 0
 412.482 617.972 462.482 658.972 471.482 716.972 c 1
 485.482 716.972 l 1
 473.482 640.972 407.482 602.972 352.482 602.972 c 0
 297.482 602.972 244.482 644.972 255.482 716.972 c 1
109 246 m 0
 86 98 128 16 238 16 c 0
 325 16 385 46 453 75 c 1
 511 476 l 1
 482 494 406 530 309 517 c 0
 192 501 139 438 109 246 c 0
90 279 m 0
 130 507 228 531 310 541 c 0
 380 550 485 528 536 479 c 1
 466 0 l 1
 452 0 l 1
 453 60 l 1
 424 41 323 -7 246 -7 c 0
 132 -7 49 45 90 279 c 0
EndSplineSet
Substitution2: "'smcp' Lowercase to Small Capitals lookup 16-1" abreve.smcp
EndChar

StartChar: lacute
Encoding: 333 314 248
Width: 313
VWidth: 0
Flags: HW
HStem: 0 13<207.594 249> 763 20<179.835 207> 843 133
VStem: 197.667 168
DStem2: 89 189 113 189 0.156304 0.987709<-89.4128 601.392> 197.667 843 211.667 843 0.756823 0.65362<10.5955 194.4>
LayerCount: 2
Fore
SplineSet
197.667 843 m 1
 339.667 976 l 1
 365.667 976 l 1
 211.667 843 l 1
 197.667 843 l 1
89 189 m 2
 183 783 l 1
 207 783 l 1
 113 189 l 2
 88 32 150 28 179 24 c 2
 179 24 244 13 251 13 c 1
 249 0 l 1
 184 0 l 2
 100 0 68 57 89 189 c 2
EndSplineSet
Substitution2: "'smcp' Lowercase to Small Capitals lookup 16-1" lacute.smcp
EndChar

StartChar: cacute
Encoding: 334 263 249
Width: 491
VWidth: 0
Flags: HW
HStem: -5 24<161.554 359.96> 512 24<232.625 427.827> 596 133
VStem: 340.667 168
DStem2: 340.667 596 354.667 596 0.756823 0.65362<10.5955 194.4>
LayerCount: 2
Fore
SplineSet
340.667 596 m 1
 482.667 729 l 1
 508.667 729 l 1
 354.667 596 l 1
 340.667 596 l 1
90 273 m 0
 127 505 206 536 308 536 c 0
 360 536 442 524 502 510 c 1
 499 496 l 1
 499 496 393 512 304 512 c 0
 213 512 147 478 113 262 c 0
 80 56 140 19 226 19 c 0
 318 19 434 40 434 40 c 1
 432 24 l 1
 347 1 305 -4 222 -5 c 1
 123 -5 53 40 90 273 c 0
EndSplineSet
Substitution2: "'smcp' Lowercase to Small Capitals lookup 16-1" cacute.smcp
EndChar

StartChar: ccaron
Encoding: 335 269 250
Width: 491
VWidth: 0
Flags: HW
HStem: -5 24<161.554 359.96> 512 24<232.625 427.827> 596 130
VStem: 252.268 272
DStem2: 269.268 726 252.268 726 0.601964 -0.798523<0 148.415> 363.268 611 371.268 596 0.762062 0.647504<0 183.438>
LayerCount: 2
Fore
SplineSet
252.268 726 m 1
 269.268 726 l 1
 363.268 611 l 1
 506.268 726 l 1
 524.268 726 l 1
 371.268 596 l 1
 350.268 596 l 1
 252.268 726 l 1
90 273 m 0
 127 505 206 536 308 536 c 0
 360 536 442 524 502 510 c 1
 499 496 l 1
 499 496 393 512 304 512 c 0
 213 512 147 478 113 262 c 0
 80 56 140 19 226 19 c 0
 318 19 434 40 434 40 c 1
 432 24 l 1
 347 1 305 -4 222 -5 c 1
 123 -5 53 40 90 273 c 0
EndSplineSet
Substitution2: "'smcp' Lowercase to Small Capitals lookup 16-1" ccaron.smcp
EndChar

StartChar: eogonek
Encoding: 336 281 251
Width: 537
VWidth: 0
Flags: HW
HStem: -158.922 14<403.924 449.335> -7 24<156.35 368.237> 2.0781 20<354.835 446.335> 517 24<253.042 436.143>
LayerCount: 2
Fore
SplineSet
108 261 m 1
 108 261 477 192 502 388 c 0
 515 486 451 517 347 517 c 0
 149 517 137 406 108 261 c 1
87 278 m 0
 113 430 144 541 339 541 c 0
 465 541 542 504 527 388 c 0
 499 169 143 232 106 247 c 1
 86 94 105 19 212 17 c 0
 289 16 372 27 450 38 c 1
 447 22 l 2
 446.03 21.7344 445.062 21.471 444.097 21.2099 c 0
 328.226 -24.5066 320.174 -147.903 451.335 -144.922 c 1
 449.335 -158.922 l 1
 335.745 -174.324 279.607 -53.5076 417.402 14.4176 c 1
 346.873 -2.35689 287.014 -7 214 -7 c 0
 86 -7 54 84 87 278 c 0
EndSplineSet
Substitution2: "'smcp' Lowercase to Small Capitals lookup 16-1" eogonek.smcp
EndChar

StartChar: ecaron
Encoding: 337 283 252
Width: 537
VWidth: 0
Flags: HW
HStem: -7 24<156.35 368.237> 517 24<253.042 436.143> 601 130
VStem: 233.268 272
DStem2: 250.268 731 233.268 731 0.601964 -0.798523<0 148.415> 344.268 616 352.268 601 0.762062 0.647504<0 183.438>
LayerCount: 2
Fore
SplineSet
233.268 731 m 1
 250.268 731 l 1
 344.268 616 l 1
 487.268 731 l 1
 505.268 731 l 1
 352.268 601 l 1
 331.268 601 l 1
 233.268 731 l 1
108 261 m 1
 108 261 477 192 502 388 c 0
 515 486 451 517 347 517 c 0
 149 517 137 406 108 261 c 1
87 278 m 0
 113 430 144 541 339 541 c 0
 465 541 542 504 527 388 c 0
 499 169 143 232 106 247 c 1
 86 94 105 19 212 17 c 0
 289 16 372 27 450 38 c 1
 447 22 l 1
 363 -1 297 -7 214 -7 c 0
 86 -7 54 84 87 278 c 0
EndSplineSet
Substitution2: "'smcp' Lowercase to Small Capitals lookup 16-1" ecaron.smcp
EndChar

StartChar: dcaron
Encoding: 338 271 253
Width: 541
VWidth: 0
Flags: HW
HStem: 0 18<188.4 314.542> 515 24<251.34 414.006> 765 20G<549.853 575 634.716 663>
VStem: 438 13<0 44.3145>
DStem2: 439 73 451 0 0.156027 0.987753<-6.68748 418.284 431.549 721.067>
LayerCount: 2
Fore
SplineSet
613 581 m 1
 627 715 l 1
 638 782 l 1
 663 782 l 1
 652 715 l 1
 625 581 l 1
 613 581 l 1
113 263 m 0
 84 82 153 18 238 18 c 0
 317 18 382 46 439 73 c 1
 505 485 l 1
 439 503 393 515 316 515 c 0
 232 515 146 472 113 263 c 0
89 271 m 0
 111 407 166 539 317 539 c 0
 362 539 448 525 508 499 c 1
 553 785 l 1
 575 785 l 1
 451 0 l 1
 438 0 l 1
 437 59 l 1
 407 35 299 -6 231 -6 c 0
 86 -6 70 149 89 271 c 0
EndSplineSet
AlternateSubs2: "'salt' Access All Alternates in Latin lookup 4-1" dcaron.salt
Substitution2: "'smcp' Lowercase to Small Capitals lookup 16-1" dcaron.smcp
EndChar

StartChar: nacute
Encoding: 339 324 254
Width: 540
VWidth: 0
Flags: HW
HStem: 0 21<60 87.1648 440 467.189> 511 20<140.836 158> 516 24<299.446 439.43> 600 133
VStem: 144 14<486.75 531> 350.35 168
DStem2: 350.35 600 364.35 600 0.756823 0.65362<10.5955 194.4> 440 0 464 0 0.15747 0.987524<3.77928 433.957>
LayerCount: 2
Fore
SplineSet
350.35 600 m 1
 492.35 733 l 1
 518.35 733 l 1
 364.35 600 l 1
 350.35 600 l 1
60 0 m 1
 144 531 l 1
 158 531 l 1
 158 469 l 1
 223 507 305 540 386 540 c 0
 492 540 537 458 523 370 c 2
 464 0 l 1
 440 0 l 1
 499 370 l 2
 512 449 471 516 382 516 c 0
 294 516 236 495 156 455 c 1
 84 0 l 1
 60 0 l 1
EndSplineSet
AlternateSubs2: "'salt' Access All Alternates in Latin lookup 4-1" nacute.salt
Substitution2: "'smcp' Lowercase to Small Capitals lookup 16-1" nacute.smcp
EndChar

StartChar: ncaron
Encoding: 340 328 255
Width: 540
VWidth: 0
Flags: HW
HStem: 0 21<60 87.1648 440 467.189> 511 20<140.836 158> 516 24<299.446 439.43> 600 130
VStem: 144 14<486.75 531> 241.951 272
DStem2: 258.951 730 241.951 730 0.601964 -0.798523<0 148.415> 352.951 615 360.951 600 0.762062 0.647504<0 183.438> 440 0 464 0 0.15747 0.987524<3.77928 433.957>
LayerCount: 2
Fore
SplineSet
241.951 730 m 1
 258.951 730 l 1
 352.951 615 l 1
 495.951 730 l 1
 513.951 730 l 1
 360.951 600 l 1
 339.951 600 l 1
 241.951 730 l 1
60 0 m 1
 144 531 l 1
 158 531 l 1
 158 469 l 1
 223 507 305 540 386 540 c 0
 492 540 537 458 523 370 c 2
 464 0 l 1
 440 0 l 1
 499 370 l 2
 512 449 471 516 382 516 c 0
 294 516 236 495 156 455 c 1
 84 0 l 1
 60 0 l 1
EndSplineSet
AlternateSubs2: "'salt' Access All Alternates in Latin lookup 4-1" ncaron.salt
Substitution2: "'smcp' Lowercase to Small Capitals lookup 16-1" ncaron.smcp
EndChar

StartChar: ohungarumlaut
Encoding: 341 337 256
Width: 560
VWidth: 0
Flags: HW
HStem: -5 24<177.716 365.943> 512 24<252.013 437.291> 596 133
VStem: 287.167 307
DStem2: 287.167 596 301.167 596 0.756823 0.65362<10.5955 194.4> 426.167 596 440.167 596 0.756823 0.65362<10.5955 194.4>
LayerCount: 2
Fore
SplineSet
426.167 596 m 1
 568.167 729 l 1
 594.167 729 l 1
 440.167 596 l 1
 426.167 596 l 1
287.167 596 m 1
 429.167 729 l 1
 455.167 729 l 1
 301.167 596 l 1
 287.167 596 l 1
115 258 m 0
 82 47 146 19 273 19 c 0
 401 19 473 56 505 258 c 0
 539 475 470 512 349 512 c 0
 229 512 152 490 115 258 c 0
91 265 m 0
 125 482 195 536 354 536 c 0
 527 536 559 438 529 251 c 0
 498 57 436 -5 268 -5 c 0
 92 -5 61 75 91 265 c 0
EndSplineSet
Substitution2: "'smcp' Lowercase to Small Capitals lookup 16-1" ohungarumlaut.smcp
EndChar

StartChar: rcaron
Encoding: 342 345 257
Width: 393
VWidth: 0
Flags: HW
HStem: 0 21<60 87.1532> 513 18<307.219 456.562> 597 130
VStem: 144 10<486.75 531> 197.377 272
DStem2: 214.377 727 197.377 727 0.601964 -0.798523<0 148.415> 308.377 612 316.377 597 0.762062 0.647504<0 183.438>
LayerCount: 2
Fore
SplineSet
197.377 727 m 1
 214.377 727 l 1
 308.377 612 l 1
 451.377 727 l 1
 469.377 727 l 1
 316.377 597 l 1
 295.377 597 l 1
 197.377 727 l 1
60 0 m 1
 144 531 l 1
 156 531 l 1
 157 464 l 1
 224 499 297 537 387 537 c 0
 416 537 441 536 460 529 c 1
 456 506 l 1
 433 511 412 513 383 513 c 0
 294 513 237 481 154 444 c 1
 84 0 l 1
 60 0 l 1
EndSplineSet
AlternateSubs2: "'salt' Access All Alternates in Latin lookup 4-1" rcaron.salt
Substitution2: "'smcp' Lowercase to Small Capitals lookup 16-1" rcaron.smcp
EndChar

StartChar: uring
Encoding: 343 367 258
Width: 539
VWidth: 0
Flags: HW
HStem: -8 24<159.023 298.906> 1 21<440 457.164> 512 20<130.811 158 510.835 538> 596 15<317.244 384.946> 786 15<341.765 409.514>
VStem: 260.964 203 440 14<1 45.25>
DStem2: 75 162 99 162 0.15747 0.987524<-55.4837 374.675> 442 77 454 1 0.156249 0.987718<-7.16798 460.661>
LayerCount: 2
Fore
SplineSet
275.964 698 m 0
 267.964 650 301.964 611 349.964 611 c 0
 397.964 611 441.964 650 449.964 698 c 0
 457.964 746 424.964 786 376.964 786 c 0
 328.964 786 283.964 746 275.964 698 c 0
260.964 698 m 0
 269.964 755 323.964 801 379.964 801 c 0
 435.964 801 472.964 755 463.964 698 c 0
 454.964 641 402.964 596 346.964 596 c 0
 290.964 596 251.964 641 260.964 698 c 0
75 162 m 2
 134 532 l 1
 158 532 l 1
 99 162 l 2
 86 83 127 16 216 16 c 0
 304 16 362 37 442 77 c 1
 514 532 l 1
 538 532 l 1
 454 1 l 1
 440 1 l 1
 440 63 l 1
 375 25 294 -8 213 -8 c 0
 107 -8 61 74 75 162 c 2
EndSplineSet
AlternateSubs2: "'salt' Access All Alternates in Latin lookup 4-1" uring.salt
Substitution2: "'smcp' Lowercase to Small Capitals lookup 16-1" uring.smcp
EndChar

StartChar: uhungarumlaut
Encoding: 344 369 259
Width: 539
VWidth: 0
Flags: HW
HStem: -8 24<159.023 298.906> 1 21<440 457.164> 512 20<130.811 158 510.835 538> 596 133
VStem: 269.801 307 440 14<1 45.25>
DStem2: 75 162 99 162 0.15747 0.987524<-55.4837 374.675> 269.801 596 283.801 596 0.756823 0.65362<10.5955 194.4> 408.801 596 422.801 596 0.756823 0.65362<10.5955 194.4> 442 77 454 1 0.156249 0.987718<-7.16798 460.661>
LayerCount: 2
Fore
SplineSet
408.801 596 m 1
 550.801 729 l 1
 576.801 729 l 1
 422.801 596 l 1
 408.801 596 l 1
269.801 596 m 1
 411.801 729 l 1
 437.801 729 l 1
 283.801 596 l 1
 269.801 596 l 1
75 162 m 2
 134 532 l 1
 158 532 l 1
 99 162 l 2
 86 83 127 16 216 16 c 0
 304 16 362 37 442 77 c 1
 514 532 l 1
 538 532 l 1
 454 1 l 1
 440 1 l 1
 440 63 l 1
 375 25 294 -8 213 -8 c 0
 107 -8 61 74 75 162 c 2
EndSplineSet
AlternateSubs2: "'salt' Access All Alternates in Latin lookup 4-1" uhungarumlaut.salt
Substitution2: "'smcp' Lowercase to Small Capitals lookup 16-1" uhungarumlaut.smcp
EndChar

StartChar: tcommaaccent
Encoding: 345 355 260
Width: 344
VWidth: 0
Flags: HW
HStem: -172.467 7<48.9588 82.9588> -1 13<243.594 285> 508 16<95 169.375> 508 24<204 375>
VStem: 92 287 184.959 17<-76.3746 -36.4667>
DStem2: 125 188 149 188 0.156581 0.987665<-89.3559 324.038>
LayerCount: 2
Fore
SplineSet
47.959 -172.467 m 1
 48.959 -165.467 l 1
 82.959 -160.467 l 2
 137.959 -152.467 169.959 -144.467 184.959 -36.4668 c 1
 201.959 -36.4668 l 1
 185.959 -136.467 161.959 -172.467 78.959 -172.467 c 2
 47.959 -172.467 l 1
92 508 m 1
 95 524 l 1
 180 532 l 1
 211 680 l 1
 227 680 l 1
 204 532 l 1
 379 532 l 1
 375 508 l 1
 200 508 l 1
 149 188 l 2
 124 31 186 27 215 23 c 2
 215 23 280 12 287 12 c 1
 285 -1 l 1
 222 -1 l 2
 138 -1 104 56 125 188 c 2
 176 508 l 1
 92 508 l 1
EndSplineSet
AlternateSubs2: "'salt' Access All Alternates in Latin lookup 4-1" tcommaaccent.salt
Substitution2: "'smcp' Lowercase to Small Capitals lookup 16-1" tcommaaccent.smcp
EndChar

StartChar: Lslash
Encoding: 346 321 261
Width: 547
VWidth: 0
Flags: HW
HStem: 0 24<155.737 492> 712 20G<192.825 220>
DStem2: 57 381 54 360 0.92742 0.374021<0 85.3685 123.858 250.827> 100 126 124 126 0.156465 0.987684<-52.5496 273.403 308.558 613.557>
LayerCount: 2
Fore
SplineSet
54 360 m 1
 57 381 l 1
 146 417 l 1
 196 732 l 1
 220 732 l 1
 172 427 l 1
 300 479 l 1
 296 459 l 1
 168 407 l 1
 124 126 l 2
 109 34 166 24 220 24 c 2
 496 24 l 1
 492 0 l 1
 219 0 l 2
 153 0 82 13 100 126 c 2
 143 396 l 1
 54 360 l 1
EndSplineSet
Substitution2: "'c2sc' Capitals to Small Capitals in Latin lookup 17 subtable" lslash.smcp
EndChar

StartChar: uni00AD
Encoding: 173 173 262
Width: 361
VWidth: 0
Flags: HW
HStem: 278 24<64 374>
VStem: 60 318
LayerCount: 2
Fore
SplineSet
60 278 m 1
 64 302 l 1
 378 302 l 1
 374 278 l 1
 60 278 l 1
EndSplineSet
Substitution2: "'case' Case-Sensitive Forms lookup 1-1" uni00AD.alt
Substitution2: "'c2sc' Capitals to Small Capitals in Latin lookup 17 subtable" uni00AD.smcp
Substitution2: "'smcp' Lowercase to Small Capitals lookup 16-1" uni00AD.smcp
EndChar

StartChar: lslash
Encoding: 347 322 263
Width: 313
VWidth: 0
Flags: HW
HStem: 0 13<207.594 249> 763 20G<179.82 207>
VStem: 52 249
DStem2: 55 420 52 399 0.901637 0.432493<0 72.7394 113.159 260.581> 89 189 113 189 0.156304 0.987709<-93.2663 250.06 287.187 601.392>
LayerCount: 2
Fore
SplineSet
52 399 m 1
 55 420 l 1
 131 456 l 1
 183 783 l 1
 207 783 l 1
 157 469 l 1
 301 538 l 1
 297 518 l 1
 154 448 l 1
 113 189 l 2
 92 54 126 32 179 24 c 2
 179 24 244 13 251 13 c 1
 249 0 l 1
 179 0 l 2
 102 0 67 48 89 189 c 2
 128 436 l 1
 52 399 l 1
EndSplineSet
Substitution2: "'smcp' Lowercase to Small Capitals lookup 16-1" lslash.smcp
EndChar

StartChar: Dcroat
Encoding: 348 272 264
Width: 686
VWidth: 0
Flags: HW
HStem: 0 24<108 409.861> 366 14<75 138 164 321> 708 24<216 514.438>
DStem2: 80 0 108 24 0.156517 0.987675<28.0867 370.567 388.464 720.56>
LayerCount: 2
Fore
SplineSet
108 24 m 1
 339 24 l 2
 521 24 601 216 626 364 c 0
 666 601 594 708 443 708 c 2
 216 708 l 1
 164 380 l 1
 323 380 l 1
 321 366 l 1
 162 366 l 1
 108 24 l 1
73 366 m 1
 75 380 l 1
 140 380 l 1
 196 732 l 1
 448 732 l 2
 674 732 678 504 650 355 c 0
 614 163 524 0 339 0 c 2
 80 0 l 1
 138 366 l 1
 73 366 l 1
EndSplineSet
Substitution2: "'c2sc' Capitals to Small Capitals in Latin lookup 17 subtable" dcroat.smcp
EndChar

StartChar: dcroat
Encoding: 349 273 265
Width: 521
VWidth: 0
Flags: HW
HStem: 0 18<189.853 312.814> 515 24<250.953 414.733> 641 14<402 532 556 637> 765 20G<551.769 577>
VStem: 439 13<0 43.9902>
DStem2: 441 73 452 0 0.157254 0.987558<-6.70679 418.114 431.393 575.243 592.843 721.068>
LayerCount: 2
Fore
SplineSet
114 263 m 0
 86 89 151 18 236 18 c 0
 315 18 384 46 441 73 c 1
 506 485 l 1
 440 503 392 515 315 515 c 0
 231 515 146 468 114 263 c 0
90 272 m 0
 112 408 168 539 319 539 c 0
 364 539 449 525 509 499 c 1
 532 641 l 1
 400 641 l 1
 402 655 l 1
 534 655 l 1
 555 785 l 1
 577 785 l 1
 556 655 l 1
 639 655 l 1
 637 641 l 1
 554 641 l 1
 452 0 l 1
 439 0 l 1
 439 59 l 1
 409 35 300 -6 232 -6 c 0
 87 -6 71 150 90 272 c 0
EndSplineSet
AlternateSubs2: "'salt' Access All Alternates in Latin lookup 4-1" dcroat.salt
Substitution2: "'smcp' Lowercase to Small Capitals lookup 16-1" dcroat.smcp
EndChar

StartChar: questiondown
Encoding: 191 191 266
Width: 541
VWidth: 0
Flags: HW
HStem: -268 24<111.618 385.707> -258 14<361.812 451> 154 20<173.92 335>
DStem2: 28 -80 52 -84 0.154968 0.98792<-78.9413 171.917> 335 174 358 154 0.171751 0.98514<-0.645131 103.232 215.558 302.719>
LayerCount: 2
Fore
SplineSet
367 396 m 2
 376 458 l 2
 377.158 465.978 383 470 390 470 c 2
 401 470 l 2
 408 470 412.016 464.998 411 458 c 2
 402 396 l 2
 401 388 396 384 388 384 c 2
 376 384 l 2
 368 384 366 389 367 396 c 2
28 -80 m 2
 44 20 l 2
 64 149 150 193 335 174 c 1
 351 276 l 1
 377 276 l 1
 358 154 l 1
 252 154 l 2
 148 154 84 119 68 18 c 2
 52 -84 l 2
 33 -204 77 -244 202 -244 c 2
 453 -244 l 1
 451 -258 l 1
 372 -267 280 -268 197 -268 c 1
 40 -271 10 -193 28 -80 c 2
EndSplineSet
Substitution2: "'case' Case-Sensitive Forms lookup 1-1" questiondown.alt
Substitution2: "'smcp' Lowercase to Small Capitals lookup 16-1" questiondown.smcp
EndChar

StartChar: at.alt
Encoding: 350 -1 267
Width: 737
VWidth: 0
Flags: HW
HStem: -89 24<170.172 508.447> -79 14<542.946 611> 86 24<355.088 506.892> 93 23<645 712.785> 765 24<289.014 803.097>
DStem2: 76 99 100 99 0.15626 0.987716<-61.9129 593.88> 629 170 645 116 0.153312 0.988178<-10.576 405.677> 800 257 824 257 0.148067 0.988977<-72.9578 435.918>
LayerCount: 2
Fore
SplineSet
292 344 m 0
 267 145 336 111 414 110 c 0
 469 109 564 121 629 170 c 1
 688 569 l 1
 619 606 560 611 495 609 c 0
 438 607 322 585 292 344 c 0
76 99 m 2
 157 611 l 2
 172 703 224 789 362 789 c 2
 737 789 l 2
 848 789 894 724 877 611 c 2
 824 257 l 2
 819 222 799 93 655 93 c 2
 626 93 l 1
 628 153 l 1
 597 119 495 87 422 86 c 0
 311 84 236 138 270 365 c 0
 304 586 411 627 485 634 c 0
 564 641 661 621 712 572 c 1
 645 116 l 1
 693 116 780 124 800 257 c 2
 853 611 l 2
 871 732 818 765 736 765 c 2
 362 765 l 2
 242 765 194 694 181 611 c 2
 100 99 l 2
 83 -7 143 -65 229 -65 c 2
 613 -65 l 1
 611 -79 l 1
 561 -89 447 -89 321 -89 c 2
 223 -89 l 2
 119 -89 59 -8 76 99 c 2
EndSplineSet
EndChar

StartChar: questiondown.alt
Encoding: 351 -1 268
Width: 541
VWidth: 0
Flags: HW
HStem: -6 24<152.618 426.707> 4 14<402.812 492> 416 20<214.92 376> 666 66<415.594 447.389>
DStem2: 69 182 93 178 0.154968 0.98792<-78.9413 172.368> 376 436 399 416 0.171751 0.98514<-0.642275 103.232 235.776 302.719>
LayerCount: 2
Fore
SplineSet
411 678 m 2
 417 720 l 2
 418 728 424 732 431 732 c 2
 442 732 l 2
 449 732 453 727 452 720 c 2
 446 678 l 2
 445 670 440 666 432 666 c 2
 420 666 l 2
 412 666 410 671 411 678 c 2
69 182 m 2
 84 280 l 2
 105 415 191 455 376 436 c 1
 392 538 l 1
 418 538 l 1
 399 416 l 1
 293 416 l 2
 189 416 125 381 109 280 c 2
 93 178 l 2
 74 58 118 18 243 18 c 2
 494 18 l 1
 492 4 l 1
 413 -5 321 -6 238 -6 c 1
 81 -9 51 64 69 182 c 2
EndSplineSet
EndChar

StartChar: oe
Encoding: 352 339 269
Width: 966
VWidth: 0
Flags: HW
HStem: -5 24<177.716 368.574 575.231 801.497> 512 24<252.013 436.678 663.647 870.359>
LayerCount: 2
Fore
SplineSet
531 261 m 1
 541 259 899 195 924 388 c 0
 937 486 873 517 769 517 c 0
 596 517 553 431 531 261 c 1
115 258 m 0
 82 47 146 19 273 19 c 0
 401 19 473 56 505 258 c 0
 539 475 470 512 349 512 c 0
 229 512 152 490 115 258 c 0
91 265 m 0
 125 482 195 536 354 536 c 0
 474 536 526 489 537 398 c 1
 567 485 625 539 761 541 c 0
 887 543 964 504 949 388 c 0
 921 169 565 232 528 247 c 1
 503 95 531 19 634 17 c 0
 711 16 794 27 872 38 c 1
 869 22 l 1
 785 -1 719 -7 636 -7 c 0
 548 -7 505 36 498 127 c 1
 460 30 393 -5 268 -5 c 0
 92 -5 61 75 91 265 c 0
EndSplineSet
Substitution2: "'smcp' Lowercase to Small Capitals lookup 16-1" oe.smcp
EndChar

StartChar: OE
Encoding: 353 338 270
Width: 1025
VWidth: 0
Flags: HW
HStem: -4 24<220.32 442.013 648.7 872.818> 7 14<785.7 967> 351 24<656 982> 708 14<894.5 1078> 713 24<322.616 550.781 766.086 938.667>
DStem2: 593 133 616 123 0.156704 0.987646<-64.5341 0 66.761 224.552 248.883 404.027>
LayerCount: 2
Fore
SplineSet
141 361 m 0
 94 63 152 20 331 20 c 0
 502 20 582 65 629 361 c 0
 680 685 601 713 441 713 c 0
 293 713 194 698 141 361 c 0
117 368 m 0
 171 711 274 737 446 737 c 0
 567 737 647 718 665 588 c 1
 675 693 736 735 815 732 c 2
 1080 722 l 1
 1078 708 l 1
 811 708 l 2
 749 708 704 677 692 602 c 2
 656 375 l 1
 984 370 l 1
 982 356 l 1
 652 351 l 1
 616 123 l 2
 601 31 657 21 712 21 c 2
 969 21 l 1
 967 7 l 1
 708 -3 l 2
 638 -6 571 22 593 133 c 1
 536 13 451 -4 325 -4 c 0
 145 -4 64 35 117 368 c 0
EndSplineSet
EndChar

StartChar: Ydieresis
Encoding: 354 376 271
Width: 628
VWidth: 0
Flags: HW
HStem: 0 21<277 304.154> 712 20<150 184.091 636.545 680> 797 35<283.41 318.106 538.41 573.106>
VStem: 283.311 35<797.206 831.68> 538.311 35<797.206 831.68>
DStem2: 177 732 150 732 0.335325 -0.942103<0 466.836> 277 0 301 0 0.155767 0.987794<3.73842 263.213> 333 292 342 260 0.582215 0.813035<0 542.88>
LayerCount: 2
Fore
SplineSet
538.311 815 m 0
 540.311 825 549.311 832 559.311 832 c 0
 569.311 832 575.311 825 573.311 815 c 0
 571.311 805 563.311 797 553.311 797 c 0
 543.311 797 536.311 805 538.311 815 c 0
283.311 815 m 0
 285.311 825 294.311 832 304.311 832 c 0
 314.311 832 320.311 825 318.311 815 c 0
 316.311 805 308.311 797 298.311 797 c 0
 288.311 797 281.311 805 283.311 815 c 0
150 732 m 1
 177 732 l 1
 333 292 l 1
 651 732 l 1
 680 732 l 1
 342 260 l 1
 301 0 l 1
 277 0 l 1
 318 260 l 1
 150 732 l 1
EndSplineSet
Substitution2: "'c2sc' Capitals to Small Capitals in Latin lookup 17 subtable" ydieresis.smcp
EndChar

StartChar: guillemotright
Encoding: 187 187 272
Width: 559
VWidth: 0
Flags: HW
DStem2: 81 163 96 145 0.758154 0.652075<0 297.087> 167 558 149 542 0.644597 -0.764522<0.629607 243.268> 266 163 281 145 0.758154 0.652075<0 297.193> 352 558 334 543 0.644597 -0.764522<0 244.677>
LayerCount: 2
Fore
SplineSet
266 163 m 1
 492 356 l 1
 334 543 l 1
 352 558 l 1
 524 354 l 1
 281 145 l 1
 266 163 l 1
81 163 m 1
 306 357 l 1
 149 542 l 1
 167 558 l 1
 339 354 l 1
 96 145 l 1
 81 163 l 1
EndSplineSet
EndChar

StartChar: cent
Encoding: 162 162 273
Width: 478
VWidth: 0
Flags: HW
HStem: -5 24<152.562 230 249 352.147> 512 24<226.852 316 334 422.792>
DStem2: 218 -82 236 -82 0.156615 0.98766<2.81906 77.9292 627.553 708.746>
LayerCount: 2
Fore
SplineSet
80 273 m 0
 118 513 201 536 316 536 c 1
 329 618 l 1
 347 618 l 1
 334 535 l 1
 384 532 445 522 493 510 c 1
 491 496 l 1
 491 496 384 512 295 512 c 0
 204 512 139 478 105 262 c 0
 72 56 131 19 217 19 c 0
 309 19 426 40 426 40 c 1
 423 24 l 1
 351 4 311 -2 249 -4 c 1
 236 -82 l 1
 218 -82 l 1
 230 -5 l 1
 115 -7 41 32 80 273 c 0
EndSplineSet
EndChar

